<svg xmlns="http://www.w3.org/2000/svg" xmlns:xlink="http://www.w3.org/1999/xlink" width="504.979" height="535.972" viewBox="0 0 504.979 535.972"><defs><style>.a,.k,.o{fill:#524f9c;}.a{opacity:0.103;}.b{fill:#f6af21;}.c{fill:#e44b4b;}.d,.f,.h,.x{fill:#008bcc;}.e{fill:#78d9a3;}.f{stroke:#d5d5d5;opacity:0.078;}.g{fill:rgba(21,139,204,0.11);}.h,.j,.l{font-size:10px;}.h,.i,.j,.l{font-family:Prompt-Medium, Prompt;font-weight:500;}.h,.i,.j{letter-spacing:-0.02em;}.h,.j{opacity:0.781;}.i,.j{fill:#231f20;}.i{font-size:16px;}.l,.m,.n,.r{fill:#fff;}.m{stroke:#ddd;}.n{stroke:#ccc;}.o,.p{font-size:9px;font-family:Prompt-Light, Prompt;font-weight:300;}.p{fill:#707070;}.q{fill:none;}.r{font-size:11px;font-family:Helvetica-Bold, Helvetica;font-weight:700;letter-spacing:-0.03em;}.s{opacity:0.374;}.t{fill:#524ea0;}.u{fill:url(#e);}.v{fill:#f7f7f7;}.w,.x{stroke:none;}.y{filter:url(#h);}.z{filter:url(#f);}.aa{filter:url(#c);}.ab{filter:url(#a);}</style><filter id="a" x="222.372" y="88.873" width="253.325" height="152.151" filterUnits="userSpaceOnUse"><feOffset dy="3" input="SourceAlpha"/><feGaussianBlur stdDeviation="3" result="b"/><feFlood flood-opacity="0.161"/><feComposite operator="in" in2="b"/><feComposite in="SourceGraphic"/></filter><filter id="c" x="99.661" y="203.149" width="263" height="223" filterUnits="userSpaceOnUse"><feOffset dy="3" input="SourceAlpha"/><feGaussianBlur stdDeviation="3" result="d"/><feFlood flood-opacity="0.161"/><feComposite operator="in" in2="d"/><feComposite in="SourceGraphic"/></filter><linearGradient id="e" x1="0.5" y1="1" x2="0.5" gradientUnits="objectBoundingBox"><stop offset="0.001" stop-color="#fff" stop-opacity="0"/><stop offset="0.005" stop-color="#fefefe" stop-opacity="0.004"/><stop offset="0.213" stop-color="#d5f3e3" stop-opacity="0.306"/><stop offset="0.412" stop-color="#b3eacc" stop-opacity="0.553"/><stop offset="0.595" stop-color="#99e2ba" stop-opacity="0.745"/><stop offset="0.759" stop-color="#86ddad" stop-opacity="0.886"/><stop offset="0.9" stop-color="#7bdaa5" stop-opacity="0.969"/><stop offset="1" stop-color="#77d9a3"/></linearGradient><filter id="f" x="222.372" y="88.873" width="253.325" height="152.151" filterUnits="userSpaceOnUse"><feOffset dy="3" input="SourceAlpha"/><feGaussianBlur stdDeviation="3" result="g"/><feFlood flood-opacity="0.161"/><feComposite operator="in" in2="g"/><feComposite in="SourceGraphic"/></filter><filter id="h" x="99.661" y="203.149" width="263" height="223" filterUnits="userSpaceOnUse"><feOffset dy="3" input="SourceAlpha"/><feGaussianBlur stdDeviation="3" result="i"/><feFlood flood-opacity="0.161"/><feComposite operator="in" in2="i"/><feComposite in="SourceGraphic"/></filter></defs><g transform="translate(-76.374 -1399.851)"><path class="a" d="M-648.062,4184.02c-44.025-12.029-126.825-4.074-166.728,30.293s-106.77,130.773-149.216,151.533-87.829,65.222-41.558,93.141,237.146,86.864,263.112,41.964,3.4-92.148,33.965-104.715,75.979,8.043,111.534-23.53S-604.037,4196.049-648.062,4184.02Z" transform="translate(4648.704 784.84) rotate(68)"/><g transform="translate(33.035 542)"><g transform="translate(163.868 911.203)"><path class="b" d="M2,0H15a2,2,0,0,1,2,2V203a0,0,0,0,1,0,0H0a0,0,0,0,1,0,0V2A2,2,0,0,1,2,0Z" transform="translate(21.132 10.797)"/><path class="c" d="M2,0H15a2,2,0,0,1,2,2V104a0,0,0,0,1,0,0H0a0,0,0,0,1,0,0V2A2,2,0,0,1,2,0Z" transform="translate(41.132 109.797)"/><path class="d" d="M2,0H15a2,2,0,0,1,2,2V115a0,0,0,0,1,0,0H0a0,0,0,0,1,0,0V2A2,2,0,0,1,2,0Z" transform="translate(62.132 98.797)"/><path class="e" d="M2,0H16a2,2,0,0,1,2,2V203a0,0,0,0,1,0,0H0a0,0,0,0,1,0,0V2A2,2,0,0,1,2,0Z" transform="translate(83.132 10.797)"/></g><g transform="translate(171.711 626.224)"><g class="ab" transform="matrix(1, 0, 0, 1, -128.37, 231.63)"><g class="f" transform="translate(231.37 94.87)"><rect class="w" width="235.325" height="134.151" rx="5"/><rect class="q" x="0.5" y="0.5" width="234.325" height="133.151" rx="4.5"/></g></g><g transform="translate(287.634 355.8)"><g class="g"><path class="w" d="M 86.32465362548828 19.43879890441895 L 2.647994995117188 19.43879890441895 C 1.75468897819519 19.43879890441895 1.000006675720215 18.33677673339844 1.000006675720215 17.03232955932617 L 1.000006675720215 3.406470060348511 C 1.000006675720215 2.102022886276245 1.75468897819519 0.999999463558197 2.647994995117188 0.999999463558197 L 86.32465362548828 0.999999463558197 C 87.21795654296875 0.999999463558197 87.97265625 2.102022886276245 87.97265625 3.406470060348511 L 87.97265625 17.03232955932617 C 87.97265625 18.33677673339844 87.21795654296875 19.43879890441895 86.32465362548828 19.43879890441895 Z"/><path class="x" d="M 2.647987365722656 2 C 2.486686706542969 2 2.000007629394531 2.498813629150391 2.000007629394531 3.406465530395508 L 2.000007629394531 17.03233337402344 C 2.000007629394531 17.93998718261719 2.486686706542969 18.43879890441895 2.647987365722656 18.43879890441895 L 86.32466125488281 18.43879890441895 C 86.4859619140625 18.43879890441895 86.97264099121094 17.93998718261719 86.97264099121094 17.03233337402344 L 86.97264099121094 3.406465530395508 C 86.97264099121094 2.498813629150391 86.4859619140625 2 86.32466125488281 2 L 2.647987365722656 2 M 2.647987365722656 0 L 86.32466125488281 0 C 87.78709411621094 0 88.97264099121094 1.52513313293457 88.97264099121094 3.406465530395508 L 88.97264099121094 17.03233337402344 C 88.97264099121094 18.91366577148438 87.78709411621094 20.43879890441895 86.32466125488281 20.43879890441895 L 2.647987365722656 20.43879890441895 C 1.185554504394531 20.43879890441895 7.62939453125e-06 18.91366577148438 7.62939453125e-06 17.03233337402344 L 7.62939453125e-06 3.406465530395508 C 7.62939453125e-06 1.52513313293457 1.185554504394531 0 2.647987365722656 0 Z"/></g><text class="h" transform="translate(12.891 13.532)"><tspan x="0" y="0">100,000 EGP</tspan></text></g><g transform="translate(254.23 385.043)"><g class="g"><path class="w" d="M 118.7344741821289 19.43879890441895 L 3.642157316207886 19.43879890441895 C 2.185273885726929 19.43879890441895 1.000007271766663 18.35926628112793 1.000007271766663 17.03233337402344 L 1.000007271766663 3.406466007232666 C 1.000007271766663 2.079532861709595 2.185273885726929 0.999999463558197 3.642157316207886 0.999999463558197 L 118.7344741821289 0.999999463558197 C 120.1913757324219 0.999999463558197 121.3766555786133 2.079532861709595 121.3766555786133 3.406466007232666 L 121.3766555786133 17.03233337402344 C 121.3766555786133 18.35926628112793 120.1913757324219 19.43879890441895 118.7344741821289 19.43879890441895 Z"/><path class="x" d="M 3.642158508300781 2 C 2.736656188964844 2 1.999992370605469 2.630931854248047 1.999992370605469 3.406465530395508 L 1.999992370605469 17.03233337402344 C 1.999992370605469 17.80786514282227 2.736656188964844 18.43879890441895 3.642158508300781 18.43879890441895 L 118.7344741821289 18.43879890441895 C 119.6399765014648 18.43879890441895 120.3766403198242 17.80786514282227 120.3766403198242 17.03233337402344 L 120.3766403198242 3.406465530395508 C 120.3766403198242 2.630931854248047 119.6399765014648 2 118.7344741821289 2 L 3.642158508300781 2 M 3.642158508300781 0 L 118.7344741821289 0 C 120.7459869384766 0 122.3766403198242 1.52513313293457 122.3766403198242 3.406465530395508 L 122.3766403198242 17.03233337402344 C 122.3766403198242 18.91366577148438 120.7459869384766 20.43879890441895 118.7344741821289 20.43879890441895 L 3.642158508300781 20.43879890441895 C 1.630661010742188 20.43879890441895 -7.62939453125e-06 18.91366577148438 -7.62939453125e-06 17.03233337402344 L -7.62939453125e-06 3.406465530395508 C -7.62939453125e-06 1.52513313293457 1.630661010742188 0 3.642158508300781 0 Z"/></g><text class="h" transform="translate(10.187 13.675)"><tspan x="0" y="0">Premium EGP 6,500 </tspan><tspan x="0" y="15"></tspan></text></g><text class="i" transform="translate(115.945 366.262)"><tspan x="0" y="0">Platinum Coverage</tspan><tspan x="0" y="24"></tspan></text><text class="j" transform="translate(295.865 342.676)"><tspan x="0" y="0">Medical</tspan></text><g transform="translate(115.945 410.774)"><rect class="k" width="260.204" height="29.296" rx="5"/><text class="l" transform="translate(95.211 17.813)"><tspan x="0" y="0">Interested</tspan></text></g></g><g transform="translate(-727 895.943)"><g class="aa" transform="matrix(1, 0, 0, 1, 770.34, -38.09)"><g class="m" transform="translate(108.66 209.15)"><rect class="w" width="245" height="205" rx="19"/><rect class="q" x="0.5" y="0.5" width="244" height="204" rx="18.5"/></g></g><g transform="translate(898.388 135.388)"><g transform="translate(0 54.288)"><g class="n" transform="translate(-0.388 19.381)"><rect class="w" width="207" height="29" rx="5"/><rect class="q" x="0.5" y="0.5" width="206" height="28" rx="4.5"/></g><text class="o" transform="translate(11.612 36.381)"><tspan x="0" y="0">1/02/2020</tspan></text><text class="p" transform="translate(-0.388 10.381)"><tspan x="0" y="0">Start Date</tspan></text><g transform="translate(185.445 30.831)"><path class="k" d="M5.024,5.925,2,2.9,2.9,2,5.024,4.123,7.148,2l.9.9Z" transform="translate(-2 -0.713)"/><rect class="q" width="6.434" height="6.434" transform="translate(0 0)"/></g></g><g transform="translate(0 109.452)"><g class="n" transform="translate(-0.388 19.218)"><rect class="w" width="207" height="28" rx="5"/><rect class="q" x="0.5" y="0.5" width="206" height="27" rx="4.5"/></g><text class="o" transform="translate(11.612 35.218)"><tspan x="0" y="0">Medical insurance</tspan></text><text class="p" transform="translate(-0.388 10.218)"><tspan x="0" y="0">Category</tspan></text><g transform="translate(185.445 30.509)"><path class="k" d="M5.024,5.925,2,2.9,2.9,2,5.024,4.123,7.148,2l.9.9Z" transform="translate(-2 -0.713)"/><rect class="q" width="6.434" height="6.434" transform="translate(0 0)"/></g></g></g><g transform="translate(897.512 322.272)"><rect class="k" width="207" height="27" rx="5" transform="translate(0.488 -0.214)"/><text class="r" transform="translate(66.488 15.786)"><tspan x="0" y="0">GET A QOUTE</tspan></text></g></g><g class="s" transform="translate(-214.536 540.854)"><circle class="t" cx="33.018" cy="33.018" r="33.018" transform="translate(600.501 535.146)"/><path class="u" d="M19.378,35.379H19.2A10.5,10.5,0,0,1,8.992,24.822V19.33A10.482,10.482,0,0,1,0,8.944v-7.5A1.443,1.443,0,0,1,1.443,0H4.664a1.443,1.443,0,1,1,0,2.885H2.885V8.944a7.6,7.6,0,0,0,15.147,0V2.885H16.253a1.443,1.443,0,0,1,0-2.885h3.222a1.443,1.443,0,0,1,1.443,1.443v7.5A10.482,10.482,0,0,1,11.925,19.33v5.662a7.5,7.5,0,0,0,15,0V19.41A5.434,5.434,0,0,1,28.322,8.735h-.048A5.434,5.434,0,0,1,29.765,19.41v5.582A10.386,10.386,0,0,1,19.379,35.379ZM9.172,12.765a1,1,0,0,1-1-1V9.882H6.259a1,1,0,0,1-1-1v-2.5a1,1,0,0,1,1-1H8.168V3.5a1,1,0,0,1,1-1h2.437a1,1,0,0,1,1,1V5.378h1.909a1,1,0,0,1,1,1v2.5a1,1,0,0,1-1,1H12.613v1.879a1,1,0,0,1-1,1Z" transform="translate(616.634 551.073)"/></g></g><path class="a" d="M-648.062,4184.02c-44.025-12.029-126.825-4.074-166.728,30.293s-106.77,130.773-149.216,151.533-87.829,65.222-41.558,93.141,237.146,86.864,263.112,41.964,3.4-92.148,33.965-104.715,75.979,8.043,111.534-23.53S-604.037,4196.049-648.062,4184.02Z" transform="translate(4648.704 784.84) rotate(68)"/><g transform="translate(33.035 542)"><g transform="translate(163.868 911.203)"><path class="b" d="M2,0H15a2,2,0,0,1,2,2V203a0,0,0,0,1,0,0H0a0,0,0,0,1,0,0V2A2,2,0,0,1,2,0Z" transform="translate(21.132 10.797)"/><path class="c" d="M2,0H15a2,2,0,0,1,2,2V104a0,0,0,0,1,0,0H0a0,0,0,0,1,0,0V2A2,2,0,0,1,2,0Z" transform="translate(41.132 109.797)"/><path class="d" d="M2,0H15a2,2,0,0,1,2,2V115a0,0,0,0,1,0,0H0a0,0,0,0,1,0,0V2A2,2,0,0,1,2,0Z" transform="translate(62.132 98.797)"/><path class="e" d="M2,0H16a2,2,0,0,1,2,2V203a0,0,0,0,1,0,0H0a0,0,0,0,1,0,0V2A2,2,0,0,1,2,0Z" transform="translate(83.132 10.797)"/></g><g transform="translate(171.711 626.224)"><g class="z" transform="matrix(1, 0, 0, 1, -128.37, 231.63)"><g class="f" transform="translate(231.37 94.87)"><rect class="w" width="235.325" height="134.151" rx="5"/><rect class="q" x="0.5" y="0.5" width="234.325" height="133.151" rx="4.5"/></g></g><g transform="translate(287.634 355.8)"><g class="g"><path class="w" d="M 86.32465362548828 19.43879890441895 L 2.647994995117188 19.43879890441895 C 1.75468897819519 19.43879890441895 1.000006675720215 18.33677673339844 1.000006675720215 17.03232955932617 L 1.000006675720215 3.406470060348511 C 1.000006675720215 2.102022886276245 1.75468897819519 0.999999463558197 2.647994995117188 0.999999463558197 L 86.32465362548828 0.999999463558197 C 87.21795654296875 0.999999463558197 87.97265625 2.102022886276245 87.97265625 3.406470060348511 L 87.97265625 17.03232955932617 C 87.97265625 18.33677673339844 87.21795654296875 19.43879890441895 86.32465362548828 19.43879890441895 Z"/><path class="x" d="M 2.647987365722656 2 C 2.486686706542969 2 2.000007629394531 2.498813629150391 2.000007629394531 3.406465530395508 L 2.000007629394531 17.03233337402344 C 2.000007629394531 17.93998718261719 2.486686706542969 18.43879890441895 2.647987365722656 18.43879890441895 L 86.32466125488281 18.43879890441895 C 86.4859619140625 18.43879890441895 86.97264099121094 17.93998718261719 86.97264099121094 17.03233337402344 L 86.97264099121094 3.406465530395508 C 86.97264099121094 2.498813629150391 86.4859619140625 2 86.32466125488281 2 L 2.647987365722656 2 M 2.647987365722656 0 L 86.32466125488281 0 C 87.78709411621094 0 88.97264099121094 1.52513313293457 88.97264099121094 3.406465530395508 L 88.97264099121094 17.03233337402344 C 88.97264099121094 18.91366577148438 87.78709411621094 20.43879890441895 86.32466125488281 20.43879890441895 L 2.647987365722656 20.43879890441895 C 1.185554504394531 20.43879890441895 7.62939453125e-06 18.91366577148438 7.62939453125e-06 17.03233337402344 L 7.62939453125e-06 3.406465530395508 C 7.62939453125e-06 1.52513313293457 1.185554504394531 0 2.647987365722656 0 Z"/></g><text class="h" transform="translate(12.891 13.532)"><tspan x="0" y="0">100,000 EGP</tspan></text></g><g transform="translate(254.23 385.043)"><g class="g"><path class="w" d="M 118.7344741821289 19.43879890441895 L 3.642157316207886 19.43879890441895 C 2.185273885726929 19.43879890441895 1.000007271766663 18.35926628112793 1.000007271766663 17.03233337402344 L 1.000007271766663 3.406466007232666 C 1.000007271766663 2.079532861709595 2.185273885726929 0.999999463558197 3.642157316207886 0.999999463558197 L 118.7344741821289 0.999999463558197 C 120.1913757324219 0.999999463558197 121.3766555786133 2.079532861709595 121.3766555786133 3.406466007232666 L 121.3766555786133 17.03233337402344 C 121.3766555786133 18.35926628112793 120.1913757324219 19.43879890441895 118.7344741821289 19.43879890441895 Z"/><path class="x" d="M 3.642158508300781 2 C 2.736656188964844 2 1.999992370605469 2.630931854248047 1.999992370605469 3.406465530395508 L 1.999992370605469 17.03233337402344 C 1.999992370605469 17.80786514282227 2.736656188964844 18.43879890441895 3.642158508300781 18.43879890441895 L 118.7344741821289 18.43879890441895 C 119.6399765014648 18.43879890441895 120.3766403198242 17.80786514282227 120.3766403198242 17.03233337402344 L 120.3766403198242 3.406465530395508 C 120.3766403198242 2.630931854248047 119.6399765014648 2 118.7344741821289 2 L 3.642158508300781 2 M 3.642158508300781 0 L 118.7344741821289 0 C 120.7459869384766 0 122.3766403198242 1.52513313293457 122.3766403198242 3.406465530395508 L 122.3766403198242 17.03233337402344 C 122.3766403198242 18.91366577148438 120.7459869384766 20.43879890441895 118.7344741821289 20.43879890441895 L 3.642158508300781 20.43879890441895 C 1.630661010742188 20.43879890441895 -7.62939453125e-06 18.91366577148438 -7.62939453125e-06 17.03233337402344 L -7.62939453125e-06 3.406465530395508 C -7.62939453125e-06 1.52513313293457 1.630661010742188 0 3.642158508300781 0 Z"/></g><text class="h" transform="translate(10.187 13.675)"><tspan x="0" y="0">Premium EGP 6,500 </tspan><tspan x="0" y="15"></tspan></text></g><text class="i" transform="translate(115.945 366.262)"><tspan x="0" y="0">Platinum Coverage</tspan><tspan x="0" y="24"></tspan></text><text class="j" transform="translate(295.865 342.676)"><tspan x="0" y="0">Medical</tspan></text><g transform="translate(115.945 410.774)"><rect class="k" width="260.204" height="29.296" rx="5"/><text class="l" transform="translate(95.211 17.813)"><tspan x="0" y="0">Interested</tspan></text></g></g><g transform="translate(-727 895.943)"><g class="y" transform="matrix(1, 0, 0, 1, 770.34, -38.09)"><g class="m" transform="translate(108.66 209.15)"><rect class="w" width="245" height="205" rx="19"/><rect class="q" x="0.5" y="0.5" width="244" height="204" rx="18.5"/></g></g><g transform="translate(898.388 135.388)"><g transform="translate(0 54.288)"><g class="n" transform="translate(-0.388 19.381)"><rect class="w" width="207" height="29" rx="5"/><rect class="q" x="0.5" y="0.5" width="206" height="28" rx="4.5"/></g><text class="o" transform="translate(11.612 36.381)"><tspan x="0" y="0">1/02/2020</tspan></text><text class="p" transform="translate(-0.388 10.381)"><tspan x="0" y="0">Start Date</tspan></text><g transform="translate(185.445 30.831)"><path class="k" d="M5.024,5.925,2,2.9,2.9,2,5.024,4.123,7.148,2l.9.9Z" transform="translate(-2 -0.713)"/><rect class="q" width="6.434" height="6.434" transform="translate(0 0)"/></g></g><g transform="translate(0 109.452)"><g class="n" transform="translate(-0.388 19.218)"><rect class="w" width="207" height="28" rx="5"/><rect class="q" x="0.5" y="0.5" width="206" height="27" rx="4.5"/></g><text class="o" transform="translate(11.612 35.218)"><tspan x="0" y="0">Medical insurance</tspan></text><text class="p" transform="translate(-0.388 10.218)"><tspan x="0" y="0">Category</tspan></text><g transform="translate(185.445 30.509)"><path class="k" d="M5.024,5.925,2,2.9,2.9,2,5.024,4.123,7.148,2l.9.9Z" transform="translate(-2 -0.713)"/><rect class="q" width="6.434" height="6.434" transform="translate(0 0)"/></g></g></g><g transform="translate(897.512 322.272)"><rect class="k" width="207" height="27" rx="5" transform="translate(0.488 -0.214)"/><text class="r" transform="translate(66.488 15.786)"><tspan x="0" y="0">GET A QOUTE</tspan></text></g></g><g transform="translate(-214.536 540.854)"><circle class="t" cx="33.018" cy="33.018" r="33.018" transform="translate(600.501 535.146)"/><path class="v" d="M19.378,35.379H19.2A10.5,10.5,0,0,1,8.992,24.822V19.33A10.482,10.482,0,0,1,0,8.944v-7.5A1.443,1.443,0,0,1,1.443,0H4.664a1.443,1.443,0,1,1,0,2.885H2.885V8.944a7.6,7.6,0,0,0,15.147,0V2.885H16.253a1.443,1.443,0,0,1,0-2.885h3.222a1.443,1.443,0,0,1,1.443,1.443v7.5A10.482,10.482,0,0,1,11.925,19.33v5.662a7.5,7.5,0,0,0,15,0V19.41A5.434,5.434,0,0,1,28.322,8.735h-.048A5.434,5.434,0,0,1,29.765,19.41v5.582A10.386,10.386,0,0,1,19.379,35.379ZM9.172,12.765a1,1,0,0,1-1-1V9.882H6.259a1,1,0,0,1-1-1v-2.5a1,1,0,0,1,1-1H8.168V3.5a1,1,0,0,1,1-1h2.437a1,1,0,0,1,1,1V5.378h1.909a1,1,0,0,1,1,1v2.5a1,1,0,0,1-1,1H12.613v1.879a1,1,0,0,1-1,1Z" transform="translate(616.634 551.073)"/></g></g></g></svg>