<svg xmlns="http://www.w3.org/2000/svg" width="14.985" height="18.24" viewBox="0 0 14.985 18.24"><defs><style>.a{fill:#524f9c;}</style></defs><path class="a" d="M-57.041-98.644c-.021.775.035,1.729-.029,2.682a10.368,10.368,0,0,1-1.6,4.894,9.637,9.637,0,0,1-4.738,4.02c-1.279.493-.961.494-2.251,0A9.625,9.625,0,0,1-70.4-91.077a10.488,10.488,0,0,1-1.626-5.731c.008-1.55,0-3.1,0-4.651a.22.22,0,0,1,.159-.24q3.581-1.581,7.156-3.175a.386.386,0,0,1,.347,0q3.585,1.6,7.174,3.183a.209.209,0,0,1,.149.228C-57.044-100.586-57.041-99.7-57.041-98.644ZM-66.2-91.671c.038-.034.071-.062.1-.093l3.67-3.661,2.784-2.774c.084-.084.09-.127,0-.212-.318-.306-.633-.616-.936-.936-.112-.118-.167-.114-.281,0q-2.606,2.613-5.219,5.219c-.094.094-.139.1-.237,0-.638-.647-1.286-1.285-1.925-1.93-.082-.082-.125-.094-.212,0-.32.331-.648.655-.978.977-.074.072-.088.112-.006.194q1.57,1.556,3.132,3.119C-66.27-91.738-66.236-91.708-66.2-91.671Z" transform="translate(72.023 104.918)"/></svg>