<svg xmlns="http://www.w3.org/2000/svg" width="12.178" height="12.064" viewBox="0 0 12.178 12.064"><defs><style>.a{fill:#fff;}.b{fill:none;}</style></defs><g transform="translate(0.097 0)"><g transform="translate(0 0)"><path class="a" d="M80.021,205.8l.528.007a1.78,1.78,0,0,1,.5.211l.206.185a1.754,1.754,0,0,1,.277.473,6.22,6.22,0,0,1,.032.921,1.582,1.582,0,0,1-.13.719,1.407,1.407,0,0,1-.356.438.136.136,0,0,0-.076.059.258.258,0,0,0-.108.075c-.23.149-.45.312-.665.481a.964.964,0,0,0-.2.143,6.5,6.5,0,0,0-.532.388h0c-.361.242-.712.5-1.059.762a2.829,2.829,0,0,0-.37.266.825.825,0,0,0-.187.136,2.881,2.881,0,0,1-.344.236.637.637,0,0,0-.382.7s0,.009,0,.013l-.036.53a4.149,4.149,0,0,0-.038.528l-.041.53a4.1,4.1,0,0,0-.034.527,4.46,4.46,0,0,0-.044.53l-.007.158a.336.336,0,0,0-.016.159l-.01.211a4.9,4.9,0,0,0-.044.529l-.013.238a.315.315,0,0,0-.015.158l-.007.132a.149.149,0,0,0-.025.105,1.55,1.55,0,0,1-.241.413l-.262.216a1.44,1.44,0,0,1-.527.167c-.176,0-.352,0-.528-.007a1.267,1.267,0,0,1-.57-.186l-.217-.183a1.5,1.5,0,0,1-.246-.42.151.151,0,0,0-.025-.106l-.034-.528a.519.519,0,0,0-.019-.186,1.25,1.25,0,0,0-.024-.343,2.874,2.874,0,0,0-.031-.476c-.008-.149-.013-.3-.026-.446-.006-.07.018-.091.084-.094.105,0,.21-.016.315-.024l.056-.007.209-.015.076.005.041.528a4.962,4.962,0,0,0,.042.528,4.776,4.776,0,0,0,.033.529,2.668,2.668,0,0,0,.053.528c.052.134.165.147.286.146h.527c.121,0,.233-.013.284-.146a2.588,2.588,0,0,0,.054-.528,4.058,4.058,0,0,0,.033-.529,4.241,4.241,0,0,0,.044-.528,4.582,4.582,0,0,0,.034-.53,4.846,4.846,0,0,0,.043-.528l.052-.742.01-.185c.044-.307.053-.616.071-.924l.015-.263a.654.654,0,0,0,.018-.142.3.3,0,0,1,.225-.346c.015-.005.026-.023.039-.035l.139-.1c.366-.253.728-.51,1.08-.782a1.329,1.329,0,0,0,.25-.179,1.42,1.42,0,0,0,.255-.186,4.356,4.356,0,0,0,.48-.345l.046-.031c.369-.254.735-.515,1.091-.788a1.607,1.607,0,0,0,.259-.187l.053-.034c.1-.067.191-.133.285-.2a.321.321,0,0,0,.153-.242l.008-.1q0-.159,0-.318,0-.066,0-.132,0-.04,0-.08a1.076,1.076,0,0,0-.049-.529c-.082-.177-.245-.18-.4-.18H72.925c-.753,0-1.505,0-2.258,0-.15,0-.3.013-.377.18a1.06,1.06,0,0,0-.049.529q0,.265,0,.529a.436.436,0,0,0,.263.417.479.479,0,0,0,.148.114,3.1,3.1,0,0,0,.378.293c.271.214.544.426.813.643.035.028.109.039.078.115-.12.151-.239.3-.361.453-.028.035-.042.092-.106.081a4.1,4.1,0,0,0-.42-.325.916.916,0,0,0-.29-.206,1.01,1.01,0,0,0-.269-.231c-.044-.036-.086-.074-.132-.107a2.148,2.148,0,0,1-.738-.748,3.982,3.982,0,0,1-.09-1.556,1.468,1.468,0,0,1,.284-.525l.207-.186a1.579,1.579,0,0,1,.5-.21l.527-.008h8.99Z" transform="translate(-69.483 -205.801)"/><path class="a" d="M99.214,377.4h1.19l.3.009a.463.463,0,0,1,.282.257c.018.3-.071.428-.348.492a.33.33,0,0,0-.161,0,1.035,1.035,0,0,0-.263,0,3.13,3.13,0,0,0-.53,0,.257.257,0,0,0-.13,0,.222.222,0,0,0-.135,0,1.021,1.021,0,0,0-.262,0c-.187-.021-.187-.021-.187.161,0,.135,0,.271,0,.406v1.031a.4.4,0,0,1-.348.426c-.271-.024-.381-.139-.407-.427q0-.092,0-.184v-.662q0-.106,0-.212t0-.21v-.055c0-.056,0-.113.006-.169.014-.107-.036-.13-.128-.106a.239.239,0,0,0-.133,0h-.134a.934.934,0,0,0-.261,0,.266.266,0,0,0-.133,0,.219.219,0,0,0-.135,0,1,1,0,0,0-.262,0,.236.236,0,0,0-.133,0h-.134l-.256,0-.084-.016a.386.386,0,0,1-.216-.5.462.462,0,0,1,.293-.236l.026,0H98.1c.1.027.143-.014.129-.118-.007-.056,0-.113-.007-.169q0-.172,0-.344v-.186q0-.079,0-.157t0-.133q0-.118,0-.237c.023-.175-.035-.362.072-.525a.448.448,0,0,1,.307-.15l.183.046.112.1a.8.8,0,0,1,.074.466c0,.065,0,.13.005.195s0,.106,0,.159q0,.146,0,.291,0,.2,0,.4v.185c-.006.221-.04.191.181.183Z" transform="translate(-95.498 -370.897)"/></g><rect class="b" width="12" height="12" transform="translate(-0.097 0.064)"/></g></svg>