<svg xmlns="http://www.w3.org/2000/svg" width="339.814" height="339.597" viewBox="0 0 339.814 339.597"><defs><style>.a{fill:#c9dbfa;}.b{fill:#524f9c;}.c{fill:#98b8fb;}.d{fill:#1073c3;}.e{fill:#5579f1;}.f{fill:#c8d8f4;}.g{fill:#5879ed;}.h{fill:#19264a;}.i{fill:#272f40;}.j{fill:#050507;}.k{fill:#f3f5f5;}.l{fill:#fafbfb;}.m{fill:#98b7f6;}.n{fill:#202020;}.o{fill:#fff;}.p{fill:#99b9fa;}.q{fill:#dfe7f3;}.r{fill:#4b497e;}</style></defs><g transform="translate(-96.736 -321.924)"><path class="a" d="M143.581,639.612c-3.884.192-6.618-2.5-9.628-4.179-8.879-4.951-17.129-11.252-23.385-19.012-11.216-13.915-16.687-29.933-12.342-48.23,2.884-12.143,7.245-23.837,10.54-35.821,4.623-16.816,9.614-33.582,11.739-51.032.8-6.6,1.7-13.2,2.5-19.811,22.242-6.026,44.014-13.309,64.516-24,1.689-.88,3.673-1.3,4.487-3.33,6.96-1.564,13.617-5.349,21.128-2.88,1.723-.445,3.077,1.521,4.851.738,4.017,2.581,3.516,8.4-.936,10.862-4.975,2.755-10.253.311-11.8-5.529-.324-1.226-.559-2.426-2.158-2.2a2.051,2.051,0,0,0-1.928,2.5,11.711,11.711,0,0,0,.728,3.421c2.322,4.934,7.985,7.264,14.044,5.905,5.47-1.226,8.4-5.038,8.387-10.881,0-1.629.022-3.257.034-4.886a6.208,6.208,0,0,0,3.314-2.149c3.455-3.552,4.983-10.408,3.269-14.08-1.947-4.168-5.478-4-9.18-3.438-.872-8.715-1.631-17.443-2.677-26.137-.391-3.249.845-4.452,3.849-4.319a49.4,49.4,0,0,1,15.32,2.634,6.063,6.063,0,0,0,5.816-.692c10.862-6.509,22.284-7.84,34.245-3.371,1.739.65,3.118.841,4.9-.458,3.639-2.654,7.915-3.844,12.391-4.7,7.232-1.378,14.119-.148,21.4,2.1a40.688,40.688,0,0,0-5.361-9.146c-12.112-16.427-28.547-26.7-47.657-32.979-11.753-3.862-23.792-6.385-36.295-5.773l-3.237-.141-2.055-.583c4.284-2.932,9.442-2.726,14.154-3.144,17.639-1.568,35.237-1.691,52.9,1.165,21.258,3.436,40.94,10.936,60.026,20.43,1.483.738,3.64.915,3.825,3.263-4.332,3.426-9.36,5.7-14.272,8.041-4.826,2.305-8.143,5.066-7.032,10.94-.212,1.506-.206,2.928,1.409,3.746.485-.06,1.034-.255,1.129.523l-.072-.064c-.92,4.865.312,9.4,2.149,13.836l1.128,1,.03-.107c-.331.541-2.232.082-1.084,1.505.645.8,1.976,1.723,1.163,2.51-2.651,2.564-.14,3.762,1.1,5.347-2.08,1.916-.157,3.931.1,5.74.975,6.773,2.924,13.255,7.912,18.361a89.1,89.1,0,0,0,20.639,23.961c4.279,8.324,10.374,11.485,17.854,9.259l1.772-.277c3.056.968,5.071-.848,7.111-2.631a189.726,189.726,0,0,0,28.528-31.075c5.505,11.039,8.9,22.695,11.2,34.816a144.447,144.447,0,0,1,2.445,29.59,170.553,170.553,0,0,1-4.436,36.5,2.984,2.984,0,0,1-1.6,2.036c-1.747-1.047-3.243-2.328-5.7-1.364-3.021,1.188-4.789-.16-3.943-3.473.47-1.839-.057-2.908-1.48-3.69a2.933,2.933,0,0,0-4,.794c-2.773,3.568-4.7,3.116-6.022-1.107-.549-1.749-1.963-1.994-3.586-1.89-1.42.09-2.238.651-2.229,2.153.027,4.806-2.506,4.769-5.8,2.96a3.389,3.389,0,0,0-4.121.371c-1.347,1.077-.728,2.367-.334,3.657.991,3.251-.493,4.532-3.608,4.175-1.44-.166-2.839-1.033-3.663,1.058-.779,1.977-.188,3.325,1.277,4.726,2.67,2.552,2.372,4.472-1.117,5.723-1.732.622-2.522,1.245-2.331,3.05.2,1.86,1.335,2.443,3.035,2.561,3.55.247,3.78,2.239,2.459,4.936-.57,1.163-2.331,1.914-.569,3.692,1.363,1.377,2.437,2.536,4.528,1.774,3.741-1.363,4.131.921,3.82,3.686-.144,1.282-1.1,2.694.709,3.427a3.975,3.975,0,0,0,4.549-.73c2.658-2.5,4.939-2.517,6.577,1.139.74,1.654,2.18,1.874,3.759,1.646,1.649-.239,1.5-1.558,1.6-2.736.186-2.178.764-3.871,3.525-2.65-1.164,4.96-4,9.1-6.519,13.407-2.219,3.786-5.185,7.2-5.981,11.717-.447.01-.895.018-1.342.031-2.8.085-5.113-.311-6.717-3.239-1.676-3.057.631-4.081,1.883-5.984.945-1.438,2.893-2.927,1.951-5.065-1.949-4.431-4.065-5.227-8.778-3.318-1.953.792-3.629,1.914-5.671,0-2.02-1.895-2.592-4.044-1.516-6.4,1.872-4.087-.771-5.147-3.693-6.631-3.248-1.651-4.671.4-6.292,2.346-1.08,1.3-1.639,2.626-3.888,3.046-4.971.928-5.1-3-5.835-5.512-1.191-4.091-4.1-3.067-6.771-3.213-3.092-.168-3.128,2.339-3.454,4.239-1.354,7.919-3.722,8.987-10.305,4.223-2.254-1.631-3.807-1.12-5.962.3-2.29,1.51-3.063,2.874-1.7,5.312,2.374,4.239,1.267,8.151-1.243,11.9q-.769-10.764-1.54-21.529l-.043-5.365q-.237-8.988-.471-17.977c.2-1.581.049-3.161,1.262-4.58a7.263,7.263,0,0,0,1.259-7.142c-1.621-5.477-1.894-11.1-2.073-16.781-.123-3.911-1.567-8.141,4.958-7.469.3.03.664-.546,1-.84,1.969-2.37,5.4-3.137,6.674-6.324,6.79-16.915,5.088-36.384-15.027-47.136-4.294-2.3-8.8-4.109-12.242-7.7-2.96-2.057-7.365-3.226-5.2-8.434,2.324-2.2,3.085-5.147,4-8.056a13.957,13.957,0,0,1,4.006-6.316c2.2-1.973,4.026-4.035,2.526-7.3-1.424-3.1-3.879-4.293-7.184-4.12-.889.047-2.25.809-2.335-.99-.192-4.06-2.787-2.843-5.1-2.4-2.884.554-5.837,1.622-8.661-.013-3.88-2.248-5.833.1-7.388,3.042-2.313,4.37-1.752,6.938,1.635,8.841-.055,1.061-.207,2.143.639,3.014l.21.184-.177.216q-.379,1.546-.76,3.092c1.39,2.3.378,4.378-.368,6.617-.612,1.84-2.881,3.827-.244,5.87.271.764,2.749,1.13.4,2.367-2.092,1.1-4.1,2.393-6.243,3.372-5.482,2.5-10.6,5.37-13.775,10.822-.618,1.062-1.269,2.468-2.99,2.236a13.489,13.489,0,0,1-2.775-5.983,21.032,21.032,0,0,0-3.95-9.379c-1.914-2.527-2.169-4.04.531-6.353,2.606-2.232,2.266-5.624.935-8.706-.934-2.161-2.389-4.145-4.867-3.976-3.017.2-4.275,2.9-5.59,5.25a1.677,1.677,0,0,0-.218.388c-.757,3.29-2.529,4.307-6.159,4.5-11.79.634-18.124,14.018-11.1,23.336,3.211,4.262,4.182,8.376,2.283,13.253a8.671,8.671,0,0,1-6.334,3.837c-3.875.4-5.875,2.772-6.806,6.312l.06-.062c-2.167.3-1.561,2.329-2.236,3.559-.783,1.425,1.825,2.155.765,3.568-4.562,6.085-2.658,13.627-4.629,20.292-1.122,5.463-2.451,10.892-2.785,16.488-1.232,2.329-1.719,1.549-2.389-.412-1.625-4.762-2.594-9.808-5.808-13.923-5.831-7.464-16.3-7.536-21.058.54-4.4,7.468-9.758,14.724-10.282,23.923-.067,1.187-.908,1.379-1.746,1.664-.967.355-1.959.657-2.9,1.074-5.5,2.438-12.874-2.625-12.352-8.5.237-2.666.491-5.331.738-8a21.94,21.94,0,0,0-1.8-14.26c-.128-1.115-.509-2.095-1.8-2.152-2.25-.1-1.261,2.231-2.25,3.2-1.764-1.241-1.62-3.471-2.763-4.973-.785-1.034-1.438-2.446-3.083-1.814-1.422.546-1.091,1.849-1.033,3.06a12.165,12.165,0,0,0,4.429,9.356c2.421,1.96,2.971,3.945,1.463,6.865a94.487,94.487,0,0,0-4.418,10.656c-1.136,3.073-2.142,6.242-.024,9.366,4.97,7.365,12.981,9.95,20.715,12.746,2.881,1.042,5.184,2.171,6.432,5l.476,2.675c-1.881,4.744-.422,9.548-.227,14.324.2,4.986-1.23,10.586,4.793,13.54.075.037.051.277.074.422-.139,1.014-.315,2.025-.41,3.042-1.065,11.465,2.17,22.52,3.246,33.781-2.767-.425-2.936-2.516-3.047-4.681-.165-3.257.364-6.551-.518-9.77-2.15-7.852-3.567-15.892-6.466-23.562-.822-2.173-1.123-3.187-3.854-2.622-3.961.818-5.258-.924-3.177-4.377,1.721-2.856,1.553-5.11.177-7.884A114.665,114.665,0,0,0,155.385,535.1c-1.214-1.432-2.051-3.893-4.217-3.278-2.08.592-1.123,3.083-1.431,4.759-.746.195-1.44.5-1.6,1.337-1.305,6.75-3.476,13.586.084,20.207,1.112,2.069-.239,3.481-1.082,3.5-3.792.073-2.354,2.091-1.866,3.949a1.6,1.6,0,0,1-.8,2.046c-5.67-5.484-10.48-11.948-16.982-16.66l-.872-.861a3.113,3.113,0,0,0-2.68-1.9,22.839,22.839,0,0,0-7.053-6.506c-2.059-1.309-3.235-1.384-3.914,1.635a140.736,140.736,0,0,0-2.916,20.647c-.5,6.776-2.613,13.821,6,17.37.513.212.856.817,1.3,1.217,1.349,1.227,1.131,2.659-.269,3.3-5.04,2.3-4.753,6.155-4.035,10.726,1.838,11.71,6.387,21.739,15.787,29.432C133.994,630.244,138.678,635.06,143.581,639.612ZM418.025,506.96c6.87-18.436,5.027-57.194-1.589-68.822A156.855,156.855,0,0,1,418.025,506.96Zm7.984-62.328c3.639,19.166,3.616,38.353.958,57.6C431.97,489.293,431.057,453.668,426.009,444.631Z" transform="translate(0 -0.191)"/><path class="b" d="M230.009,328.545c12.5-.612,24.541,1.91,36.295,5.773,19.109,6.28,35.545,16.552,47.657,32.979a40.688,40.688,0,0,1,5.361,9.146c-7.286-2.247-14.172-3.477-21.4-2.1-4.476.852-8.752,2.043-12.391,4.7-1.779,1.3-3.159,1.108-4.9.458-11.961-4.468-23.383-3.138-34.245,3.371a6.063,6.063,0,0,1-5.816.692,49.4,49.4,0,0,0-15.32-2.634c-3-.134-4.24,1.069-3.849,4.319,1.046,8.694,1.805,17.422,2.675,26.137-2.072.81-4.468,2.456-4.571-1.776l-.233-6.594c.469-6.443-1.385-12.692-1.6-19.076-.069-2.052-1.062-1.895-2.65-1.559A56.435,56.435,0,0,0,200,387.986c-3.3,1.775-5.955,1.341-9.2.034-11.3-4.545-22.492-4.742-32.711,2.746a8.232,8.232,0,0,1-8.489,1.353c-8.065-2.652-16.239-3.612-24.276.332l-6.293,3.56.037.043c.59-7.9,4.855-14.305,9.064-20.493,14.81-21.77,35.958-34.662,60.8-42.131a128.024,128.024,0,0,1,20.095-4.19c2.418-.32,3.589-1.033,2.873-3.618-.413-1.488-.654-3.248,1.319-3.638,2.11-.417,2.447,1.432,2.376,2.919-.135,2.851,1.115,3.675,3.776,3.263,1.76-.272,3.568-.24,5.354-.345l2.055.582c.607,2.834,3.267,2.213,5,2.616,7.507,1.74,14.185,5.139,20.6,9.253,1.6,1.029,2.756,3.181,5.929,2.515C249.791,335.339,240.219,331.326,230.009,328.545ZM155.3,388.877c3.465-15.555,10.963-29.1,20.6-41.62C164.228,358.8,157.17,372.611,155.3,388.877Zm39.026-5.168c1.674-10.841,1.938-21.825,3.89-32.64C194.208,361.677,193.851,372.652,194.321,383.709Zm66.154-38.116A175.142,175.142,0,0,1,278.6,369.337,55.777,55.777,0,0,0,260.475,345.593ZM241.9,380.535c1.275-6.3-5.785-28.177-10.426-32.148C236.178,359.1,238.94,369.234,241.9,380.535Zm-15.514-43.893-.95.718q2.832,4.967,5.664,9.933C231.239,342.836,228.695,339.8,226.383,336.642Zm-38.465,1.767-.811-1.066c-3.4,1.768-6.128,4.329-8.922,6.816l.833,1.017Zm11.36,9.654,5.34-12.517A15.855,15.855,0,0,0,199.277,348.063Z" transform="translate(-2.31)"/><path class="c" d="M128.083,574.141l.872.861c-.061,2.986,1.974,6.472-2.052,8.523-.15.076-.226.7-.16.736,3.162,1.67.481,6.311,3.978,7.785l.015.015.886.89c0,.3,0,.591.007.886a3.394,3.394,0,0,0,.681,2.495c2.469,2.636,11,4.187,14.06,2.2.555-.361,3.135-.209,1.825-2.474-1.021-1.765.32-3.071,1.67-3.5,2.737-.862-.523,2.822,2.031,2.59a16.226,16.226,0,0,0,2.2-5.527,72.407,72.407,0,0,0,.626-16.675c-.33-4.164-.547-8.739-3.512-12.322.308-1.676-.649-4.167,1.431-4.759,2.167-.615,3,1.846,4.217,3.278a114.67,114.67,0,0,1,15.618,23.074c1.377,2.774,1.544,5.029-.177,7.884-2.081,3.453-.784,5.194,3.177,4.377,2.731-.565,3.032.449,3.854,2.622,2.9,7.669,4.316,15.71,6.466,23.562.882,3.22.353,6.513.518,9.77.11,2.165.28,4.256,3.045,4.68.519,5.449,1.158,10.893.567,16.38.97,4.7-2.8,7.987-3.62,12.152l-.2.364.186-.381c3.312.323,2.029-4.7,5.247-4.492l.471,1.709c-.907.575-.518.784.251.886,2,7.127,2,7.138-4.559,10.383-2.122,1.049-4.209,2.12-5.614,4.13-4.886,1.759-9.646.575-14.3-.852-8.267-2.537-15.244-7.646-22.733-11.735-4.9-4.552-9.587-9.368-14.754-13.6-9.4-7.693-13.949-17.722-15.787-29.432-.717-4.571-1-8.43,4.035-10.726,1.4-.638,1.618-2.071.269-3.3-.44-.4-.783-1.006-1.3-1.217-8.612-3.549-6.5-10.593-6-17.37a140.736,140.736,0,0,1,2.916-20.647c.679-3.019,1.855-2.944,3.914-1.635a22.823,22.823,0,0,1,7.053,6.508C125.365,574.187,126.719,574.17,128.083,574.141Zm.85,23.279c.619-.169,1.638-.11,1.3-1.1-.324-.957-1.4-.6-2.178-.687l-5.7-15.693c-.381,6.1,14.465,45.581,19.435,52.9,1.195-1.977-.1-3.445-.77-4.973C136.637,617.859,132.428,607.781,128.932,597.42Zm28.293,67.895,1.268-.636L148.84,645.29l-1.326.665C150.784,652.392,153.1,659.3,157.225,665.315Zm-36.036-86.956c-.04.11-.137.237-.112.33.1.389.293.408.464.046a.412.412,0,0,0-.074-.339C121.431,578.344,121.285,578.369,121.189,578.359Z" transform="translate(-1.471 -24.236)"/><path class="d" d="M363.365,600.3c2.511-3.749,3.618-7.662,1.243-11.9-1.366-2.438-.593-3.8,1.7-5.312,2.155-1.42,3.707-1.932,5.962-.3,6.584,4.764,8.951,3.7,10.305-4.223.325-1.9.361-4.407,3.454-4.239,2.676.145,5.58-.878,6.771,3.213.731,2.514.864,6.439,5.835,5.512,2.25-.42,2.808-1.748,3.888-3.046,1.622-1.95,3.045-4,6.292-2.346,2.922,1.484,5.565,2.544,3.693,6.631-1.077,2.352-.5,4.5,1.516,6.4,2.042,1.916,3.718.794,5.671,0,4.713-1.909,6.829-1.113,8.778,3.318.941,2.139-1.007,3.628-1.951,5.065-1.252,1.9-3.559,2.927-1.883,5.984,1.6,2.928,3.92,3.325,6.717,3.239.447-.013.895-.021,1.342-.031,3.028,1.445,2.482,4.3,2.593,6.814.108,2.435-1.963,2.7-3.651,3.158-2.59.7-4.454,1.8-5.088,4.8-.7,3.3,1.86,4.057,3.576,5.472,1.8,1.481,4.156,2.3,2.239,5.555-1.621,2.755-2.348,5.663-6.716,3.931-1.6-.636-3.922-2-5.884.868-1.78,2.6-1.682,4.655-.163,6.914,2.844,4.228-.962,5.526-3.143,7.662-2.6,2.545-3.644-.341-5.036-1.412-5.65-4.344-8.761-3.4-9.576,3.8-.523,4.621-3.288,4.19-6.343,4.752-3.594.662-3.435-2.085-4.14-3.956-1.972-5.229-2.288-5.246-7.194-2.418-2.2,1.267-3.445,3.8-6.139,4.273-6.663-2.887-6.663-2.887-5.954-9.633a4.835,4.835,0,0,0-6.161-5.02c-1.693.44-3.279,1.466-5.15,1.035C362.781,630.073,364.629,615.276,363.365,600.3ZM413,617.578c1.41-11.7-10.229-21.548-21.615-21.523-10.812.023-20.556,10.278-20.578,21.431-.022,11.542,9.655,20.909,21.275,21.341C401.615,639.18,414.792,629.307,413,617.578Z" transform="translate(-27.364 -26.157)"/><path class="a" d="M125.934,399.417c8.037-3.944,16.211-2.984,24.276-.332a8.232,8.232,0,0,0,8.489-1.353c10.218-7.488,21.413-7.292,32.711-2.746,3.248,1.307,5.9,1.741,9.2-.034a56.435,56.435,0,0,1,15.022-5.608c1.587-.336,2.581-.493,2.65,1.559.214,6.384,2.068,12.633,1.6,19.076-5.748,1.288-9.915,5.153-14.209,8.771a20.506,20.506,0,0,1-16.571,5.071c-21.289,3.377-42.544,7.775-64.146,2.244.318-8.1-1.016-16.35,2.355-24.152C127.912,400.525,127.555,399.609,125.934,399.417Z" transform="translate(-2.924 -6.967)"/><path class="e" d="M124.875,430.066c21.6,5.531,42.857,1.133,64.122-2.237a3.765,3.765,0,0,1,4.112,1.8c-.389,4.768.7,9.328,1.951,13.866l-.205,1.478c-.814,2.029-2.8,2.449-4.487,3.329-20.5,10.693-42.274,17.976-64.516,24a5.058,5.058,0,0,1-.814-3.373c-.006-11.99.285-23.987-.814-35.953C124.13,431.959,123.988,430.885,124.875,430.066Z" transform="translate(-2.842 -10.966)"/><path class="f" d="M290.995,683.553c-13.918,2.632-28.069,3.195-42.123,3.359-13.905.162-27.934-.393-41.63-3.6A20.309,20.309,0,0,1,204,681.938l2.692-.291c.885.052,1.769.149,2.654.149,5.921,0,6.365-.5,5.522-6.377-.166-1.156-.206-2.62-.914-3.361-3.835-4.012-1.779-8.32-.93-12.591,5.409-3.492,8.387-8.923,11.436-14.3,3.592,5.211,6.283,11.113,11.465,15.107,1.09.84.523,1.654.48,2.669-.212,5.022-.359,10.063-.155,15.081.16,3.974,2.233,4.911,5.632,2.885,2.947-1.755,4.62-4.511,5.816-7.616.824-.625.656-2.162,2.072-2.244.717,1.444-.425,2.514-.778,3.733-.8,2.747.2,4.637,3.006,4.737,7.608.272,14.851,3.763,22.623,2.456,1.545-.26,3.379.432,4.326-1.5,1.368-1.545.685-3.334.679-5.078-.02-6-4.026-11.474-2.276-17.686.612-3.508,1.1-7.044,1.857-10.52,2.814-12.924,5.591-25.85,6.667-39.068a6.554,6.554,0,0,0,.531-4.147q.125-1.334.249-2.667a30.938,30.938,0,0,0,.67-10.76q.028-.9.057-1.793c1.03-2.93.912-5.947.684-8.973l.409-11.3a2.149,2.149,0,0,0,2.091-1.284c3.106-.426,1.233,2.025,1.236,2.7.047,8.1-.157,16.2-.295,24.307-.3,5.923-.952,11.853-.85,17.77.279,16.16-1.079,32.631,7.624,47.459-2.629,5.778-5.617,11.413-7.018,17.676C290.785,679.245,289.706,681.352,290.995,683.553Z" transform="translate(-11.117 -25.415)"/><path class="f" d="M342.182,673.666c-6.9.625-13.083,3.908-19.757,5.379-1.241-3.8-1.274-7.79-1.861-11.693.46-3.442-.93-6.571-1.661-9.812,1.488-3.519,1.121-7.234,1.129-10.9.027-15.357-1-30.83,5.149-45.5a5.006,5.006,0,0,0,.055-1.741q.329-.913.658-1.827.226-1.812.453-3.625l.236-.285-.16-.333q1.025-5.237,2.05-10.473l.389-3.137a6.813,6.813,0,0,0,.945-4.514l.3-.243-.083-.376-.135-.217.124.216.515-1.139q1.124-3.662,2.247-7.327c2.948,26.471,5.3,52.839,7.634,79.21.35,3.953.261,8,2.882,11.378A58.335,58.335,0,0,0,342.182,673.666Z" transform="translate(-23.026 -25.308)"/><path class="d" d="M451.024,579c-2.762-1.222-3.34.471-3.525,2.65-.1,1.178.047,2.5-1.6,2.736-1.579.229-3.019.008-3.759-1.646-1.638-3.656-3.919-3.644-6.577-1.139a3.975,3.975,0,0,1-4.549.73c-1.8-.732-.853-2.145-.709-3.427.311-2.765-.08-5.049-3.82-3.686-2.091.762-3.165-.4-4.528-1.774-1.761-1.778,0-2.529.569-3.692,1.321-2.7,1.091-4.689-2.459-4.936-1.7-.118-2.837-.7-3.035-2.561-.192-1.805.6-2.428,2.331-3.05,3.489-1.251,3.787-3.171,1.117-5.723-1.466-1.4-2.056-2.749-1.277-4.727.824-2.09,2.222-1.224,3.663-1.058,3.115.357,4.6-.924,3.608-4.175-.393-1.29-1.013-2.58.334-3.657a3.389,3.389,0,0,1,4.121-.371c3.3,1.809,5.828,1.846,5.8-2.96-.009-1.5.809-2.063,2.229-2.153,1.623-.1,3.038.142,3.586,1.89,1.325,4.223,3.248,4.674,6.022,1.107a2.933,2.933,0,0,1,4-.794c1.423.783,1.95,1.851,1.48,3.69-.846,3.313.922,4.66,3.943,3.473,2.452-.964,3.948.317,5.7,1.364a8.743,8.743,0,0,1-.949,4.3c-1.191,2.452-1.829,4.709,2.265,4.641,1.463-.024,2.161.774,2.2,2.205.038,1.341.2,2.664-1.411,3.387-4.073,1.826-4.5,4-.592,6.623,1.594,1.068.383,2.425.082,3.614-.41,1.616-1.431,1.887-3.068,1.524-3.006-.666-5.178.065-4.187,3.821.477,1.806.873,3.241-.974,4.7-2.035,1.607-3.24.246-4.73-.642A4.269,4.269,0,0,0,451.024,579Zm3.6-19.375a12.8,12.8,0,0,0-12.82-12.7c-6.4-.12-12.219,5.98-12.257,12.848-.036,6.414,6.05,12.153,12.906,12.172C448.78,571.958,454.559,566.109,454.628,559.624Z" transform="translate(-33.192 -22.017)"/><path class="g" d="M456.37,420.955a189.726,189.726,0,0,1-28.528,31.075c-2.04,1.783-4.055,3.6-7.111,2.632,5.674-5.586,11.46-11.066,16.966-16.813,2.058-2.148,4.824-3.9,5.472-7.178l-.256-.168c.256.089.673.326.747.246,5.931-6.377,11.23-13.233,12.943-21.98,2.744-14.008,5.072-28.1,7.669-42.134,1.2-6.506.808-7.527-5.155-10.327-8.352-3.923-16.66-7.979-24.154-13.38-5.346-3.853-11.35-7.029-15.077-12.815,2.08-1.011,3.724-.185,5.248,1.221,11.84,10.924,25.518,19,40.145,25.528,3.95,1.763,5.191,4.11,4.331,8.407q-4.156,20.78-7.715,41.676C461.017,412.066,458.815,416.523,456.37,420.955Z" transform="translate(-33.491 -0.802)"/><path class="h" d="M211.6,663.2c-.85,4.271-2.905,8.579.93,12.591.708.741.748,2.205.914,3.361.843,5.881.4,6.378-5.522,6.377-.885,0-1.769-.1-2.654-.149-4.159-1.49-8.453-.453-12.68-.674-2.084-.336-2.48-1.751-2.278-3.55,1.4-2.009,3.491-3.08,5.613-4.129,6.562-3.245,6.557-3.256,4.558-10.383l-.25-.886-.471-1.709a18.266,18.266,0,0,0-1.611-7.643c.591-5.487-.048-10.931-.567-16.38-1.074-11.26-4.309-22.315-3.244-33.78.1-1.017.271-2.028.409-3.041l1.537.46a73.833,73.833,0,0,0-.118,13.82c1.32,12.4,4.109,24.626,4.22,37.194.039,4.393,1.534,8.758,2.12,13.169.34,2.56,1.98,2.507,3.836,2.617,2.027.119,2.423-1.025,2.675-2.7a71.591,71.591,0,0,0,.215-21.777,45.106,45.106,0,0,1,.048-16c1.275-6.223,2.988-12.342-1.6-18.634,3.655,1.4,4.255,4.018,4.638,6.449,2.427,15.443,10.525,28.208,19.116,40.74.987,1.44,1.793,3.989,4.341,2.685,2.083-1.067,2.321-3.117,2.058-5.418-.714-6.244-3.663-11.481-6.93-16.642-1.411-2.229-3.509-4.264-3.329-7.159.428-6.877-1.06-13.654-.912-20.509.25-1.25-.287-2.673.83-3.732q.609,4.444,1.219,8.89l.809,13.409c-.793,2.88.408,5.161,2.127,7.336a41.162,41.162,0,0,1,8.594,23.144,3.622,3.622,0,0,0-3.633,3.075c-.17.933.967,1.319,1.927,1.345,2.63.073,2.369-1.9,2.545-3.572,3.495-.137,5.792,1.584,7.228,4.643-2.756-1.4-5.508-4.051-8.2.192-.268.423-1.384.357-2.115.428-1.064.1-1.754.656-1.559,1.693.8,4.274-.523,8.5-.16,12.767.316,3.727,2.076,3.223,4.368,1.647,2.314-1.592,2.924-4.406,4.694-6.382l.941.651c-1.2,3.1-2.869,5.861-5.816,7.616-3.4,2.026-5.471,1.089-5.632-2.885-.2-5.019-.056-10.059.155-15.081.043-1.016.61-1.829-.48-2.669-5.183-3.994-7.874-9.9-11.464-15.107-3.818-7.56-9.091-14.409-10.8-23.005-1.382,4.843-2.794,9.605-1.993,14.26A124.269,124.269,0,0,1,211.6,663.2Zm-11.66,14.266c-2.479.163-4.488,1.461-6.491,2.737-.745.476-1.578,1.082-1.383,2.1.253,1.335,1.421,1.308,2.469,1.328,4.18.082,8.359.19,12.538.222,5.871.046,6.194-.437,4.549-6.086-.527-1.81-.8-3.729-3.438-2.079a2.813,2.813,0,0,1-3.008-.125c-2.709-1.753-4.057-.122-5.293,1.948Z" transform="translate(-9.693 -29.152)"/><path class="h" d="M419.589,330.125c3.727,5.786,9.731,8.963,15.077,12.815,7.494,5.4,15.8,9.457,24.154,13.38,5.963,2.8,6.359,3.821,5.155,10.327-2.6,14.038-4.926,28.126-7.669,42.134-1.713,8.747-7.012,15.6-12.943,21.98-.073.08-.49-.158-.747-.249.363-2.2,2.21-3.436,3.408-5.073,4.416-6.04,8.136-12.278,9.388-19.9,2.141-13.033,4.51-26.039,7.242-38.959,1.051-4.965-.515-7.262-4.951-9.158a150.848,150.848,0,0,1-40.682-26.179q0-.727-.006-1.456Z" transform="translate(-33.194 -0.815)"/><path class="a" d="M360.443,652.876c1.871.43,3.456-.6,5.15-1.035a4.835,4.835,0,0,1,6.161,5.02c-.709,6.746-.709,6.746,5.954,9.633-2.71,2.469-5.625,4.513-9.5,4.583-3.755-2.121-6.276-6.011-10.572-7.357a9.475,9.475,0,0,0,1.48-5.7C360.479,656.542,359.08,654.356,360.443,652.876Z" transform="translate(-27.04 -34.175)"/><path class="h" d="M318.644,678.129c.587,3.9.62,7.893,1.861,11.693.179,5.022-.77,6.277-5.609,6.308-4.7.029-9.6,1.06-13.912-1.907-1.289-2.2-.21-4.31.266-6.437,1.4-6.263,4.389-11.9,7.018-17.676l1.107-.016c.4,1.154.834,2.251,2.324,1.085a1.683,1.683,0,0,0,2.655.055l1.709.534q-.456,1.452-.911,2.9c-1-.475-1.305-2.809-2.536-1.828-2.028,1.618-5.212,1.713-6.2,4.712-.882,2.673-1.969,5.277-2.881,7.94-1.569,4.58-1.142,5.417,3.743,5.853,3.423.306,6.9.058,10.934.058-5.175,2.539-10.236,1.505-15.2,1.734a27.258,27.258,0,0,0,11.592,1.554c4.079-.235,4.637-2.357,4.068-5.588-.643-3.642-1.778-7.218-1.421-10.988Z" transform="translate(-21.105 -36.084)"/><path class="i" d="M359.19,369.955c-1.113-5.873,2.2-8.634,7.03-10.939,4.912-2.346,9.94-4.615,14.272-8.041,7.909-3.828,14.351-9.692,21.077-15.16l.629.995a19.5,19.5,0,0,1-1.462,1.629c-10.58,9.5-22.785,16.51-35.4,22.85-3.235,1.626-5.544,3.351-4.352,7.459C361.445,370.333,360.833,371.094,359.19,369.955Z" transform="translate(-27.178 -1.44)"/><path class="h" d="M344.852,684.138a58.334,58.334,0,0,1,1.106-16.967l.959-.017c.852,2.642,2.123,4.684,5.443,3.816l.83.8c-.5.748-1.178,1.708-2.076,1.219-5.536-3.011-4.789,1.342-4.951,4.268-.109,1.977-.632,4.087.594,5.968.367.438.673,1.185,1.109,1.269,9.4,1.816,18.677,5.2,28.455,2.311l.1.124c-.478,2.4-2.739,2.3-4.246,2.453-8.869.913-17.3-1.665-25.778-3.71C345.795,685.528,345.364,684.667,344.852,684.138Z" transform="translate(-25.695 -35.78)"/><path class="h" d="M357.184,665.112c4.3,1.346,6.817,5.237,10.572,7.357,3.249,3.138,7.762,4.774,10.444,8.537,1.421,1.993,3.572,4.467-.887,5.712l-.1-.124c-.1-1.187,2-2.378-.007-3.561-2.268-4.976-7.387-6.722-11.474-9.405-1.6-1.051-2.988,3.189-5.359,3.792-.159.04-.407-.272-.181-.11-1.025-3.092,6.449-3.025,1.84-7.477-4.009-3.872-5.716-.682-7.949,1.727l-.83-.8c.723-1.881,3.187-3,2.425-5.533Z" transform="translate(-26.585 -35.568)"/><path class="i" d="M415.924,329.764q0,.727.006,1.456c-4.419-.986-5.733,3.54-8.807,4.943l-.629-.995C409.377,332.914,411.113,328.665,415.924,329.764Z" transform="translate(-32.103 -0.794)"/><path class="i" d="M192.854,694.116c4.227.221,8.521-.816,12.68.674l-2.692.291C199.523,694.653,196.112,695.176,192.854,694.116Z" transform="translate(-9.962 -38.559)"/><path class="e" d="M118.978,404.577a1.53,1.53,0,0,1-.212.258c-.043.035-.134.013-.2.018l.451-.233Z" transform="translate(-2.262 -8.566)"/><path class="j" d="M351.734,652.164l-1.51.112c-2.534.975-5.849-1.611-7.866,1.718l-.959.017c-2.621-3.374-2.532-7.425-2.882-11.378-2.334-26.37-4.686-52.738-7.634-79.21q-1.124,3.664-2.247,7.327-.257.57-.515,1.139l-.124-.216.135.217c-1.966-1.381-5.917,1.807-6.448-2.6-.29-2.407-.784-4.159-3.611-3.886-2.78.268-3.674,2.1-3.652,4.666.042,4.761-.157,9.53.057,14.282.354,7.829,2.982,11.324,8.867,12.352a5.006,5.006,0,0,1-.055,1.741c-6.148,14.672-5.122,30.145-5.149,45.5-.007,3.671.359,7.385-1.129,10.9q-.421.017-.842.018c-3.7-1.984-6.288-1.31-6.767,1.76l-1.107.015c-8.7-14.828-7.346-31.3-7.624-47.459-.1-5.917.545-11.846.85-17.769,2.046-1.911,2.153-4.418,2.03-6.936-.158-3.228-.109-6.016,4.415-5.957a3.5,3.5,0,0,0,3.5-3.478,3.043,3.043,0,0,0-3.338-3.41c-6.715.889-5.231-3.7-5.333-7.382-.041-1.481-.3-2.956-.454-4.436q.491-1.8.977-3.594c3.713-.778,3.945-2.358,1.056-7.2q2.658-4.424,5.315-8.846l2.129.082,14.207,2.005c2.893,2.251,12.1,2.188,16.065-.109l-.1,5.219a10.55,10.55,0,0,0-8.7,11.972c.839,6.026,5.78,9.562,11.77,8.745,2.861-.391,4.212-3.311,7-3.616,2.487.942,2.835,3.265,3.493,5.39l.043,5.365a2.661,2.661,0,0,0-1.7,2.754,37.539,37.539,0,0,0-.026,17.769c.367,1.5,2.541,1.692,2.532,3.472-.038,6.83.694,13.774-.3,20.463-1.321,8.907-3.764,17.641-2.888,26.775A9.475,9.475,0,0,1,351.734,652.164Zm-5.8-78.887c-2.095-2.925-4.225-2.392-4.83.721a53.248,53.248,0,0,0-.006,20.363c.6,3.1,2.738,3.709,4.845.719C348.337,592.254,348.33,576.1,345.929,573.277Z" transform="translate(-21.135 -22.62)"/><path class="k" d="M402.212,336.336c3.074-1.4,4.388-5.929,8.807-4.943A150.848,150.848,0,0,0,451.7,357.572c4.437,1.9,6,4.193,4.951,9.158-2.732,12.92-5.1,25.926-7.242,38.959-1.252,7.623-4.972,13.861-9.388,19.9-1.2,1.638-3.045,2.869-3.408,5.073l.256.172c-1.978-.468-2.258,1.457-3.1,2.377q-8.414,9.182-17.6,17.581a13.2,13.2,0,0,1-6.025,3.572c-4.672.461-8.146-1.576-11.116-5.013-1.175-1.36-1.984-3.354-4.224-3.51a89.1,89.1,0,0,1-20.639-23.961c-.139-3.412-2.46-5.922-3.838-8.783-2.357-4.9-1.805-10.49-4.178-15.318-1.237-1.585-3.748-2.782-1.1-5.347.813-.787-.517-1.708-1.163-2.51-1.148-1.423.753-.964,1.084-1.506l-.03.108q-.563-.5-1.126-1a33.907,33.907,0,0,0-2.151-13.838l.072.064-1.129-.523c-1.615-.818-1.621-2.24-1.409-3.746,1.645,1.138,2.257.377,1.8-1.209-1.192-4.108,1.117-5.833,4.352-7.459,12.615-6.34,24.82-13.353,35.4-22.85A19.5,19.5,0,0,0,402.212,336.336Zm47.183,33.324c.291-3.931-1.742-5.111-4.019-6.119A122.157,122.157,0,0,1,412.8,342.8c-2.157-1.935-4.34-1.925-6.333.1-9.866,10-21.825,16.943-34.2,23.229-3.123,1.586-3.861,3.756-3.224,6.917,1.2,5.964,2.247,11.959,3.45,17.923,1.491,7.395,1.922,15.1,5.692,21.869,6.3,11.313,15.339,20.378,24.615,29.189,2.959,2.812,6.613,3.242,10.285.949a7.2,7.2,0,0,0,1.15-.686c9.895-9.232,19.813-18.428,26.424-30.521,2.668-4.881,2.526-10.33,3.62-15.519C446.207,387.106,447.825,377.9,449.394,369.66Z" transform="translate(-27.192 -0.967)"/><path class="j" d="M258.012,465.745c1.9-4.878.928-8.991-2.283-13.254-7.02-9.318-.686-22.7,11.1-23.336,3.63-.2,5.4-1.213,6.159-4.5a1.677,1.677,0,0,1,.218-.388c1.315-2.35,2.573-5.046,5.59-5.25,2.478-.168,3.933,1.815,4.867,3.976,1.331,3.083,1.671,6.474-.935,8.706-2.7,2.313-2.444,3.826-.531,6.353a21.032,21.032,0,0,1,3.95,9.379,13.481,13.481,0,0,0,2.775,5.982c1.082,1.03,1.714,2.645,3.535,2.718,5.683-.052,11.263.9,16.852,1.747,1.018.5,1.382,2,2.828,1.856,1.87.924,2.36,2.99,3.648,4.4.119,1.656.014,3.625,2.592,1.856l-.016.007,1.746-.816,1.127,2.609-4.882.192c-2.871-.826-4.323-4.177-8.429-4.6,2.8,3.533,4.469,6.764,4.484,10.737.006,1.616,1.867,2.56,3.272,3.351,1.774,1,3.646,1.826,5.475,2.727l-.036.982c-1.706.022-1.53,1.443-1.872,2.493a30.264,30.264,0,0,1-6.888,12.035l-1.444-.034c-.87-2.176-.783-4.68-2.281-6.641a26.98,26.98,0,0,0-5.233-12.556c-4.029-5.349-9.31-8.626-16.415-7.779l-2.8-.714c-2.743-.559-4.8-2.263-6.766-4.09-2.63-2.439-3.669-5.63-4.457-9.018-.673-2.894,1.683-3.768,3.019-5.417.854-1.054,1.3-3.005-.624-3.069-2.574-.084-2.6-2.071-3.529-3.392-2.355-3.334-7.232-4.251-9.1-1.515-2.113,3.1-2.286,6.482-1.524,10.206.54,2.643,2.335,2.166,3.89,2.711a1.947,1.947,0,0,1,.971,1.326c.52,2.925.947,5.867,1.38,8.807.316,2.141-1.041,2.487-2.716,2.461C262.5,466.525,259.92,467.96,258.012,465.745Z" transform="translate(-16.174 -10.061)"/><path class="l" d="M189.651,568.81l-.476-2.675c.525-5.525-1.82-10.525-2.89-15.758-.375-1.829-1.211-3.816,1.567-4.567a58.407,58.407,0,0,1,11.624-1.576c-1.523,2.919-.405,4.538,2.568,5.327,4.646,1.232,9.242,1.691,13.721-.619l1.077-.661c.44-1.993,1.4-2.852,3.6-2.123A71.975,71.975,0,0,1,229.7,550.3c2.786,1.382,3.063,3.084,1.92,5.548a38.23,38.23,0,0,0-4.288,12.486,5.07,5.07,0,0,1-4.164,4.494c-1.8.471-2.7-2.174-4.611-1.333-2.587.451-3.938-2.894-6.621-2.148l.085.086c.6-1.735-.183-2.552-1.848-2.788l.062.089c.856-1.2.117-1.622-.93-1.89l.055.056c-2.631-2.433-3.013-2.59-4.051-.087-.7,1.685-1.267.943-2.137.731-.956-.232-1.608-1.76-2.872-.679l.088.063c.151-1.613-1.078-1.324-1.9-1.21-1.052.146-1.213,1.15-1.254,2.02-.08,1.671.9,3,1.57,4.424l-8.249,1C190,570.477,190.77,569.284,189.651,568.81Z" transform="translate(-9.238 -23.04)"/><path class="j" d="M231.845,552.22c1.143-2.465.866-4.167-1.92-5.549a71.983,71.983,0,0,0-9.255-4.144c-2.2-.73-3.161.13-3.6,2.123q-.281-.284-.567-.565c-.053-1.229-1.073-1.628-1.864-2.285-3.638-3.025-4.484-10.753-1.135-12.724,3.447-2.029,3.918-2.6.653-6.049-3.85-4.068-7.489-1.948-10.969-1.528-3.018.365-2.161,4.118-2.382,6.438-.272,2.861-.748,6.077,2.552,7.882a12.255,12.255,0,0,0,1.708.464c.99.356.255.707.03,1.178-.746,1.563.921,4.584-2.712,4.375-.28-1.742-.857-2.841-2.682-1.233a58.407,58.407,0,0,0-11.624,1.576l-.025-1.3c.838-.286,1.679-.478,1.746-1.664.524-9.2,5.885-16.455,10.282-23.923,4.754-8.075,15.227-8,21.058-.54,3.214,4.115,4.183,9.161,5.808,13.923.67,1.961,1.157,2.741,2.389.412l1.017.017c.276,4.048-1.619,8.561,2.53,11.782,1.438,1.447-.307,4.482,2.6,5.2a5.354,5.354,0,0,1-.017,5.334l-1.871,1.01-.948.753Z" transform="translate(-9.464 -19.408)"/><path class="j" d="M318.052,432.746c-2.637-2.043-.368-4.03.244-5.87.746-2.239,1.758-4.317.368-6.617.86-.053,2.409-.316,2.371.424-.221,4.343,3.306,2.909,5.273,3.389,2.439.6,2.531-1.962,3.326-3.412.64-1.17,1-2.5,1.7-3.628,1.459-2.348,2.016-4.412-1.241-5.643-2.678-1.012-5.392-2.324-6.865,1.8-.63,1.764-1.5,3.646-3.8,3.977l.177-.216-.21-.184c.015-1.053,3.524-2.844-.639-3.014-3.387-1.9-3.948-4.471-1.635-8.841,1.555-2.939,3.507-5.29,7.388-3.042,2.824,1.636,5.777.567,8.661.013,2.311-.444,4.906-1.66,5.1,2.4.085,1.8,1.446,1.036,2.335.99,3.3-.173,5.76,1.025,7.184,4.12,1.5,3.261-.324,5.323-2.526,7.3A13.957,13.957,0,0,0,341.252,423c-.913,2.909-1.674,5.859-4,8.055l-1.241,0c.267-1.4.266-2.67-1.568-2.944a2.339,2.339,0,0,0-2.719,1.713c-1.309,4.318-4.4,5.837-8.6,5.8C320.721,435.922,320.58,432.238,318.052,432.746Zm17.129-10.368c1.865-.208,2.561-1.428,2.682-3.04.069-.915-.246-2.055-1.374-1.687a5.237,5.237,0,0,0-3.067,3.529C333.005,422.456,334.557,422.054,335.182,422.377Z" transform="translate(-22.695 -8.193)"/><path class="m" d="M153.033,561.186c2.965,3.584,3.182,8.158,3.512,12.322a72.407,72.407,0,0,1-.626,16.675,16.226,16.226,0,0,1-2.2,5.527c-2.555.232.705-3.452-2.031-2.59-1.35.426-2.691,1.732-1.67,3.5,1.31,2.265-1.27,2.113-1.825,2.474-3.056,1.989-11.592.438-14.06-2.2a3.394,3.394,0,0,1-.681-2.495c.606-.066,1.437-.309,1.185-.938-1.555-3.891-1.319-7.92-.746-12.291-2.175,1.179-2.321,2.817-2.2,4.422.175,2.347.559,4.678.854,7.016-3.5-1.474-.816-6.115-3.978-7.785-.066-.035.01-.66.16-.736,4.026-2.052,1.991-5.538,2.052-8.523,6.5,4.712,11.311,11.176,16.982,16.66a1.6,1.6,0,0,0,.8-2.046c-.488-1.858-1.925-3.876,1.866-3.949.843-.017,2.194-1.429,1.082-3.5-3.56-6.62-1.389-13.457-.084-20.207C151.592,561.684,152.287,561.38,153.033,561.186Z" transform="translate(-3.297 -24.797)"/><path class="k" d="M203.023,442.084c-1.249-4.538-2.34-9.1-1.951-13.866a23.4,23.4,0,0,0,13.918-6.1,39.574,39.574,0,0,1,10.106-7.087c1.018-.459,2.182-1.447,3.229-.461,1.309,1.231.169,2.383-.56,3.458-2.584,4.983-5.145,9.98-5.3,15.765-.013.483.5.981.773,1.471,1.438,2.772,4.106,2.633,6.646,2.8,1.276,1.646,1.6,2.984-1.086,3.351-1.774.783-3.128-1.183-4.851-.739a8.526,8.526,0,0,0-8.558-2.149C211.262,439.7,207.145,440.9,203.023,442.084Z" transform="translate(-10.805 -9.558)"/><path class="h" d="M240.578,542.138c-2.907-.714-1.162-3.749-2.6-5.2.75-4.064,1.526-8.123,2.244-12.192,1.207-6.832,2.274-13.691,3.628-20.493.411-2.059-.622-2.785-2.047-3.239-2.257-.719-1.7,1.34-1.993,2.374-.558,1.981-.939,4.01-1.395,6.02l-1.2-.757c1.971-6.664.066-14.206,4.629-20.292,1.06-1.414-1.547-2.143-.765-3.568.676-1.231.07-3.262,2.237-3.559-.818,4.608-.3,5.058,4.505,3.874.434-.108.871-.2,1.3-.317,1.605-.445,2.668-1.441,2.572-3.158-.1-1.827-.739-3.752-2.214-4.7-1.655-1.066-2.252,1.216-3.4,1.887-1.1.644-1.276,2.343-2.827,2.478.931-3.541,2.931-5.909,6.806-6.312a8.671,8.671,0,0,0,6.334-3.837c1.907,2.216,4.491.782,6.724,1.241,3.719,4.885,13.164,5.367,19.451.991l2.8.714c-.149.254-.235.636-.456.744-7.661,3.746-15.3,4.654-22.891-.217-3.233-2.077-5.951-.132-8.766,1.13-3.066,1.374-.241,2.949-.082,4.349.35,3.081-.489,6.054-3.568,6.136-5.436.147-6.759,3.886-8.546,7.633-1.21,2.536-1.186,4.426,1.714,5.818,1.484.713,3.388,1.411,2.9,3.888-1.012,5.087-2.2,10.167-2.745,15.311C242.111,526.633,238.658,534.124,240.578,542.138Z" transform="translate(-14.559 -15.466)"/><path class="h" d="M345.279,443.947c3.441,3.591,7.947,5.4,12.242,7.7,20.115,10.752,21.817,30.221,15.027,47.136-1.279,3.187-4.7,3.954-6.674,6.324l-.68-.928a40.046,40.046,0,0,0,2.72-5.543c2.586-8.136.434-10.98-8.078-10.2-6.543.6-11.894-1.675-16.835-5.546q.023-.912.048-1.823c5.647,4.143,11.523,6.732,18.985,5.751,6.08-.8,8.307,1.9,8.536,7.989.021.548-.1,1.176.675,1.362.25-.142.653-.237.719-.441,5.394-16.74,2.27-33.154-14.443-42.22-4.624-2.509-10.081-3.775-12.894-8.888Z" transform="translate(-25.523 -12.646)"/><path class="h" d="M345.02,537.785c-3.966,2.3-13.171,2.36-16.065.109.744-.015,1.49-.079,2.23-.038,13.052.721,12.929.74,11.143-11.944-1.3-9.238-2.227-18.528-3.317-27.794,1.348-.592,1.771.716,2.472,1.288a104.918,104.918,0,0,0,14.289,9.8c2.57,1.467,5.179,2.216,7.966.566l.68.928c-.334.294-.7.87-1,.84-6.525-.671-5.081,3.559-4.958,7.469.179,5.68.453,11.3,2.073,16.781a7.263,7.263,0,0,1-1.259,7.142c-1.213,1.419-1.062,3-1.262,4.581l-2.983-2.464c1.769-2.248,5.245-3.816,4.207-7.321-2.308-7.8-2.034-15.871-3.023-23.8a4.387,4.387,0,0,0-2.011-3.685c-4.112-2.561-8.092-5.329-12.344-8.161a29.591,29.591,0,0,0,.147,8.28C342.851,519.522,345.139,528.522,345.02,537.785Z" transform="translate(-24.067 -18.245)"/><path class="i" d="M189.978,571.651c1.12.474.353,1.667.9,2.358.153,6.082.349,12.163.44,18.245.036,2.406,1.172,3.588,3.384,4.5,8.173,3.385,16.594,2.742,25.07,2.028,4.3-.363,5.929-2.394,6.015-6.818.068-3.515-.374-5.661-3.993-6.991-1.856-.681-4.515-1.1-5.045-3.844,5.49,2.339,10.689,5.764,17.126,4.567l-.065-.106a2.169,2.169,0,0,1-2.632,1.784c-3.479-.718-3.707,1.34-4.051,3.928a44.085,44.085,0,0,0,.232,13.192c-1.117,1.058-.58,2.481-.83,3.731a47.809,47.809,0,0,1-.79-5.209c-.1-2.137-1.316-3.014-3.136-2.809-8.817.992-17.637.056-26.452.187l-1.537-.46c-.022-.146,0-.386-.073-.423-6.023-2.954-4.588-8.553-4.793-13.54C189.556,581.2,188.1,576.4,189.978,571.651Z" transform="translate(-9.565 -25.882)"/><path class="b" d="M230.064,444.142c2.683-.368,2.361-1.706,1.083-3.351l4.445-.371.854,1.333q-.005.789-.012,1.578c-.012,1.629-.039,3.257-.034,4.886.017,5.842-2.917,9.655-8.387,10.881-6.059,1.359-11.722-.971-14.044-5.905a11.711,11.711,0,0,1-.728-3.421,2.051,2.051,0,0,1,1.928-2.5c1.6-.221,1.834.978,2.158,2.2,1.547,5.84,6.826,8.283,11.8,5.529C233.579,452.539,234.08,446.722,230.064,444.142Z" transform="translate(-12.072 -12.281)"/><path class="i" d="M185.07,542.747l.025,1.3c-2.778.751-1.942,2.738-1.567,4.567,1.07,5.233,3.415,10.233,2.89,15.758-1.249-2.83-3.551-3.959-6.432-5-7.734-2.8-15.745-5.381-20.715-12.746l.9-.691c6.26,7.342,14.915,10.242,24.4,13.344a84.55,84.55,0,0,1-2.022-8.294c-.432-3.118-1.606-4.614-5.024-5.379-8.412-1.881-9.994-4.624-8.93-13.087.222-1.763.454-3.525.68-5.287l1.278.092c-.247,2.665-.5,5.33-.738,8-.522,5.877,6.853,10.939,12.352,8.5C183.111,543.4,184.1,543.1,185.07,542.747Z" transform="translate(-6.481 -21.278)"/><path class="i" d="M454.99,520.184a156.855,156.855,0,0,0-1.589-68.822C460.017,462.99,461.86,501.747,454.99,520.184Z" transform="translate(-36.965 -13.415)"/><path class="k" d="M319.764,418.252c2.3-.331,3.173-2.213,3.8-3.977,1.473-4.125,4.187-2.813,6.865-1.8,3.256,1.231,2.7,3.294,1.241,5.643-.7,1.126-1.06,2.458-1.7,3.628-.794,1.45-.887,4.008-3.326,3.412-1.968-.48-5.495.954-5.273-3.389.038-.74-1.511-.477-2.371-.424Q319.384,419.8,319.764,418.252Z" transform="translate(-23.036 -9.278)"/><path class="h" d="M336.707,434.535l1.241,0c-2.168,5.209,2.237,6.378,5.2,8.435l-.653.675c-.992-.1-2.421-.654-2.89-.206-1.163,1.108-.194,2.721.437,3.631,3.02,4.356,2.665,9.229,2.763,14.118.122,6.127-1.131,12.068-1.992,18.068-.625-.025-1.293.041-1.563-.734l.524-1.171c.046-.3.092-.6.138-.895.158-2.782.287-5.543.661-8.336.705-5.275,1.269-10.672.026-16-.614-2.635-1.7-3.717-4.713-2.478-4.548,1.871-9.256,2.442-13.473-1.131l.782-.84c4.286,2.691,8.632,2.212,13.008.247,1.284-.578,2.594-1.239,1.384-2.885C335.12,441.679,335.716,438.137,336.707,434.535Z" transform="translate(-23.389 -11.671)"/><path class="j" d="M359.269,650.52c-.876-9.134,1.567-17.868,2.888-26.775.993-6.689.262-13.633.3-20.463.009-1.779-2.165-1.968-2.533-3.471a39.712,39.712,0,0,0,.027-17.77,2.661,2.661,0,0,1,1.7-2.754q.77,10.764,1.54,21.529c1.265,14.976-.584,29.773-2.6,44.558C359.23,646.854,360.628,649.04,359.269,650.52Z" transform="translate(-27.19 -26.673)"/><path class="i" d="M464.081,458.606c5.047,9.037,5.961,44.661.958,57.6C467.7,496.959,467.72,477.772,464.081,458.606Z" transform="translate(-38.072 -14.166)"/><path class="h" d="M315.708,436.413c2.528-.507,2.668,3.177,5.076,2.88-1.591,2.753-4.589,5.4-.631,8.564l-.782.84c-.91-.2-2.457-2.27-2.56-.473-.254,4.415-2.575,8.818-.492,13.307-1.446.145-1.81-1.353-2.828-1.856,1.793-6.318.09-13.357,4.086-19.5-5.483,3.711-12.358,4.594-16.817,9.493-2.043,2.244-5.163,4.329-4.122,8.262-1.821-.073-2.453-1.688-3.535-2.718,1.721.232,2.372-1.173,2.99-2.236,3.171-5.452,8.293-8.323,13.775-10.822,2.148-.979,4.151-2.269,6.243-3.372C318.458,437.544,315.979,437.177,315.708,436.413Z" transform="translate(-20.352 -11.861)"/><path class="i" d="M159.095,544.305c-2.118-3.124-1.111-6.293.024-9.366a94.489,94.489,0,0,1,4.418-10.656c1.508-2.92.958-4.9-1.463-6.865a12.165,12.165,0,0,1-4.429-9.356c-.057-1.211-.388-2.514,1.033-3.06,1.645-.632,2.3.781,3.083,1.814,1.144,1.5,1,3.732,2.763,4.973.989-.966,0-3.3,2.25-3.2,1.294.057,1.675,1.037,1.8,2.152l-.8.991c-3,2.729-4.468,2.4-6.2-1.432-.6-1.316-.579-3.058-2.595-3.6.3,3.272.567,6.615,3.2,8.583,4.713,3.523,4.081,7.224,1.908,11.927-2.367,5.124-5.7,10.212-4.086,16.406Z" transform="translate(-6.305 -18.958)"/><path class="n" d="M237.65,441.056q.005-.789.012-1.578c3.286-1.974,4.72-5.255,5.729-8.655,1.133-3.82-.773-7.49-3.9-8.241-6.42-1.544-14.135,5.8-12.96,12.335l-.81.8c-.27-.49-.786-.988-.773-1.471.155-5.785,2.716-10.782,5.3-15.765.077.377.154.757.23,1.135.1,4.232,2.5,2.586,4.571,1.776,3.7-.567,7.235-.731,9.182,3.438,1.714,3.672.186,10.528-3.269,14.08A6.208,6.208,0,0,1,237.65,441.056Z" transform="translate(-13.288 -10.007)"/><path class="o" d="M242.467,329.294c10.21,2.781,19.783,6.794,28.3,14.242-3.173.666-4.326-1.486-5.929-2.515-6.414-4.114-13.092-7.513-20.6-9.253-1.735-.4-4.4.219-5-2.616Z" transform="translate(-14.768 -0.749)"/><path class="h" d="M416.047,465.872a13.2,13.2,0,0,0,6.025-3.572q9.186-8.407,17.6-17.581c.843-.92,1.122-2.845,3.1-2.377-.648,3.273-3.414,5.029-5.472,7.177-5.506,5.747-11.292,11.227-16.966,16.813l-1.772.276C417.661,466.574,416.684,466.8,416.047,465.872Z" transform="translate(-33.093 -12.473)"/><path class="i" d="M366.855,405.473c2.373,4.828,1.821,10.423,4.178,15.318,1.379,2.861,3.7,5.371,3.838,8.783-4.988-5.106-6.937-11.588-7.912-18.361C366.7,409.4,364.775,407.388,366.855,405.473Z" transform="translate(-27.896 -8.659)"/><path class="j" d="M357.919,550.5l2.983,2.464q.235,8.987.471,17.976c-.658-2.124-1.007-4.448-3.493-5.39l-.016.021c3.449-4.7,1.714-8.985-1.035-13.2q.051-.515.1-1.03Z" transform="translate(-26.956 -23.69)"/><path class="i" d="M203.234,444.86c4.121-1.187,8.238-2.389,12.365-3.553a8.526,8.526,0,0,1,8.558,2.149c-7.511-2.468-14.168,1.317-21.128,2.881Q203.131,445.6,203.234,444.86Z" transform="translate(-11.016 -12.334)"/><path class="i" d="M414.273,467.615c.637.929,1.614.7,2.514.736-7.479,2.226-13.574-.936-17.854-9.259,2.24.156,3.049,2.15,4.224,3.51C406.127,466.04,409.6,468.076,414.273,467.615Z" transform="translate(-31.32 -14.216)"/><path class="i" d="M235.127,529.5l-1.017-.017c.334-5.6,1.663-11.024,2.785-16.488l1.2.758Q236.611,521.623,235.127,529.5Z" transform="translate(-14.237 -19.802)"/><path class="i" d="M361.929,378.594a33.907,33.907,0,0,1,2.151,13.838C362.241,387.991,361.009,383.459,361.929,378.594Z" transform="translate(-27.452 -5.873)"/><path class="n" d="M168.954,512.417l.8-.991a21.94,21.94,0,0,1,1.8,14.26l-1.278-.092C171.341,521.05,170.223,516.726,168.954,512.417Z" transform="translate(-7.485 -19.64)"/><path class="m" d="M129.756,576.046c-1.363.03-2.718.047-2.68-1.9A3.108,3.108,0,0,1,129.756,576.046Z" transform="translate(-3.144 -26.14)"/><path class="k" d="M319.1,415.23c4.163.17.654,1.961.639,3.014C318.891,417.373,319.043,416.291,319.1,415.23Z" transform="translate(-23.041 -9.67)"/><path class="i" d="M360.785,378.074l1.129.523C361.819,377.819,361.27,378.014,360.785,378.074Z" transform="translate(-27.366 -5.813)"/><path class="i" d="M365.621,395.136l.03-.108Z" transform="translate(-27.867 -7.576)"/><path class="o" d="M159.489,391.806c1.874-16.266,8.932-30.072,20.6-41.62C170.452,362.706,162.954,376.25,159.489,391.806Z" transform="translate(-6.504 -2.929)"/><path class="o" d="M203.008,387.079c-.47-11.057-.113-22.033,3.89-32.64C204.946,365.254,204.683,376.238,203.008,387.079Z" transform="translate(-10.997 -3.37)"/><path class="i" d="M227.53,418.983c-.076-.378-.153-.757-.23-1.135.727-1.076,1.867-2.227.558-3.458-1.047-.986-2.21,0-3.229.461a39.574,39.574,0,0,0-10.106,7.087,23.4,23.4,0,0,1-13.918,6.1,3.765,3.765,0,0,0-4.112-1.8,20.562,20.562,0,0,0,16.6-5.078c4.294-3.618,8.461-7.483,14.209-8.771Q227.414,415.686,227.53,418.983Z" transform="translate(-10.339 -9.376)"/><path class="o" d="M276.83,348.33a55.777,55.777,0,0,1,18.126,23.744A175.142,175.142,0,0,0,276.83,348.33Z" transform="translate(-18.665 -2.737)"/><path class="o" d="M254.9,383.595c-2.957-11.3-5.72-21.431-10.426-32.148C249.113,355.418,256.173,377.3,254.9,383.595Z" transform="translate(-15.311 -3.06)"/><path class="o" d="M238.686,338.344C241,341.5,243.542,344.538,243.4,349q-2.833-4.967-5.664-9.933Z" transform="translate(-14.613 -1.702)"/><path class="o" d="M194.758,340.192l-8.9,6.768-.833-1.017c2.795-2.487,5.527-5.048,8.922-6.816Z" transform="translate(-9.15 -1.783)"/><path class="o" d="M208.555,349.638a15.855,15.855,0,0,1,5.34-12.517Z" transform="translate(-11.588 -1.575)"/><path class="a" d="M130.252,600.215c3.5,10.361,7.705,20.439,12.085,30.449.668,1.528,1.965,3,.77,4.973-4.97-7.321-19.816-46.806-19.435-52.9l5.7,15.693Q129.814,599.322,130.252,600.215Z" transform="translate(-2.791 -27.03)"/><path class="a" d="M161.455,675.666c-4.121-6.01-6.441-12.923-9.711-19.36l1.326-.665,9.654,19.388Z" transform="translate(-5.701 -34.586)"/><path class="p" d="M132.908,594.919c-.295-2.338-.679-4.669-.854-7.016-.119-1.6.026-3.243,2.2-4.422-.573,4.371-.809,8.4.746,12.291.252.628-.579.871-1.185.938,0-.295-.005-.59-.007-.886l-.886-.89Z" transform="translate(-3.657 -27.108)"/><path class="f" d="M198.639,662.561a18.266,18.266,0,0,1,1.611,7.643c-3.218-.212-1.935,4.814-5.247,4.492l.017.017C195.842,670.548,199.608,667.258,198.639,662.561Z" transform="translate(-10.184 -35.304)"/><path class="m" d="M130.913,602.029q-.438-.893-.876-1.787c.783.089,1.854-.271,2.178.687C132.55,601.919,131.532,601.861,130.913,602.029Z" transform="translate(-3.451 -28.845)"/><path class="a" d="M122.362,580.971c.1.01.242-.015.279.037a.412.412,0,0,1,.074.339c-.171.362-.359.343-.464-.046C122.224,581.208,122.321,581.081,122.362,580.971Z" transform="translate(-2.644 -26.848)"/><path class="m" d="M133.027,596.258l.886.89Z" transform="translate(-3.761 -28.432)"/><path class="f" d="M201.32,672.995l.25.886C200.8,673.779,200.413,673.57,201.32,672.995Z" transform="translate(-10.785 -36.385)"/><path class="f" d="M194.98,676.1l-.186.381.2-.364Z" transform="translate(-10.163 -36.707)"/><path class="a" d="M414.162,620.092c1.792,11.729-11.386,21.6-20.917,21.248-11.62-.432-21.3-9.8-21.275-21.341.022-11.153,9.766-21.408,20.578-21.431C403.932,598.545,415.572,608.39,414.162,620.092Z" transform="translate(-28.525 -28.671)"/><path class="j" d="M291.006,585.76q-.03.9-.057,1.792c-1.786.536-3.12,2.018-5.241,2.011a3.651,3.651,0,0,0-3.418,3.069c-.435,1.818.514,3.12,2,4.092.867.567,1.724,1.152,2.585,1.728-.914,5.7-2.485,10.934-9.276,12.6,2.487.748,4.312-.223,5.95-1.618,3.131-2.667,3.922-6.467,4.8-10.211l1.935-.91q-.125,1.334-.249,2.668c-1.21,1.25-.869,2.7-.531,4.147-1.077,13.218-3.853,26.144-6.667,39.068-.757,3.476-1.245,7.011-1.857,10.519l-1.176-.051c-1.882-3.515-4.976-1.707-7.651-1.734l-1.215-.091c-.024-3.427-.013-6.854-.077-10.279q-.6-31.957-1.229-63.914c2.468.627,2.488,2.641,2.52,4.571.054,3.253-.046,6.51.042,9.762.053,1.924.138,4.213,2.765,4.253,2.556.039,3.5-1.8,3.491-4.193-.014-4.289.147-8.586-.055-12.867a9.493,9.493,0,0,0-8.816-8.754c-1.273-4.1,1.416-8.769-1.8-12.6-.2-.444-.322-1.156-1.008-.694-.653.441-.091.858.246,1.22,1.728,4.526.679,8.792-1.219,12.977-1.445.491-3.3.266-4.126,2.1,1.576,1.077,2.681-.217,3.918-.238q-1.7,10.692-3.392,21.382c-1.318-1.557-.656-3.417-.757-5.148-.172-2.958,0-5.955-.42-8.872-.445-3.09-2.1-5.126-5.75-4.8-3.54.319-4.334,2.816-4.563,5.558-.247,2.953,0,5.945-.112,8.914-.047,1.172.692,3.2-1.3,3.161-1.888-.041-2.046-2.3-1.777-3.482,1.187-5.191-.874-10.668,1.5-15.711,3.464-1.448,6.824-3.366,10.893-2.124a7.6,7.6,0,0,0-11.173,1.834,5.947,5.947,0,0,0-2.564,4.94c-.1,4.445-.021,8.894-.039,13.341-.008,2.142.89,3.377,3.164,3.352,2.242-.025,3.178-1.23,3.165-3.382-.02-3.261-.05-6.525.028-9.784.053-2.249.072-4.744,3.3-4.7,2.962.037,3.581,2.353,3.72,4.63.189,3.1.061,6.223.055,9.336,0,1.884.148,3.648,2.6,3.888a223.252,223.252,0,0,0,4.069,50.626q-.21.776-.42,1.552c-3.915-.9-6.863-.273-7.165,4.528a23.04,23.04,0,0,0-1.4-2.772c-13.424-19.756-19.341-41.484-17.343-65.325.086-1.024.8-2.44-.917-3l.065.1c1.137-4.438,2.859-8.758,2.713-13.454,2.146-1.92,2.6-4.457,2.621-7.154,1.42-6.368,3.805-12.423,5.941-18.563.734-2.112,2.206-2.955,4.154-3.517,4.93-1.422,9.951-1.458,15.007-1.136,2.361,2.339,5.326,1.625,8.153,1.606l.42-.017.386.166c-.053,2.829.6,4.625,4.155,3.787,2.832-.668,4.789,1.65,7,2.917.923.53,1.789,1.159-.221,1.885-3.134,1.131-2.106,2.955-.243,4.6-3.1,2.186-7.754,2.811-8.475,8.427,3.46-2.513,7.2-1.511,10.251-3.083.559,1.468-.665,3.423,1.238,4.526l.023-.031q-.039,1.146-.076,2.29l-.409,11.3C288.707,579.569,289.911,582.669,291.006,585.76Zm-26.737-29.708c-.363-.608-.993-1.33-1.544-.727-.748.819.459,1,.876,1.417.8.4,1.409,2.063,2.389.84C266.418,557.048,265.165,556.265,264.269,556.052Z" transform="translate(-14.743 -22.42)"/><path class="m" d="M213.881,665.827a124.268,124.268,0,0,0-1.358-23.043c-.8-4.655.61-9.417,1.993-14.26,1.711,8.6,6.984,15.445,10.8,23.005C222.268,656.9,219.29,662.335,213.881,665.827Z" transform="translate(-11.976 -31.776)"/><path class="h" d="M272.477,665.429l1.215.09c.375,1.422-.329,2.554-1,3.694a8.765,8.765,0,0,1-5.931.164c-2.209-.59-4.984-1.086-6.136,1.9-1.7,4.415-3.1,8.947-4.755,13.381-.6,1.613-.356,2.777,1.34,2.969a53.362,53.362,0,0,0,6.681.092,1.362,1.362,0,0,0,1.442-1.376c.016-1.063-.888-.916-1.595-.995-2.305-.258-4.7.4-7.132-.513,1.384-1.44,2.964-1.066,4.321-.881,3.611.492,5.8-.592,6.828-4.359a9.729,9.729,0,0,1,3.881-5.755c-1.2,4.151-3.562,7.763-4.537,11.937-.442,1.891-.84,4.026,1.676,4.1,4.84.144,9.75.984,14.549-.486l.793.676c-.947,1.936-2.78,1.244-4.326,1.5-7.772,1.307-15.015-2.184-22.623-2.456-2.808-.1-3.8-1.99-3.006-4.737.353-1.219,1.5-2.289.778-3.733l-.084.071a3.438,3.438,0,0,0,1.63-3.663c1.182-.652,1.041-1.637.677-2.678,1.467-2.718,4.265-4.971,3.02-8.635,2.835,1.193,5.612,2.659,8.826,2.147l-1.649-6.6q.21-.776.42-1.552c.748,1.883,1.64,3.724,2.211,5.66C270.883,668.431,271.65,665.935,272.477,665.429Z" transform="translate(-16.288 -35.011)"/><path class="j" d="M302.252,562.092c.158,1.478.413,2.954.454,4.434.1,3.677-1.381,8.271,5.333,7.382a3.043,3.043,0,0,1,3.338,3.41,3.5,3.5,0,0,1-3.5,3.478c-4.524-.058-4.572,2.729-4.415,5.957.123,2.518.016,5.025-2.03,6.936.138-8.1.341-16.206.295-24.307,0-.679,1.87-3.13-1.236-2.7q-.328-.492-.657-.982C300.527,564.416,300.951,562.961,302.252,562.092Zm6.56,15.332c.074-1.593-.976-1.814-2.033-1.735-1.473.111-3.453-.8-4.047,1.5a1.518,1.518,0,0,0,1.572,2.083C306.084,579.312,307.833,579.176,308.812,577.424Z" transform="translate(-21.05 -24.891)"/><path class="j" d="M291.867,604.154c-.861-.576-1.718-1.161-2.585-1.728-1.483-.972-2.433-2.274-2-4.092a3.651,3.651,0,0,1,3.418-3.069c2.121.006,3.455-1.475,5.241-2.011a30.942,30.942,0,0,1-.67,10.761l-1.935.909Z" transform="translate(-19.737 -28.121)"/><path class="h" d="M284.155,668.123l1.176.051c-1.751,6.213,2.256,11.69,2.276,17.687.005,1.743.688,3.533-.679,5.078l-.793-.676a27.347,27.347,0,0,0-1.249-10.9c-.211-.74-.082-2.322-1.077-2.067-3.248.831-2.187-1.783-2.76-3.092q0-.227-.024-.453C285.538,673.8,282.655,669.747,284.155,668.123Z" transform="translate(-19.1 -35.88)"/><path class="n" d="M296.882,590.217c-1.094-3.092-2.3-6.191.684-8.973C297.794,584.269,297.912,587.286,296.882,590.217Z" transform="translate(-20.62 -26.876)"/><path class="h" d="M254.712,682.651c-1.415.082-1.248,1.619-2.072,2.244l-.941-.651c.814-1.847,1.115-4,3.07-5.173q-.071,1.826-.142,3.651Z" transform="translate(-16.06 -37.015)"/><path class="i" d="M298.239,568.374l.075-2.29,1.359.024q.328.491.657.982A2.149,2.149,0,0,1,298.239,568.374Z" transform="translate(-20.884 -25.305)"/><path class="n" d="M295.3,612.381c-.339-1.448-.679-2.9.531-4.147A6.554,6.554,0,0,1,295.3,612.381Z" transform="translate(-20.547 -29.673)"/><path class="j" d="M324.931,599.618c-5.885-1.028-8.513-4.523-8.867-12.352-.214-4.752-.015-9.521-.057-14.282-.022-2.567.872-4.4,3.652-4.665,2.826-.273,3.321,1.479,3.611,3.886.531,4.407,4.482,1.219,6.448,2.6l.083.376-.3.243c-5.657,1.962-6.733,1.552-8.239-3.221-.237-.75-.521-1.55-1.319-1.613-1.31-.1-1.241,1.026-1.242,1.874-.013,6.108-.241,12.231.115,18.318.229,3.9,2.687,6.432,6.775,7.009Q325.261,598.705,324.931,599.618Z" transform="translate(-22.721 -25.533)"/><path class="j" d="M325.9,598.056c-4.087-.576-6.546-3.106-6.775-7.009-.356-6.087-.128-12.21-.115-18.318,0-.848-.067-1.976,1.242-1.874.8.063,1.083.862,1.319,1.613,1.507,4.772,2.582,5.183,8.239,3.221a6.807,6.807,0,0,1-.944,4.514c-2.646-.428-5.923-1.974-7.053,1.852-1.858,6.286.135,11.093,4.538,12.377Q326.122,596.244,325.9,598.056Z" transform="translate(-23.027 -25.799)"/><path class="j" d="M328.993,584.619q-1.025,5.237-2.05,10.473c-3.324-1.879-3.051-5.072-2.979-8.177C324.064,582.7,325.065,582.253,328.993,584.619Z" transform="translate(-23.546 -27.078)"/><path class="j" d="M328.728,584.344c-3.928-2.366-4.929-1.917-5.029,2.3-.073,3.1-.345,6.3,2.979,8.177l.16.333-.236.285c-4.4-1.284-6.4-6.091-4.538-12.377,1.13-3.826,4.407-2.28,7.053-1.852Q328.922,582.775,328.728,584.344Z" transform="translate(-23.281 -26.802)"/><path class="n" d="M317.85,668.129q.421,0,.842-.018c.731,3.241,2.121,6.37,1.661,9.812l-1.392-.011c-.453-1.144.4-2.687-1.077-3.519l-.957.074h-.066l.912-2.9Q317.812,669.845,317.85,668.129Z" transform="translate(-22.814 -35.879)"/><path class="n" d="M331.294,575.425q.258-.57.515-1.139Z" transform="translate(-24.31 -26.155)"/><path class="a" d="M456.08,561.076c-.069,6.485-5.849,12.334-12.171,12.316-6.856-.02-12.942-5.758-12.906-12.172.038-6.867,5.858-12.968,12.257-12.848A12.8,12.8,0,0,1,456.08,561.076Z" transform="translate(-34.643 -23.469)"/><path class="c" d="M196.932,603.7c8.816-.131,17.636.8,26.452-.187,1.821-.205,3.037.672,3.136,2.809a47.809,47.809,0,0,0,.79,5.209c-.149,6.854,1.339,13.632.912,20.509-.18,2.9,1.918,4.93,3.329,7.159,3.266,5.161,6.215,10.4,6.93,16.642.263,2.3.025,4.351-2.058,5.418-2.548,1.3-3.354-1.245-4.341-2.685-8.591-12.531-16.688-25.3-19.116-40.74-.383-2.432-.982-5.052-4.638-6.449,4.588,6.292,2.875,12.412,1.6,18.634a45.106,45.106,0,0,0-.048,16,71.591,71.591,0,0,1-.215,21.777c-.252,1.676-.648,2.821-2.675,2.7-1.856-.109-3.5-.056-3.836-2.617-.586-4.411-2.081-8.776-2.12-13.169-.111-12.569-2.9-24.791-4.22-37.194A73.833,73.833,0,0,1,196.932,603.7Z" transform="translate(-10.343 -29.18)"/><path class="f" d="M257.819,658.225c1.245,3.663-1.552,5.917-3.019,8.634-1.8.12-2.316-.919-2.26-2.481-1.436-3.059-3.733-4.78-7.228-4.643l.037.049c.073-.7.272-1.521-.937-.931l.06.034a41.154,41.154,0,0,0-8.593-23.144c-1.719-2.175-2.92-4.456-2.127-7.336,1.28-.16,1.616-.988,1.731-2.158a45.793,45.793,0,0,1,1.076-8.288c1.258-4.338-1.036-3.663-3.616-2.963q-.609-4.445-1.219-8.89a44.079,44.079,0,0,1-.232-13.191c.343-2.588.572-4.646,4.051-3.928a2.169,2.169,0,0,0,2.632-1.784c1.719.558,1,1.974.917,3-2,23.841,3.919,45.569,17.343,65.325a23.125,23.125,0,0,1,1.4,2.772Z" transform="translate(-13.926 -27.494)"/><path class="m" d="M253.62,673.057c-.056,1.562.463,2.6,2.26,2.481.363,1.042.5,2.028-.678,2.68l-1.488.011c-1.955,1.173-2.256,3.326-3.07,5.173-1.77,1.976-2.38,4.79-4.694,6.382-2.292,1.577-4.052,2.081-4.368-1.647-.362-4.263.965-8.493.16-12.767-.2-1.037.495-1.59,1.559-1.693.731-.072,1.847-.005,2.115-.428C248.112,669.006,250.863,671.653,253.62,673.057Z" transform="translate(-15.005 -36.172)"/><path class="m" d="M200.086,685.8c1.236-2.07,2.584-3.7,5.293-1.948a2.813,2.813,0,0,0,3.008.125c2.636-1.649,2.911.27,3.438,2.079,1.645,5.65,1.322,6.132-4.549,6.086-4.18-.032-8.359-.14-12.538-.222-1.048-.021-2.216.006-2.469-1.328-.195-1.023.638-1.629,1.383-2.1,2-1.276,4.011-2.574,6.49-2.737.181,2.152,1.509,2.61,3.655,2.569C202.76,686.685,201.735,685.762,200.086,685.8Z" transform="translate(-9.898 -37.433)"/><path class="m" d="M233.155,618.153c2.58-.7,4.874-1.374,3.616,2.963A45.8,45.8,0,0,0,235.7,629.4c-.115,1.17-.451,2-1.731,2.158Z" transform="translate(-14.138 -30.648)"/><path class="q" d="M246.436,668.019c-.176,1.668.085,3.646-2.545,3.572-.96-.027-2.1-.412-1.927-1.345a3.622,3.622,0,0,1,3.633-3.075l-.061-.035c-.043.666-.182,1.43.937.932Z" transform="translate(-15.05 -35.778)"/><path class="g" d="M316.446,674.889c1.477.832.625,2.375,1.077,3.519-.358,3.77.778,7.347,1.421,10.988.569,3.231.012,5.353-4.068,5.588a27.258,27.258,0,0,1-11.592-1.554c4.96-.229,10.021.8,15.2-1.734-4.038,0-7.511.247-10.934-.058-4.885-.437-5.312-1.273-3.743-5.853.912-2.663,2-5.267,2.881-7.94.99-3,4.174-3.094,6.2-4.712,1.231-.982,1.54,1.353,2.536,1.828l.065,0C315.881,675.885,316.185,675.663,316.446,674.889Zm-1.8,9.435c-2.283-.437-4.588-1.132-6.69.718C310.22,685.264,312.549,686.267,314.643,684.324Z" transform="translate(-21.376 -36.375)"/><path class="q" d="M317.182,668q-.039,1.717-.079,3.433l-1.709-.534-2.655-.055c-1.491,1.166-1.921.07-2.324-1.085C310.895,666.691,313.487,666.017,317.182,668Z" transform="translate(-22.146 -35.751)"/><path class="n" d="M313.008,671.3l2.655.055A1.683,1.683,0,0,1,313.008,671.3Z" transform="translate(-22.414 -36.21)"/><path class="g" d="M353.34,671.9c2.233-2.409,3.94-5.6,7.949-1.727,4.609,4.452-2.865,4.386-1.84,7.477-.226-.161.022.151.181.11,2.371-.6,3.758-4.843,5.359-3.792,4.087,2.684,9.206,4.43,11.474,9.405l.047-.031a40.161,40.161,0,0,1-11.014,1.035c-5.273-.156-10.273-1.724-15.429-2.437-1.471-.2-3.036-1.06-3.187,1.447l.027-.032c-1.226-1.881-.7-3.991-.594-5.968.162-2.927-.584-7.279,4.951-4.268C352.162,673.6,352.838,672.644,353.34,671.9Z" transform="translate(-25.845 -35.905)"/><path class="g" d="M376.552,685.09c2,1.183-.091,2.375.007,3.561-9.778,2.888-19.058-.495-28.455-2.311-.436-.084-.742-.831-1.109-1.269l-.027.032c1.348-.383,2.6.1,3.9.364,6.347,1.286,12.674,2.77,19.231,2.415,2.524-.136,5.071-.195,6.5-2.823Z" transform="translate(-25.934 -37.625)"/><path class="q" d="M347.178,666.95c2.018-3.329,5.332-.743,7.866-1.718.763,2.531-1.7,3.653-2.424,5.534C349.3,671.634,348.03,669.591,347.178,666.95Z" transform="translate(-25.956 -35.575)"/><path class="m" d="M337.357,497.123c1.092,9.267,2.017,18.556,3.318,27.794,1.786,12.684,1.909,12.665-11.143,11.944-.74-.041-1.486.022-2.23.038L313.1,534.894c-.521-2.607,1.582-4.647,1.545-7.148.124-3.1.177-6.2.394-9.3.161-2.294-.778-4.753.951-6.841a12.6,12.6,0,0,0,2.619-8.72,30.274,30.274,0,0,0,6.888-12.035c.341-1.05.166-2.47,1.872-2.493,1.371.7,1.945,2.465,3.654,2.709l-.048-.049a11.578,11.578,0,0,0,6.318,6.3Z" transform="translate(-22.415 -17.25)"/><path class="g" d="M356.493,545.531l-.986.845L354.49,547l-1.624.219-6.089.658q-.2-.752-.394-1.5,0-1.447,0-2.893l.1-5.219c.119-9.263-2.168-18.263-3.014-27.422a29.591,29.591,0,0,1-.147-8.28c4.251,2.833,8.232,5.6,12.344,8.161a4.387,4.387,0,0,1,2.011,3.685c.989,7.933.714,16,3.023,23.8C361.738,541.715,358.263,543.282,356.493,545.531Z" transform="translate(-25.53 -18.721)"/><path class="k" d="M295.732,554.865c-3.056,1.572-6.791.57-10.251,3.083.721-5.616,5.375-6.24,8.475-8.427,2.884-.541,4.035-2.428,4.689-5.184,2.04-8.592,3.05-17.2,1.464-25.976-.535-2.743-.679-5.642-1.7-8.189-1.395-3.478.18-5.352,2.79-6.863,6.32-3.657,8.1-2.779,9.165,4.352l.508,19.359-2.759,9.12q-2.657,4.424-5.315,8.846c-.842.766-1.8,1.46-1.664,2.806l-.065.071c-1.14.52-2.118,1.151-1.821,2.653l.03-.039C296.64,550.767,297.59,553.948,295.732,554.865Z" transform="translate(-19.562 -18.58)"/><path class="j" d="M346.142,552.608l6.089-.658c2.643,4.075,4.493,8.361,3.573,13.384l.016-.021c-2.785.3-4.136,3.225-7,3.616-5.99.817-10.931-2.719-11.77-8.745a10.55,10.55,0,0,1,8.7-11.972q0,1.447,0,2.893c-6.245,3.978-7.226,10.18-2.243,14.013a6.247,6.247,0,0,0,6.712.566c2.17-.981,3.144-2.955,2.953-5.491-.171-2.3-1.569-3.375-3.448-4.167-2.106-.887-3.015.8-3.94,2.005-1.174,1.533-.107,3.033,1.045,3.819,1.95,1.332,1.53-.848,1.983-1.686s1.036-.98,1.739-.319a1.417,1.417,0,0,1,.122,2,3.781,3.781,0,0,1-3.842,1.7,3.9,3.9,0,0,1-3.556-3.4C342.51,556.954,344.5,554.857,346.142,552.608Z" transform="translate(-24.895 -23.452)"/><path class="j" d="M350.5,598.687c-2.109,2.988-4.244,2.374-4.848-.722a53.248,53.248,0,0,1,.006-20.363c.605-3.113,2.735-3.646,4.83-.721l-.285.289c-2.823-.394-3.283,1.637-3.338,3.594-.136,4.888-.051,9.782-.043,14.673,0,2.239,1.067,3.3,3.363,2.93Q350.348,598.526,350.5,598.687Z" transform="translate(-25.696 -26.224)"/><path class="j" d="M351.128,577.1c2.4,2.82,2.408,18.977.01,21.8-.1-.106-.206-.212-.311-.316q.009-10.6.016-21.2Z" transform="translate(-26.334 -26.447)"/><path class="g" d="M299.665,564.771l-1.359-.024-.023.031c-.8-3.377,2.505-5.692,2.31-8.912l-.03.039c1.619-.193,2.741-.724,1.821-2.653l.065-.071c2.451,1.154.209,2.954.608,4.391q-.488,1.8-.977,3.594C300.776,562.037,300.353,563.493,299.665,564.771Z" transform="translate(-20.875 -23.967)"/><path class="j" d="M359.925,582.359a39.712,39.712,0,0,1-.027,17.77A37.555,37.555,0,0,1,359.925,582.359Z" transform="translate(-27.165 -26.991)"/><path class="j" d="M303.55,557.248c-.4-1.437,1.843-3.238-.608-4.391-.139-1.345.822-2.04,1.664-2.806C307.5,554.89,307.263,556.47,303.55,557.248Z" transform="translate(-21.37 -23.643)"/><path class="i" d="M310.73,539.128l2.759-9.12q.457,1.026.915,2.054c.037,2.5-2.066,4.542-1.545,7.148Z" transform="translate(-22.178 -21.566)"/><path class="b" d="M450.519,370.829c-1.57,8.24-3.187,17.446-5.116,26.586-1.094,5.189-.952,10.638-3.62,15.519-6.611,12.093-16.529,21.289-26.424,30.521a7.2,7.2,0,0,1-1.15.686c-3.672,2.293-7.326,1.863-10.285-.949-9.276-8.811-18.318-17.876-24.615-29.189-3.77-6.772-4.2-14.474-5.692-21.869-1.2-5.963-2.248-11.959-3.45-17.923-.636-3.161.1-5.332,3.224-6.917,12.377-6.286,24.336-13.226,34.2-23.229,1.993-2.02,4.176-2.03,6.333-.1A122.157,122.157,0,0,0,446.5,364.711C448.777,365.718,450.81,366.9,450.519,370.829Zm-38.993-.7a16.9,16.9,0,0,0-17.112,16.923,17.969,17.969,0,0,0,17.466,17.435,17.053,17.053,0,0,0,17.081-17A17.7,17.7,0,0,0,411.527,370.128Z" transform="translate(-28.317 -2.136)"/><path class="r" d="M269.631,531.755c-5.055-.323-10.077-.287-15.007,1.136-1.948.562-3.42,1.406-4.154,3.517-2.136,6.14-4.521,12.2-5.941,18.563-3.49-1.254-2.8-4.614-3.645-7.2a5.354,5.354,0,0,0,.017-5.334c-1.92-8.014,1.533-15.505,2.355-23.25.546-5.143,1.733-10.224,2.745-15.311.492-2.478-1.412-3.176-2.9-3.888-2.9-1.392-2.924-3.282-1.714-5.818,1.787-3.748,3.11-7.486,8.546-7.633,3.078-.082,3.918-3.056,3.568-6.136-.16-1.4-2.984-2.975.082-4.349,2.815-1.262,5.533-3.207,8.766-1.13,7.587,4.871,15.23,3.963,22.891.217.221-.108.307-.49.456-.744,7.1-.847,12.386,2.43,16.415,7.779a26.978,26.978,0,0,1,5.233,12.558c-.139,1.136.05,2.408-1.273,3.048-3.986-1.715-10.306.037-13.14,3.6a5.683,5.683,0,0,0-1.276,5.37c1.105,4.151,2.014,8.354,3,12.536-.185,5.734.461,11.485-1.074,17.185-.786,2.919-1.728,3.126-4.127,1.651-3.367-2.071-6.736-4.284-10.873-4.606l-.386-.166-.419.018A14.136,14.136,0,0,0,269.631,531.755Z" transform="translate(-14.882 -15.762)"/><path class="k" d="M362.219,506.724c-2.787,1.649-5.4.9-7.966-.566a104.918,104.918,0,0,1-14.289-9.8c-.7-.572-1.124-1.881-2.472-1.288l-.069.2a10.775,10.775,0,0,0-6.318-6.3l.048.049c.04-2.448-1.474-3.377-3.618-3.691-1.829-.9-3.7-1.726-5.475-2.727-1.4-.791-3.265-1.735-3.272-3.351-.015-3.973-1.682-7.2-4.484-10.737,4.106.424,5.558,3.775,8.429,4.6.982.854,1.843,2.163,2.973,2.466,2.292.616,3.583-.116,1.908-2.658l-1.127-2.609c.195-.879-.09-2.521,1.61-1.014a12.987,12.987,0,0,1,3.93,6.787c1.1,4.527,4.1,7.287,8,9.359,4.942,3.87,10.293,6.147,16.835,5.546,8.512-.783,10.664,2.061,8.078,10.2A40.046,40.046,0,0,1,362.219,506.724Z" transform="translate(-22.549 -15.192)"/><path class="m" d="M318.9,462.818c-2.083-4.489.238-8.892.492-13.307.1-1.8,1.65.276,2.56.473,4.217,3.573,8.925,3,13.473,1.131,3.012-1.239,4.1-.157,4.713,2.478,1.243,5.332.679,10.729-.026,16-.374,2.793-.5,5.554-.661,8.336-.046.3-.092.6-.138.895L338.794,480a6.458,6.458,0,0,1-4.21-4.723,21.43,21.43,0,0,0-3.888-7.927c-1.076-1.264-2.24-2.815-3.973-2.435-2.164.474-1.125,2.726-1.595,4.163l.016-.007c-1.46.212-1.275-1.87-2.592-1.856C321.265,465.809,320.774,463.742,318.9,462.818Z" transform="translate(-22.936 -13.148)"/><path class="k" d="M285.112,470.388c-6.287,4.375-15.732,3.894-19.451-.991,1.675.027,3.032-.319,2.716-2.461-.434-2.94-.86-5.882-1.38-8.807a1.947,1.947,0,0,0-.971-1.326c-1.555-.545-3.35-.067-3.89-2.711-.762-3.724-.589-7.106,1.524-10.206,1.864-2.737,6.742-1.819,9.1,1.515.933,1.321.955,3.308,3.529,3.392,1.92.064,1.478,2.015.624,3.069-1.336,1.648-3.692,2.522-3.019,5.417.788,3.388,1.827,6.579,4.457,9.018C280.315,468.125,282.369,469.829,285.112,470.388Z" transform="translate(-17.099 -12.473)"/><path class="g" d="M297.024,458.368c-1.041-3.932,2.08-6.017,4.122-8.262,4.458-4.9,11.334-5.782,16.817-9.493-4,6.145-2.294,13.185-4.086,19.5C308.287,459.266,302.707,458.316,297.024,458.368Z" transform="translate(-20.736 -12.301)"/><path class="i" d="M325.948,470.936c.47-1.437-.569-3.689,1.595-4.163,1.733-.38,2.9,1.171,3.973,2.435a21.43,21.43,0,0,1,3.888,7.927,6.458,6.458,0,0,0,4.21,4.723c.271.775.939.709,1.563.734a1.721,1.721,0,0,1,.1.837q-.024.912-.048,1.823c-3.895-2.071-6.895-4.832-8-9.359a12.987,12.987,0,0,0-3.93-6.787c-1.7-1.508-1.415.134-1.61,1.014Z" transform="translate(-23.756 -15.006)"/><path class="n" d="M314.664,529.421l-.915-2.054q-.254-9.681-.508-19.359h1.471c.17,1.012.341,2.023.55,3.266,2.123-2.086,1.674-4.509,1.923-6.746l1.444.034a12.6,12.6,0,0,1-2.619,8.721c-1.729,2.089-.79,4.547-.951,6.841C314.842,523.218,314.788,526.322,314.664,529.421Z" transform="translate(-22.439 -18.925)"/><path class="g" d="M317.23,503.762c-.249,2.237.2,4.66-1.923,6.746-.21-1.243-.38-2.254-.55-3.266q-.54-3.535-1.082-7.07c1.324-.641,1.135-1.913,1.274-3.048C316.447,499.082,316.36,501.586,317.23,503.762Z" transform="translate(-22.484 -18.158)"/><path class="i" d="M328.589,473.425c1.674,2.542.384,3.273-1.908,2.658-1.13-.3-1.991-1.612-2.973-2.466Z" transform="translate(-23.523 -15.702)"/><path class="h" d="M329.06,487.265c2.144.315,3.658,1.243,3.618,3.691-1.708-.244-2.282-2.013-3.654-2.709C329.036,487.92,329.048,487.592,329.06,487.265Z" transform="translate(-24.074 -17.136)"/><path class="i" d="M323.074,469.345c1.318-.013,1.132,2.068,2.592,1.856C323.088,472.97,323.193,471,323.074,469.345Z" transform="translate(-23.458 -15.279)"/><path class="k" d="M216.967,581.289c.53,2.747,3.188,3.163,5.045,3.844,3.619,1.329,4.061,3.476,3.993,6.991-.085,4.424-1.717,6.455-6.015,6.818-8.476.714-16.9,1.358-25.07-2.028-2.211-.916-3.348-2.1-3.384-4.5-.091-6.082-.287-12.163-.44-18.245l8.249-1a1.992,1.992,0,0,1,.679.109c4.844,4.431,11.308,5.457,17.018,8.068Z" transform="translate(-9.779 -26.039)"/><path class="k" d="M237.729,570.77c.145,4.7-1.576,9.016-2.713,13.454-6.437,1.2-11.636-2.227-17.126-4.566l.076.052c.158-1-.746-1.1-1.283-1.525-4.262-3.37-9.96-3.677-14.373-6.722-.255-1.713-4.753-3.049-.459-5.165l-.088-.063c3.944,3.575,4.11,3.567,7.755.3.146-.13.956.437,1.3-.266l-.056-.056c-.866,1.206-.157,1.641.93,1.89l-.062-.089a2.7,2.7,0,0,0,1.848,2.788l-.085-.086c1.348,2.271,3.624,3.092,5.993,3.576,1.449.3,1.266-.572.627-1.429,1.909-.841,2.808,1.8,4.611,1.333,3.665,2.237,4.568-.623,5.385-3.091,1.414-4.269,2.592-8.616,3.87-12.931l.948-.753,2.314,7.115q.277,1.743.555,3.487Z" transform="translate(-10.703 -24.407)"/><path class="i" d="M200.971,544.144c1.825-1.608,2.4-.509,2.682,1.233-1.172.841-2.93,1.533.065,2.452a22.61,22.61,0,0,0,12.473.144l1.069.878c-4.478,2.311-9.075,1.851-13.721.619C200.565,548.682,199.448,547.063,200.971,544.144Z" transform="translate(-10.733 -22.95)"/><path class="i" d="M236.733,558.153c-1.277,4.315-2.455,8.662-3.87,12.931-.817,2.468-1.72,5.328-5.385,3.091a5.07,5.07,0,0,0,4.164-4.494,38.231,38.231,0,0,1,4.288-12.486Z" transform="translate(-13.55 -24.383)"/><path class="n" d="M211.027,567.075c-.349.7-1.158.136-1.3.266-3.645,3.265-3.811,3.273-7.755-.3,1.264-1.08,1.916.447,2.872.679.87.212,1.439.954,2.137-.731C208.014,564.484,208.4,564.642,211.027,567.075Z" transform="translate(-10.906 -25.211)"/><path class="n" d="M221.569,574.39c.638.857.821,1.725-.627,1.429-2.369-.484-4.645-1.305-5.993-3.576C217.631,571.5,218.982,574.841,221.569,574.39Z" transform="translate(-12.252 -25.932)"/><path class="n" d="M201.7,567.174c-4.294,2.115.2,3.452.459,5.164l-1.362.179a1.992,1.992,0,0,0-.679-.109c-.669-1.425-1.65-2.753-1.57-4.424.041-.87.2-1.874,1.254-2.02C200.622,565.85,201.851,565.562,201.7,567.174Z" transform="translate(-10.551 -25.282)"/><path class="n" d="M214.828,572.029a2.7,2.7,0,0,1-1.848-2.788C214.645,569.477,215.431,570.293,214.828,572.029Z" transform="translate(-12.046 -25.632)"/><path class="n" d="M212.9,569.122c-1.087-.248-1.8-.683-.93-1.89C213.015,567.5,213.754,567.92,212.9,569.122Z" transform="translate(-11.902 -25.424)"/><path class="j" d="M219.1,549.344l-1.069-.878,1.58-.347q.285.281.567.565Z" transform="translate(-12.571 -23.443)"/><path class="k" d="M217.954,545.4l-1.58.347A22.61,22.61,0,0,1,203.9,545.6c-2.995-.919-1.236-1.611-.065-2.452,3.634.209,1.967-2.812,2.712-4.375.225-.471.959-.822-.03-1.178a12.263,12.263,0,0,1-1.708-.464c-3.3-1.8-2.824-5.02-2.552-7.882.22-2.32-.636-6.073,2.382-6.438,3.48-.419,7.119-2.539,10.969,1.528,3.265,3.45,2.794,4.019-.653,6.049-3.35,1.971-2.5,9.7,1.135,12.724C216.881,543.773,217.9,544.172,217.954,545.4Z" transform="translate(-10.916 -20.724)"/><path class="k" d="M235.222,528.6q1.483-7.874,2.967-15.746c.455-2.011.837-4.04,1.395-6.021.29-1.034-.264-3.093,1.993-2.374,1.425.454,2.458,1.18,2.047,3.239-1.354,6.8-2.421,13.661-3.628,20.493-.719,4.069-1.494,8.128-2.244,12.192C233.6,537.158,235.5,532.644,235.222,528.6Z" transform="translate(-14.332 -18.902)"/><path class="i" d="M241.756,570.653l-.026-2.744c1.357-1.406,1.092-2.556-.555-3.487l-2.314-7.115,1.871-1.01c.843,2.588.156,5.948,3.645,7.2C244.36,566.2,243.9,568.733,241.756,570.653Z" transform="translate(-14.73 -24.29)"/><path class="k" d="M323.054,447.323c-3.958-3.161-.96-5.811.631-8.564,4.2.037,7.29-1.483,8.6-5.8A2.339,2.339,0,0,1,335,431.246c1.834.273,1.835,1.543,1.568,2.944-.99,3.6-1.587,7.145.876,10.495,1.21,1.647-.1,2.307-1.384,2.885C331.686,449.535,327.341,450.014,323.054,447.323Z" transform="translate(-23.252 -11.327)"/><path class="q" d="M337.22,424.3c-.625-.324-2.176.079-1.76-1.2a5.237,5.237,0,0,1,3.067-3.529c1.129-.368,1.443.772,1.374,1.687C339.781,422.869,339.086,424.089,337.22,424.3Z" transform="translate(-24.734 -10.113)"/><path class="n" d="M236.9,440.046l-4.445.371c-2.537-.168-5.205-.029-6.643-2.8l.81-.8c3.439,3.849,7.846,1.652,12.565,1.428Z" transform="translate(-13.377 -11.907)"/><path class="q" d="M243.926,481.934c1.551-.135,1.727-1.834,2.827-2.478,1.146-.67,1.743-2.953,3.4-1.887,1.475.95,2.112,2.875,2.214,4.7.1,1.717-.966,2.713-2.572,3.158-.43.118-.868.21-1.3.317-4.8,1.184-5.323.734-4.505-3.874Z" transform="translate(-15.228 -16.102)"/><path class="e" d="M342.838,481.1a1.721,1.721,0,0,0-.1-.837c.86-6,2.114-11.941,1.992-18.068-.1-4.889.257-9.761-2.763-14.118-.631-.91-1.6-2.523-.437-3.631.469-.448,1.9.107,2.89.206,2.813,5.114,8.27,6.379,12.894,8.888,16.714,9.067,19.837,25.481,14.443,42.22-.065.2-.469.3-.719.441-.777-.186-.654-.814-.675-1.362-.229-6.086-2.456-8.788-8.536-7.989C354.361,487.836,348.485,485.247,342.838,481.1Z" transform="translate(-25.314 -12.681)"/><path class="k" d="M236.977,438.6l2.288-1.8c-4.719.224-9.126,2.421-12.565-1.428-1.174-6.535,6.541-13.878,12.96-12.335,3.127.751,5.033,4.421,3.9,8.241-1.008,3.4-2.443,6.681-5.729,8.655Z" transform="translate(-13.457 -10.457)"/><path class="k" d="M167.937,511.949c1.269,4.31,2.387,8.634,1.329,13.177-.227,1.762-.458,3.524-.68,5.287-1.065,8.463.517,11.205,8.93,13.087,3.418.765,4.592,2.262,5.024,5.379a84.558,84.558,0,0,0,2.022,8.294c-9.486-3.1-18.141-6-24.4-13.344-1.619-6.194,1.718-11.282,4.086-16.406,2.173-4.7,2.8-8.4-1.908-11.927-2.633-1.967-2.9-5.311-3.2-8.583,2.016.546,2,2.288,2.595,3.6C163.468,514.345,164.934,514.678,167.937,511.949Z" transform="translate(-6.467 -19.172)"/><path class="i" d="M341.778,482.2c.046-.3.092-.6.138-.895C341.87,481.6,341.824,481.9,341.778,482.2Z" transform="translate(-25.396 -16.518)"/><path class="j" d="M357.571,565.74c.921-5.022-.93-9.309-3.573-13.384l1.624-.219.913.406C359.285,556.755,361.02,561.045,357.571,565.74Z" transform="translate(-26.663 -23.859)"/><path class="h" d="M356.723,552.472l-.913-.406,1.017-.624Q356.775,551.957,356.723,552.472Z" transform="translate(-26.85 -23.787)"/><path class="f" d="M273.6,655.216c-.826.506-1.594,3-2.487-.031-.571-1.936-1.464-3.777-2.211-5.66a223.252,223.252,0,0,1-4.069-50.626q.017-.475.033-.95,1.7-10.69,3.392-21.382l.208-1.865c1.9-4.186,2.947-8.452,1.219-12.978l.762-.526c3.212,3.828.523,8.495,1.8,12.6q-.009.921-.021,1.841l.1,3.511q-.016.937-.032,1.875.617,31.957,1.229,63.914C273.587,648.363,273.576,651.789,273.6,655.216Z" transform="translate(-17.411 -24.798)"/><path class="j" d="M263.022,599.808q-.016.476-.033.95c-2.452-.239-2.6-2-2.6-3.888.006-3.113.134-6.235-.055-9.336-.139-2.277-.758-4.593-3.72-4.63-3.23-.04-3.248,2.454-3.3,4.7-.078,3.259-.048,6.523-.028,9.784.013,2.152-.923,3.357-3.165,3.382-2.274.025-3.172-1.21-3.164-3.352.018-4.448-.062-8.9.039-13.341a5.947,5.947,0,0,1,2.564-4.94l.281.292c-2.375,5.042-.315,10.519-1.5,15.71-.27,1.183-.111,3.441,1.777,3.482,2,.044,1.257-1.988,1.3-3.161.116-2.97-.135-5.961.112-8.914.229-2.742,1.024-5.239,4.563-5.558,3.649-.329,5.306,1.708,5.75,4.8.419,2.917.248,5.914.42,8.872C262.366,596.391,261.7,598.251,263.022,599.808Z" transform="translate(-15.568 -26.658)"/><path class="j" d="M283.014,538.313c4.137.323,7.506,2.535,10.873,4.606,2.4,1.475,3.341,1.267,4.127-1.651,1.535-5.7.889-11.451,1.074-17.186.287-1.239-.28-2.652.765-3.735,1.587,8.776.576,17.384-1.464,25.976-.654,2.755-1.8,4.643-4.689,5.184-1.863-1.649-2.891-3.473.243-4.6,2.011-.726,1.145-1.355.221-1.885-2.207-1.267-4.164-3.585-7-2.917C283.613,542.938,282.961,541.142,283.014,538.313Z" transform="translate(-19.306 -20.565)"/><path class="j" d="M273.16,582.479q.016-.937.032-1.875c3.773.525,4.008,3.55,4.207,6.324.234,3.256.043,6.542.094,9.813.016,1.065.262,2.261,1.608,2.227,1.217-.031,1.086-1.216,1.092-2.062.026-4.165.347-8.367-.091-12.485-.419-3.94-2.6-6.867-7.015-7.327q.011-.92.021-1.841a9.493,9.493,0,0,1,8.816,8.754c.2,4.281.04,8.578.055,12.867.008,2.391-.935,4.232-3.491,4.193-2.627-.04-2.712-2.33-2.765-4.253-.088-3.252.012-6.509-.042-9.762C275.648,585.12,275.627,583.106,273.16,582.479Z" transform="translate(-18.277 -26.255)"/><path class="k" d="M283.517,667.871c-1.5,1.624,1.383,5.677-3.13,5.631l-5.356-.191-.167-3.482c.672-1.14,1.376-2.271,1-3.694C278.541,666.165,281.634,664.357,283.517,667.871Z" transform="translate(-18.461 -35.629)"/><path class="k" d="M260.908,665.882l.013.075c.3-4.8,3.248-5.428,7.164-4.528l1.649,6.6C266.52,668.541,263.743,667.075,260.908,665.882Z" transform="translate(-17.015 -35.15)"/><path class="j" d="M291.337,605.414l1.471.769c-.874,3.745-1.665,7.546-4.8,10.212-1.638,1.395-3.463,2.366-5.95,1.618C288.852,616.348,290.422,611.117,291.337,605.414Z" transform="translate(-19.207 -29.381)"/><path class="j" d="M249.862,578.736a7.6,7.6,0,0,1,11.173-1.834c-4.069-1.241-7.429.677-10.893,2.124Z" transform="translate(-15.87 -26.253)"/><path class="i" d="M300.464,556.177c.2,3.22-3.112,5.535-2.31,8.912-1.9-1.1-.678-3.057-1.237-4.526C298.775,559.646,297.825,556.465,300.464,556.177Z" transform="translate(-20.747 -24.278)"/><path class="n" d="M273.019,538.427a14.135,14.135,0,0,1,8.154,1.607C278.345,540.052,275.38,540.767,273.019,538.427Z" transform="translate(-18.27 -22.434)"/><path class="j" d="M268.42,576.263l-.208,1.865c-1.237.021-2.342,1.316-3.918.238C265.116,576.529,266.975,576.754,268.42,576.263Z" transform="translate(-17.366 -26.36)"/><path class="f" d="M267.115,558.111c.9.212,2.149,1,1.721,1.53-.98,1.224-1.594-.436-2.389-.84Z" transform="translate(-17.589 -24.478)"/><path class="f" d="M266.318,558.691c-.417-.421-1.623-.6-.876-1.417.55-.6,1.18.119,1.544.727Z" transform="translate(-17.46 -24.368)"/><path class="f" d="M270.194,561.627c-.337-.362-.9-.779-.246-1.22.686-.462.81.25,1.008.694Z" transform="translate(-17.921 -24.701)"/><path class="m" d="M272.884,670.275q.083,1.741.166,3.482c1.682,1.138,3.593.384,5.381.644.573,1.31-.489,3.923,2.76,3.092.995-.255.866,1.328,1.077,2.067a27.346,27.346,0,0,1,1.249,10.9c-4.8,1.47-9.708.63-14.549.486-2.516-.075-2.118-2.209-1.676-4.1.975-4.173,3.335-7.786,4.537-11.937a9.73,9.73,0,0,0-3.881,5.755c-1.025,3.767-3.217,4.851-6.828,4.359-1.357-.185-2.937-.558-4.321.881,2.434.916,4.827.255,7.132.513.706.079,1.611-.068,1.595.995a1.362,1.362,0,0,1-1.442,1.376,53.362,53.362,0,0,1-6.681-.092c-1.7-.192-1.943-1.355-1.34-2.969,1.656-4.434,3.054-8.965,4.755-13.381,1.153-2.989,3.928-2.493,6.136-1.9A8.765,8.765,0,0,0,272.884,670.275Zm9.047,19.155q-.02-.671-.039-1.34c-4.41.11-8.832-.442-13.225,1.34Z" transform="translate(-16.482 -36.074)"/><path class="f" d="M255.108,679.07l1.488-.011a3.437,3.437,0,0,1-1.63,3.662Q255.037,680.9,255.108,679.07Z" transform="translate(-16.399 -37.013)"/><path class="j" d="M309.137,578.986c-.979,1.751-2.728,1.888-4.508,1.849a1.518,1.518,0,0,1-1.572-2.083c.594-2.3,2.574-1.39,4.047-1.5C308.161,577.172,309.211,577.394,309.137,578.986Z" transform="translate(-21.375 -26.453)"/><path class="i" d="M280.43,674.836c-1.788-.26-3.7.495-5.381-.644l5.357.191Q280.428,674.609,280.43,674.836Z" transform="translate(-18.48 -36.509)"/><path class="h" d="M317.891,675.12c-.262.774-.566,1-.957.074Z" transform="translate(-22.821 -36.605)"/><path class="h" d="M246.884,668.045c-1.119.5-.98-.266-.937-.932C247.157,666.524,246.957,667.349,246.884,668.045Z" transform="translate(-15.461 -35.755)"/><path class="h" d="M200.993,686.105c1.649-.038,2.674.886,3.712,2.519-2.147.041-3.474-.417-3.655-2.569Z" transform="translate(-10.805 -37.739)"/><path class="h" d="M315.217,685.588c-2.094,1.942-4.423.939-6.69.718C310.629,684.456,312.933,685.151,315.217,685.588Z" transform="translate(-21.95 -37.638)"/><path class="h" d="M376.6,684.872c-1.432,2.629-3.979,2.687-6.5,2.823-6.557.355-12.884-1.128-19.231-2.415-1.3-.263-2.548-.747-3.9-.364.151-2.507,1.717-1.651,3.187-1.447,5.156.714,10.156,2.281,15.429,2.437A40.161,40.161,0,0,0,376.6,684.872Z" transform="translate(-25.934 -37.439)"/><path class="h" d="M333.047,491.328a10.775,10.775,0,0,1,6.318,6.3A11.578,11.578,0,0,1,333.047,491.328Z" transform="translate(-24.491 -17.557)"/><path class="j" d="M346.533,552.942c-1.645,2.249-3.632,4.346-2.869,7.537a3.9,3.9,0,0,0,3.556,3.4,3.781,3.781,0,0,0,3.842-1.7,1.417,1.417,0,0,0-.122-2c-.7-.661-1.286-.518-1.739.319s-.033,3.018-1.983,1.686c-1.152-.786-2.219-2.287-1.045-3.819.925-1.207,1.835-2.893,3.94-2.005,1.88.792,3.277,1.871,3.448,4.167.19,2.536-.783,4.51-2.953,5.491a6.247,6.247,0,0,1-6.712-.566c-4.984-3.833-4-10.035,2.243-14.013Q346.336,552.191,346.533,552.942Z" transform="translate(-25.287 -23.787)"/><path class="h" d="M301.339,518.216c-1.045,1.083-.479,2.5-.765,3.735-.99-4.181-1.9-8.384-3-12.535a5.683,5.683,0,0,1,1.276-5.37c2.833-3.563,9.154-5.315,13.14-3.6q.539,3.536,1.081,7.071h-1.471c-1.068-7.131-2.845-8.01-9.165-4.353-2.61,1.51-4.185,3.385-2.79,6.863C300.659,512.574,300.8,515.473,301.339,518.216Z" transform="translate(-20.792 -18.433)"/><path class="i" d="M302.655,553.26c.92,1.929-.2,2.46-1.821,2.653C300.537,554.411,301.515,553.78,302.655,553.26Z" transform="translate(-21.147 -23.976)"/><path class="j" d="M350.45,577.42q-.007,10.6-.016,21.2c-2.3.367-3.361-.693-3.365-2.932-.008-4.891-.093-9.786.043-14.673C347.167,579.057,347.628,577.026,350.45,577.42Z" transform="translate(-25.941 -26.474)"/><path class="h" d="M414.354,373.319a17.7,17.7,0,0,1,17.434,17.355,17.053,17.053,0,0,1-17.081,17,17.969,17.969,0,0,1-17.466-17.435A16.9,16.9,0,0,1,414.354,373.319Zm.5,32.649a14.916,14.916,0,0,0,15.289-15.141,16.118,16.118,0,0,0-16.19-16.1,15.456,15.456,0,0,0-15.086,15.572A15.745,15.745,0,0,0,414.858,405.968Z" transform="translate(-31.144 -5.327)"/><path class="i" d="M201.057,573.265l1.362-.179c4.413,3.046,10.111,3.352,14.373,6.723.537.425,1.44.523,1.283,1.525C212.365,578.722,205.9,577.7,201.057,573.265Z" transform="translate(-10.812 -26.03)"/><path class="j" d="M241.443,565.362c1.647.93,1.912,2.08.555,3.487Q241.721,567.1,241.443,565.362Z" transform="translate(-14.997 -25.23)"/><path class="j" d="M273.087,577.306c4.413.46,6.6,3.386,7.015,7.327.438,4.119.117,8.32.091,12.485-.005.846.125,2.031-1.092,2.063-1.346.034-1.592-1.162-1.608-2.227-.051-3.272.14-6.557-.094-9.813-.2-2.774-.435-5.8-4.207-6.324Z" transform="translate(-18.277 -26.468)"/><path class="i" d="M283.423,691.523H270.159c4.393-1.782,8.815-1.23,13.225-1.34Q283.4,690.853,283.423,691.523Z" transform="translate(-17.974 -38.166)"/><path class="k" d="M415.046,406.13a15.745,15.745,0,0,1-15.987-15.674,15.456,15.456,0,0,1,15.086-15.572,16.118,16.118,0,0,1,16.19,16.1A14.916,14.916,0,0,1,415.046,406.13Zm-1.1-3.04,6.906-19.27c-2.251.1-2.621,1.436-3.335,2.3-5.031,6.052-5.015,6.066-11.949.8C408.558,392.7,411.024,397.455,413.943,403.091Z" transform="translate(-31.333 -5.489)"/><path class="b" d="M414.7,404.124c-2.919-5.635-5.385-10.393-8.378-16.169,6.934,5.261,6.918,5.247,11.949-.8.714-.86,1.085-2.2,3.335-2.3Z" transform="translate(-32.085 -6.522)"/><path class="j" d="M281.559,537.029l-.978,34.53,20.819,5.5,6.026-30.874-10.078-6.868Z"/><path class="j" d="M320.263,523.167l-9.052,6.126-.729,7.6,3.566,11.21,2,22.6,7.721,14.609,8.466-6.576-2.429-27.1,3.777-9.289V529.293H320.263Z"/><path class="j" d="M254.81,547l.9,36.359,12.51,12.116,5.435-5.417,2.419-26.351-7.854-12.982Z"/><path class="j" d="M251.054,547.814l-19.134-2.186L227.712,558.2v19.907l13.549,2.813,5.968-1.631.578-19.561Z"/><path class="j" d="M250.1,530.006l-4.619,2.526.729,4.577,3.89,10.1,6.448-4.4Z"/></g></svg>