<svg xmlns="http://www.w3.org/2000/svg" xmlns:xlink="http://www.w3.org/1999/xlink" width="514.361" height="292.766" viewBox="0 0 514.361 292.766"><defs><style>.a,.ab,.b,.h,.s{fill:#008bcc;}.a{opacity:0.118;}.b{opacity:0.282;}.c,.j,.p{fill:#524f9c;}.c{opacity:0.103;}.d,.t,.u,.x{fill:#fff;}.e{fill:#fce3b5;}.f,.i,.m,.r{fill:#231f20;}.f{font-size:10px;}.f,.o,.x{font-family:Prompt-Light, Prompt;font-weight:300;}.f,.h,.i,.j,.k,.m,.o,.p,.r{letter-spacing:-0.02em;}.f,.h,.m{opacity:0.781;}.g{fill:rgba(21,139,204,0.11);}.h,.o{font-size:11px;}.h,.i,.j,.k,.m,.p,.t{font-family:Prompt-Medium, Prompt;font-weight:500;}.i{font-size:9px;}.j{font-size:7px;}.k,.o{fill:#343434;}.k,.m,.p{font-size:8px;}.l{text-decoration:underline;}.n,.q,.v{fill:none;}.n{stroke:#e8e8e8;}.q{stroke:#707070;opacity:0.245;}.r{font-size:6px;font-family:Prompt-Regular, Prompt;}.t{font-size:12px;}.w{fill:#353362;}.x{font-size:16px;}.y{fill:#928fe8;}.aa,.ab,.z{stroke:none;}.aa{fill:#d5d5d5;}.ac{filter:url(#a);}</style><filter id="a" x="36.638" y="93.049" width="401.926" height="133.5" filterUnits="userSpaceOnUse"><feOffset dy="3" input="SourceAlpha"/><feGaussianBlur stdDeviation="3" result="b"/><feFlood flood-opacity="0.161"/><feComposite operator="in" in2="b"/><feComposite in="SourceGraphic"/></filter></defs><g transform="translate(-671.362 -1560.951)"><path class="a" d="M-1167.508,4344.531s14.813-49.066,51.211-18.754,77.047,53.887,36.293,72.129-67.434,16.422-78.434,0S-1167.508,4344.531-1167.508,4344.531Z" transform="translate(1839 -2721)"/><path class="b" d="M-1167.508,4344.531s14.813-49.066,51.211-18.754,77.047,53.887,36.293,72.129-67.434,16.422-78.434,0S-1167.508,4344.531-1167.508,4344.531Z" transform="translate(5161.109 3714.801) rotate(101)"/><path class="c" d="M-731.391,4183c-34.293-9.7-98.789-3.285-129.871,24.426s-83.168,105.445-116.23,122.184-68.414,52.59-32.371,75.1,184.723,70.039,204.949,33.836,2.645-74.3,26.457-84.434,59.184,6.484,86.879-18.973S-697.1,4192.7-731.391,4183Z" transform="translate(1867 -2598)"/><g transform="translate(717 1660)"><g class="ac" transform="matrix(1, 0, 0, 1, -45.64, -99.05)"><g class="d" transform="translate(45.64 99.05)"><path class="z" d="M 382.0657043457031 115 L 1.860090613365173 115 C 1.122840642929077 115 0.4999906122684479 114.084098815918 0.4999906122684479 113 L 0.4999906122684479 2.5 C 0.4999906122684479 1.415899991989136 1.122840642929077 0.5 1.860090613365173 0.5 L 382.0657043457031 0.5 C 382.8029479980469 0.5 383.42578125 1.415899991989136 383.42578125 2.5 L 383.42578125 113 C 383.42578125 114.084098815918 382.8029479980469 115 382.0657043457031 115 Z"/><path class="aa" d="M 1.860076904296875 1 C 1.4541015625 1 1 1.641502380371094 1 2.5 L 1 113 C 1 113.8584976196289 1.4541015625 114.5 1.860076904296875 114.5 L 382.0657043457031 114.5 C 382.4716796875 114.5 382.92578125 113.8584976196289 382.92578125 113 L 382.92578125 2.5 C 382.92578125 1.641502380371094 382.4716796875 1 382.0657043457031 1 L 1.860076904296875 1 M 1.860076904296875 0 L 382.0657043457031 0 C 383.0929870605469 0 383.92578125 1.119300842285156 383.92578125 2.5 L 383.92578125 113 C 383.92578125 114.3806991577148 383.0929870605469 115.5 382.0657043457031 115.5 L 1.860076904296875 115.5 C 0.832794189453125 115.5 0 114.3806991577148 0 113 L 0 2.5 C 0 1.119300842285156 0.832794189453125 0 1.860076904296875 0 Z"/></g></g><g transform="translate(6 -11)"><g transform="translate(0)"><rect class="e" width="79" height="20" rx="5" transform="translate(0)"/><text class="f" transform="translate(13 12)"><tspan x="0" y="0">In Progress</tspan></text></g></g><g transform="translate(327.157 32)"><g transform="translate(0)"><g class="g"><path class="z" d="M 98.80457305908203 20.70468902587891 L 3.030810356140137 20.70468902587891 C 1.911010265350342 20.70468902587891 0.9999969601631165 19.53050231933594 0.9999969601631165 18.08723449707031 L 0.9999969601631165 3.617448329925537 C 0.9999969601631165 2.174181699752808 1.911010265350342 0.9999949932098389 3.030810356140137 0.9999949932098389 L 98.80457305908203 0.9999949932098389 C 99.92436981201172 0.9999949932098389 100.8353805541992 2.174181699752808 100.8353805541992 3.617448329925537 L 100.8353805541992 18.08723449707031 C 100.8353805541992 19.53050231933594 99.92436981201172 20.70468902587891 98.80457305908203 20.70468902587891 Z"/><path class="ab" d="M 3.030815124511719 1.999998092651367 C 2.544219970703125 1.999998092651367 2.000007629394531 2.691713333129883 2.000007629394531 3.617441177368164 L 2.000007629394531 18.08724212646484 C 2.000007629394531 19.01296997070312 2.544219970703125 19.70468521118164 3.030815124511719 19.70468521118164 L 98.80457305908203 19.70468521118164 C 99.29116058349609 19.70468521118164 99.83537292480469 19.01296997070312 99.83537292480469 18.08724212646484 L 99.83537292480469 3.617441177368164 C 99.83537292480469 2.691713333129883 99.29116058349609 1.999998092651367 98.80457305908203 1.999998092651367 L 3.030815124511719 1.999998092651367 M 3.030815124511719 -1.9073486328125e-06 L 98.80457305908203 -1.9073486328125e-06 C 100.4784469604492 -1.9073486328125e-06 101.8353729248047 1.619585037231445 101.8353729248047 3.617441177368164 L 101.8353729248047 18.08724212646484 C 101.8353729248047 20.08509826660156 100.4784469604492 21.70468521118164 98.80457305908203 21.70468521118164 L 3.030815124511719 21.70468521118164 C 1.35693359375 21.70468521118164 7.62939453125e-06 20.08509826660156 7.62939453125e-06 18.08724212646484 L 7.62939453125e-06 3.617441177368164 C 7.62939453125e-06 1.619585037231445 1.35693359375 -1.9073486328125e-06 3.030815124511719 -1.9073486328125e-06 Z"/></g><text class="h" transform="translate(14.843 15)"><tspan x="0" y="0">Start: 1/3/2021</tspan></text></g></g><g transform="translate(294.6 58.045)"><g transform="translate(0 0)"><g class="g"><path class="z" d="M 67.50151062011719 20.70468139648438 L 2.070602655410767 20.70468139648438 C 1.932312726974487 20.70468139648438 1.694312691688538 20.53267097473145 1.474352717399597 20.14839172363281 C 1.172892689704895 19.62173080444336 1.00000274181366 18.8704719543457 1.00000274181366 18.08724212646484 L 1.00000274181366 3.617451667785645 C 1.00000274181366 2.834211587905884 1.172892689704895 2.082951545715332 1.474352717399597 1.556291699409485 C 1.694312691688538 1.172011613845825 1.932312726974487 1.000001668930054 2.070602655410767 1.000001668930054 L 67.50151062011719 1.000001668930054 C 67.63980102539062 1.000001668930054 67.87779998779297 1.172011613845825 68.09776306152344 1.556291699409485 C 68.39921569824219 2.082951545715332 68.57210540771484 2.834211587905884 68.57210540771484 3.617451667785645 L 68.57210540771484 18.08724212646484 C 68.57210540771484 18.87048149108887 68.39921569824219 19.62174224853516 68.09776306152344 20.14839172363281 C 67.87779998779297 20.53267097473145 67.63980102539062 20.70468139648438 67.50151062011719 20.70468139648438 Z"/><path class="ab" d="M 2.373336791992188 1.999998092651367 C 2.223442077636719 2.239267349243164 2 2.79791259765625 2 3.617441177368164 L 2 18.08723068237305 C 2 18.90676879882812 2.223442077636719 19.46541595458984 2.373336791992188 19.70468521118164 L 67.19877624511719 19.70468521118164 C 67.34866333007812 19.46541595458984 67.57210540771484 18.90676879882812 67.57210540771484 18.08723068237305 L 67.57210540771484 3.617441177368164 C 67.57210540771484 2.79791259765625 67.34866333007812 2.239267349243164 67.19877624511719 1.999998092651367 L 2.373336791992188 1.999998092651367 M 2.070594787597656 -1.9073486328125e-06 L 67.50151062011719 -1.9073486328125e-06 C 68.64507293701172 -1.9073486328125e-06 69.57210540771484 1.619586944580078 69.57210540771484 3.617441177368164 L 69.57210540771484 18.08723068237305 C 69.57210540771484 20.08509635925293 68.64507293701172 21.70468521118164 67.50151062011719 21.70468521118164 L 2.070594787597656 21.70468521118164 C 0.9270401000976562 21.70468521118164 0 20.08509635925293 0 18.08723068237305 L 0 3.617441177368164 C 0 1.619586944580078 0.9270401000976562 -1.9073486328125e-06 2.070594787597656 -1.9073486328125e-06 Z"/></g><text class="h" transform="translate(14.4 14.954)"><tspan x="0" y="0">2 Adults</tspan></text></g></g><g transform="translate(369.12 58.045)"><g transform="translate(0 0)"><g class="g"><path class="z" d="M 58.02975082397461 20.70468139648438 L 1.797815442085266 20.70468139648438 C 1.569527745246887 20.6045970916748 0.9999983310699463 19.68113708496094 0.9999983310699463 18.08724212646484 L 0.9999983310699463 3.617451667785645 C 0.9999983310699463 2.023546695709229 1.569527745246887 1.10008692741394 1.797815442085266 1.000001668930054 L 58.02975082397461 1.000001668930054 C 58.25803756713867 1.10008692741394 58.82755661010742 2.023546695709229 58.82755661010742 3.617451667785645 L 58.82755661010742 18.08724212646484 C 58.82755661010742 19.68113708496094 58.25803756713867 20.6045970916748 58.02975082397461 20.70468139648438 Z"/><path class="ab" d="M 2.287445068359375 2.000001907348633 C 2.154308319091797 2.301103591918945 2 2.861423492431641 2 3.617441177368164 L 2 18.08723068237305 C 2 18.84325790405273 2.154312133789062 19.40357971191406 2.287445068359375 19.70468139648438 L 57.54011535644531 19.70468139648438 C 57.67324829101562 19.40357971191406 57.82755661010742 18.84325790405273 57.82755661010742 18.08723068237305 L 57.82755661010742 3.617441177368164 C 57.82755661010742 2.861423492431641 57.67324829101562 2.301103591918945 57.54011535644531 2.000001907348633 L 2.287445068359375 2.000001907348633 M 1.78057861328125 1.9073486328125e-06 L 58.04697799682617 1.9073486328125e-06 C 59.03036880493164 1.9073486328125e-06 59.82755661010742 1.61958122253418 59.82755661010742 3.617441177368164 L 59.82755661010742 18.08723068237305 C 59.82755661010742 20.08510208129883 59.03036880493164 21.70468139648438 58.04697799682617 21.70468139648438 L 1.78057861328125 21.70468139648438 C 0.7971992492675781 21.70468139648438 0 20.08510208129883 0 18.08723068237305 L 0 3.617441177368164 C 0 1.61958122253418 0.7971992492675781 1.9073486328125e-06 1.78057861328125 1.9073486328125e-06 Z"/></g><text class="h" transform="translate(13.88 14.954)"><tspan x="0" y="0">3 Kids</tspan></text></g></g><g transform="translate(223.315 32)"><g class="g"><path class="z" d="M 91.67169189453125 20.70467948913574 L 2.81201434135437 20.70467948913574 C 1.829801797866821 20.70467948913574 1.000001788139343 19.50604248046875 1.000001788139343 18.08724212646484 L 1.000001788139343 3.617441654205322 C 1.000001788139343 2.198641538619995 1.829801797866821 1.000004172325134 2.81201434135437 1.000004172325134 L 91.67169189453125 1.000004172325134 C 92.65390014648438 1.000004172325134 93.48370361328125 2.198641538619995 93.48370361328125 3.617441654205322 L 93.48370361328125 18.08724212646484 C 93.48370361328125 19.50604248046875 92.65390014648438 20.70467948913574 91.67169189453125 20.70467948913574 Z"/><path class="ab" d="M 2.81201171875 1.999994277954102 C 2.533195495605469 1.999994277954102 2 2.629888534545898 2 3.617448806762695 L 2 18.08723449707031 C 2 19.07479476928711 2.533195495605469 19.70468902587891 2.81201171875 19.70468902587891 L 91.67167663574219 19.70468902587891 C 91.95049285888672 19.70468902587891 92.48370361328125 19.07479476928711 92.48370361328125 18.08723449707031 L 92.48370361328125 3.617448806762695 C 92.48370361328125 2.629888534545898 91.95049285888672 1.999994277954102 91.67167663574219 1.999994277954102 L 2.81201171875 1.999994277954102 M 2.81201171875 -5.7220458984375e-06 L 91.67167663574219 -5.7220458984375e-06 C 93.22471618652344 -5.7220458984375e-06 94.48370361328125 1.61958122253418 94.48370361328125 3.617448806762695 L 94.48370361328125 18.08723449707031 C 94.48370361328125 20.08510208129883 93.22471618652344 21.70468902587891 91.67167663574219 21.70468902587891 L 2.81201171875 21.70468902587891 C 1.25897216796875 21.70468902587891 0 20.08510208129883 0 18.08723449707031 L 0 3.617448806762695 C 0 1.61958122253418 1.25897216796875 -5.7220458984375e-06 2.81201171875 -5.7220458984375e-06 Z"/></g><text class="h" transform="translate(14.685 15)"><tspan x="0" y="0">210,000 EGP</tspan></text></g><text class="i" transform="translate(5.318 31.696)"><tspan x="0" y="0">Health Tender Ahmed Araby</tspan></text><text class="j" transform="translate(5.752 43.696)"><tspan x="0" y="0">Ahmed Araby</tspan></text><text class="k" transform="translate(5.339 57.696)"><tspan class="l" x="0" y="0">Alpha Team</tspan><tspan y="0" xml:space="preserve"> , </tspan><tspan class="l" y="0">Ahmed Mohamed</tspan></text><text class="m" transform="translate(306 15)"><tspan x="0" y="0">Medical Individual</tspan></text><line class="n" x2="383.926" transform="translate(0 73.75)"/><g transform="translate(34 82)"><text class="o" transform="translate(13 12)"><tspan x="-3.003" y="0">7</tspan></text><text class="p" transform="translate(13 22)"><tspan x="-13.12" y="0">Access</tspan></text></g><g transform="translate(177.937 81)"><text class="o" transform="translate(18.063 12)"><tspan x="0" y="0">4</tspan></text><text class="j" transform="translate(19.063 23)"><tspan x="-18.858" y="0">Discussions</tspan></text></g><g transform="translate(312.926 83)"><text class="o" transform="translate(22.074 12)"><tspan x="0" y="0">2</tspan></text><text class="j" transform="translate(25.074 23)"><tspan x="-25.126" y="0">Submitted bids</tspan></text></g><line class="q" y2="32" transform="translate(123.911 79.75)"/><line class="q" y2="32" transform="translate(279.99 79.75)"/><text class="r" transform="translate(333.985 23.696)"><tspan x="0" y="0">ID: 123987656</tspan></text></g><g transform="translate(947.848 1560.951)"><rect class="s" width="86.188" height="33.461" rx="5"/><text class="t" transform="translate(51.96 18.577)"><tspan x="-17.49" y="0">Filters</tspan></text><g transform="translate(12.25 9.986)"><g transform="translate(0 0)"><path class="u" d="M80.021,205.8l.528.007a1.78,1.78,0,0,1,.5.211l.206.185a1.754,1.754,0,0,1,.277.473,6.22,6.22,0,0,1,.032.921,1.582,1.582,0,0,1-.13.719,1.407,1.407,0,0,1-.356.438.136.136,0,0,0-.076.059.258.258,0,0,0-.108.075c-.23.149-.45.312-.665.481a.964.964,0,0,0-.2.143,6.5,6.5,0,0,0-.532.388h0c-.361.242-.712.5-1.059.762a2.829,2.829,0,0,0-.37.266.825.825,0,0,0-.187.136,2.881,2.881,0,0,1-.344.236.637.637,0,0,0-.382.7s0,.009,0,.013l-.036.53a4.149,4.149,0,0,0-.038.528l-.041.53a4.1,4.1,0,0,0-.034.527,4.46,4.46,0,0,0-.044.53l-.007.158a.336.336,0,0,0-.016.159l-.01.211a4.9,4.9,0,0,0-.044.529l-.013.238a.315.315,0,0,0-.015.158l-.007.132a.149.149,0,0,0-.025.105,1.55,1.55,0,0,1-.241.413l-.262.216a1.44,1.44,0,0,1-.527.167c-.176,0-.352,0-.528-.007a1.267,1.267,0,0,1-.57-.186l-.217-.183a1.5,1.5,0,0,1-.246-.42.151.151,0,0,0-.025-.106l-.034-.528a.519.519,0,0,0-.019-.186,1.25,1.25,0,0,0-.024-.343,2.874,2.874,0,0,0-.031-.476c-.008-.149-.013-.3-.026-.446-.006-.07.018-.091.084-.094.105,0,.21-.016.315-.024l.056-.007.209-.015.076.005.041.528a4.962,4.962,0,0,0,.042.528,4.776,4.776,0,0,0,.033.529,2.668,2.668,0,0,0,.053.528c.052.134.165.147.286.146h.527c.121,0,.233-.013.284-.146a2.588,2.588,0,0,0,.054-.528,4.058,4.058,0,0,0,.033-.529,4.241,4.241,0,0,0,.044-.528,4.582,4.582,0,0,0,.034-.53,4.846,4.846,0,0,0,.043-.528l.052-.742.01-.185c.044-.307.053-.616.071-.924l.015-.263a.654.654,0,0,0,.018-.142.3.3,0,0,1,.225-.346c.015-.005.026-.023.039-.035l.139-.1c.366-.253.728-.51,1.08-.782a1.329,1.329,0,0,0,.25-.179,1.42,1.42,0,0,0,.255-.186,4.356,4.356,0,0,0,.48-.345l.046-.031c.369-.254.735-.515,1.091-.788a1.607,1.607,0,0,0,.259-.187l.053-.034c.1-.067.191-.133.285-.2a.321.321,0,0,0,.153-.242l.008-.1q0-.159,0-.318,0-.066,0-.132,0-.04,0-.08a1.076,1.076,0,0,0-.049-.529c-.082-.177-.245-.18-.4-.18H72.925c-.753,0-1.505,0-2.258,0-.15,0-.3.013-.377.18a1.06,1.06,0,0,0-.049.529q0,.265,0,.529a.436.436,0,0,0,.263.417.479.479,0,0,0,.148.114,3.1,3.1,0,0,0,.378.293c.271.214.544.426.813.643.035.028.109.039.078.115-.12.151-.239.3-.361.453-.028.035-.042.092-.106.081a4.1,4.1,0,0,0-.42-.325.916.916,0,0,0-.29-.206,1.01,1.01,0,0,0-.269-.231c-.044-.036-.086-.074-.132-.107a2.148,2.148,0,0,1-.738-.748,3.982,3.982,0,0,1-.09-1.556,1.468,1.468,0,0,1,.284-.525l.207-.186a1.579,1.579,0,0,1,.5-.21l.527-.008h8.99Z" transform="translate(-69.483 -205.801)"/><path class="u" d="M99.214,377.4h1.19l.3.009a.463.463,0,0,1,.282.257c.018.3-.071.428-.348.492a.33.33,0,0,0-.161,0,1.035,1.035,0,0,0-.263,0,3.13,3.13,0,0,0-.53,0,.257.257,0,0,0-.13,0,.222.222,0,0,0-.135,0,1.021,1.021,0,0,0-.262,0c-.187-.021-.187-.021-.187.161,0,.135,0,.271,0,.406v1.031a.4.4,0,0,1-.348.426c-.271-.024-.381-.139-.407-.427q0-.092,0-.184v-.662q0-.106,0-.212t0-.21v-.055c0-.056,0-.113.006-.169.014-.107-.036-.13-.128-.106a.239.239,0,0,0-.133,0h-.134a.934.934,0,0,0-.261,0,.266.266,0,0,0-.133,0,.219.219,0,0,0-.135,0,1,1,0,0,0-.262,0,.236.236,0,0,0-.133,0h-.134l-.256,0-.084-.016a.386.386,0,0,1-.216-.5.462.462,0,0,1,.293-.236l.026,0H98.1c.1.027.143-.014.129-.118-.007-.056,0-.113-.007-.169q0-.172,0-.344v-.186q0-.079,0-.157t0-.133q0-.118,0-.237c.023-.175-.035-.362.072-.525a.448.448,0,0,1,.307-.15l.183.046.112.1a.8.8,0,0,1,.074.466c0,.065,0,.13.005.195s0,.106,0,.159q0,.146,0,.291,0,.2,0,.4v.185c-.006.221-.04.191.181.183Z" transform="translate(-95.498 -370.897)"/></g><rect class="v" width="12" height="12" transform="translate(-0.097 0.064)"/></g></g><g transform="translate(28 -134)"><rect class="w" width="250" height="51" rx="4" transform="translate(689 1718)"/><g transform="translate(407.088 1629)"><text class="x" transform="translate(357 120)"><tspan x="0" y="0">Market place</tspan></text></g><path class="y" d="M13.25,18a2,2,0,0,1-2-2V13.25a2,2,0,0,1,2-2H16a2,2,0,0,1,2,2V16a2,2,0,0,1-2,2ZM2,18a2,2,0,0,1-2-2V13.25a2,2,0,0,1,2-2H4.75a2,2,0,0,1,2,2V16a2,2,0,0,1-2,2ZM13.25,6.75a2,2,0,0,1-2-2V2a2,2,0,0,1,2-2H16a2,2,0,0,1,2,2V4.75a2,2,0,0,1-2,2ZM2,6.75a2,2,0,0,1-2-2V2A2,2,0,0,1,2,0H4.75a2,2,0,0,1,2,2V4.75a2,2,0,0,1-2,2Z" transform="translate(732.718 1732.398)"/></g></g></svg>