<svg xmlns="http://www.w3.org/2000/svg" width="15.152" height="15.152" viewBox="0 0 15.152 15.152"><defs><style>.a{fill:#524f9c;fill-rule:evenodd;}</style></defs><path class="a" d="M4.735,9.47c.474,0,.663.284.284.663L3.6,11.554a5.671,5.671,0,0,0,3.977,1.7,5.728,5.728,0,0,0,5.682-4.925.958.958,0,0,1,1.894.189v.189a7.573,7.573,0,0,1-7.576,6.44,7.919,7.919,0,0,1-5.4-2.178L.663,14.489c-.379.379-.663.189-.663-.284V9.944A.447.447,0,0,1,.474,9.47Zm5.682-3.788c-.474,0-.663-.284-.284-.663L11.554,3.6a5.671,5.671,0,0,0-3.977-1.7A5.728,5.728,0,0,0,1.894,6.819a.9.9,0,0,1-.947.758A.9.9,0,0,1,0,6.629V6.44A7.573,7.573,0,0,1,7.576,0a7.919,7.919,0,0,1,5.4,2.178L14.489.663c.379-.379.663-.189.663.284V5.209a.447.447,0,0,1-.474.474Z"/></svg>