<svg xmlns="http://www.w3.org/2000/svg" xmlns:xlink="http://www.w3.org/1999/xlink" width="675.179" height="445.581" viewBox="0 0 675.179 445.581"><defs><style>.a,.ab,.q,.t{fill:#524f9c;}.a{opacity:0.194;}.b,.p{fill:#fff;}.b{stroke:#d9d9d9;}.c{fill:#585858;font-size:8px;}.c,.i{font-family:Helvetica;letter-spacing:0.03em;}.aa,.d,.h,.j,.k,.l,.m,.n,.w{fill:none;}.d,.h,.w{stroke:#707070;}.d{opacity:0.25;}.e{fill:rgba(82,79,156,0.2);}.f{fill:#919191;opacity:0.253;}.g{fill:rgba(246,175,33,0.31);}.i{fill:#898989;font-size:6px;}.j{stroke:#78d9a3;}.j,.k,.l,.m,.n{stroke-width:2px;}.k{stroke:#524f9c;}.l{stroke:#ec7176;}.m{stroke:#f6af21;}.n{stroke:#008bcc;}.o{fill:#008bcc;opacity:0.064;}.p{stroke:#efefef;}.q{font-size:18px;}.q,.r,.v{font-family:Prompt-Medium, Prompt;font-weight:500;letter-spacing:-0.02em;}.r{fill:#343434;font-size:13px;}.s{text-decoration:underline;}.t{font-size:14px;font-family:Prompt-Regular, Prompt;}.u{fill:#928fe8;opacity:0.3;}.v{fill:#231f20;font-size:12px;}.w{opacity:0.125;}.x{fill:#524ea0;}.y{fill:#f3f5f5;}.ab,.ac,.z{stroke:none;}.ac{fill:#f6af21;}.ad{filter:url(#g);}.ae{filter:url(#e);}.af{filter:url(#c);}.ag{filter:url(#a);}</style><filter id="a" x="313.179" y="189.58" width="362" height="256" filterUnits="userSpaceOnUse"><feOffset dy="3" input="SourceAlpha"/><feGaussianBlur stdDeviation="3" result="b"/><feFlood flood-opacity="0.161"/><feComposite operator="in" in2="b"/><feComposite in="SourceGraphic"/></filter><filter id="c" x="345.128" y="349.896" width="31.656" height="31.656" filterUnits="userSpaceOnUse"><feOffset dy="3" input="SourceAlpha"/><feGaussianBlur stdDeviation="3" result="d"/><feFlood flood-opacity="0.161"/><feComposite operator="in" in2="d"/><feComposite in="SourceGraphic"/></filter><filter id="e" x="345.128" y="378.258" width="31.656" height="31.656" filterUnits="userSpaceOnUse"><feOffset dy="3" input="SourceAlpha"/><feGaussianBlur stdDeviation="3" result="f"/><feFlood flood-opacity="0.161"/><feComposite operator="in" in2="f"/><feComposite in="SourceGraphic"/></filter><filter id="g" x="52.18" y="64.58" width="415" height="176" filterUnits="userSpaceOnUse"><feOffset dy="3" input="SourceAlpha"/><feGaussianBlur stdDeviation="3" result="h"/><feFlood flood-opacity="0.161"/><feComposite operator="in" in2="h"/><feComposite in="SourceGraphic"/></filter></defs><g transform="translate(-719.82 -1678.42)"><path class="a" d="M.22,48.309S25.2-34.454,86.6,16.676,216.56,107.57,147.818,138.34s-113.744,27.7-132.3,0S.22,48.309.22,48.309Z" transform="translate(1155.236 1761.566) rotate(9)"/><path class="a" d="M.162,35.629S18.589-25.41,63.869,12.3s95.847,67.036,45.149,89.729-83.888,20.429-97.572,0S.162,35.629.162,35.629Z" transform="translate(1112.988 1879.202) rotate(101)"/><g transform="translate(1042.2 1854.507)"><g transform="translate(0 19.345)"><g class="ag" transform="matrix(1, 0, 0, 1, -322.38, -195.43)"><g class="b" transform="translate(322.18 195.58)"><rect class="z" width="344" height="238" rx="5"/><rect class="aa" x="0.5" y="0.5" width="343" height="237" rx="4.5"/></g></g><g transform="translate(29.359 160.464)"><g transform="translate(0 0)"><g transform="translate(0 5.807)"><text class="c" transform="translate(253.441 5.878)"><tspan x="0" y="0">150</tspan></text><line class="d" x2="283.943" transform="translate(0 12.099)"/></g><g class="af" transform="matrix(1, 0, 0, 1, -351.74, -355.9)"><g class="e" transform="translate(354.13 355.9)"><path class="z" d="M 6.82825756072998 11.65650463104248 C 4.165947437286377 11.65650463104248 1.999997615814209 9.490564346313477 1.999997615814209 6.828254222869873 C 1.999997615814209 4.16594409942627 4.165947437286377 2.000004291534424 6.82825756072998 2.000004291534424 C 9.490567207336426 2.000004291534424 11.65651798248291 4.16594409942627 11.65651798248291 6.828254222869873 C 11.65651798248291 9.490564346313477 9.490567207336426 11.65650463104248 6.82825756072998 11.65650463104248 Z"/><path class="ab" d="M 6.82825756072998 4.000003814697266 C 5.268747329711914 4.000003814697266 3.999997138977051 5.268754005432129 3.999997138977051 6.828254222869873 C 3.999997138977051 8.387754440307617 5.268747329711914 9.656503677368164 6.82825756072998 9.656503677368164 C 8.387767791748047 9.656503677368164 9.656517028808594 8.387754440307617 9.656517028808594 6.828254222869873 C 9.656517028808594 5.268754005432129 8.387767791748047 4.000003814697266 6.82825756072998 4.000003814697266 M 6.82825756072998 3.814697265625e-06 C 10.59939765930176 3.814697265625e-06 13.65651798248291 3.057114601135254 13.65651798248291 6.828254222869873 C 13.65651798248291 10.59939384460449 10.59939765930176 13.65650463104248 6.82825756072998 13.65650463104248 C 3.057117462158203 13.65650463104248 -2.86102294921875e-06 10.59939384460449 -2.86102294921875e-06 6.828254222869873 C -2.86102294921875e-06 3.057114601135254 3.057117462158203 3.814697265625e-06 6.82825756072998 3.814697265625e-06 Z"/></g></g></g><g transform="translate(0 28.362)"><g transform="translate(0 0.827)"><text class="c" transform="translate(253.441 10.496)"><tspan x="0" y="0">150</tspan></text><line class="d" x2="285.309" transform="translate(0 17.08)"/><rect class="f" width="94" height="8" rx="4" transform="translate(37.441 0.496)"/></g><g class="ae" transform="matrix(1, 0, 0, 1, -351.74, -384.26)"><g class="g" transform="translate(354.13 384.26)"><path class="z" d="M 6.82825756072998 11.65650463104248 C 4.165947437286377 11.65650463104248 1.999997615814209 9.490564346313477 1.999997615814209 6.828254222869873 C 1.999997615814209 4.16594409942627 4.165947437286377 2.000004291534424 6.82825756072998 2.000004291534424 C 9.490567207336426 2.000004291534424 11.65651798248291 4.16594409942627 11.65651798248291 6.828254222869873 C 11.65651798248291 9.490564346313477 9.490567207336426 11.65650463104248 6.82825756072998 11.65650463104248 Z"/><path class="ac" d="M 6.82825756072998 4.000003814697266 C 5.268747329711914 4.000003814697266 3.999997138977051 5.268754005432129 3.999997138977051 6.828254222869873 C 3.999997138977051 8.387754440307617 5.268747329711914 9.656503677368164 6.82825756072998 9.656503677368164 C 8.387767791748047 9.656503677368164 9.656517028808594 8.387754440307617 9.656517028808594 6.828254222869873 C 9.656517028808594 5.268754005432129 8.387767791748047 4.000003814697266 6.82825756072998 4.000003814697266 M 6.82825756072998 3.814697265625e-06 C 10.59939765930176 3.814697265625e-06 13.65651798248291 3.057114601135254 13.65651798248291 6.828254222869873 C 13.65651798248291 10.59939384460449 10.59939765930176 13.65650463104248 6.82825756072998 13.65650463104248 C 3.057117462158203 13.65650463104248 -2.86102294921875e-06 10.59939384460449 -2.86102294921875e-06 6.828254222869873 C -2.86102294921875e-06 3.057114601135254 3.057117462158203 3.814697265625e-06 6.82825756072998 3.814697265625e-06 Z"/></g></g></g></g><rect class="f" width="95" height="9" rx="4.5" transform="translate(65.8 160.149)"/></g><g transform="translate(19.447)"><g transform="translate(14.718 60.581)"><g transform="translate(0)"><g transform="translate(0)"><line class="h" y2="91.317"/><line class="h" x1="279.651" transform="translate(0 91.317)"/></g><g transform="translate(31.293 94.849)"><text class="i" transform="translate(0 5)"><tspan x="0" y="0">W1</tspan></text><text class="i" transform="translate(73.555 5)"><tspan x="0" y="0">W2</tspan></text><text class="i" transform="translate(145.747 5)"><tspan x="0" y="0">W3</tspan></text><text class="i" transform="translate(219.302 5)"><tspan x="0" y="0">W4</tspan></text></g></g></g><path class="j" d="M2658-1113.422l84.759,11.077,82.483-58.628h78.39" transform="translate(-2627.972 1236.985)"/><path class="k" d="M2658-1143.416l77.057-35.5,86.3-18.834,87.054-29.163" transform="translate(-2632.755 1282.744)"/><path class="l" d="M2658-1101.876l82.956-44.5,77.012,12.857h82.587" transform="translate(-2627.973 1234.25)"/><path class="m" d="M2654.766-1136.127l90.032-37.614h78.552l79.248-72.277" transform="translate(-2626.173 1246.018)"/><text class="i" transform="translate(4.78 140.572)"><tspan x="0" y="0">5</tspan></text><text class="i" transform="translate(7 121.267)"><tspan x="-6.854" y="0">10</tspan></text><text class="i" transform="translate(7 101.961)"><tspan x="-6.854" y="0">15</tspan></text><text class="i" transform="translate(7 82.655)"><tspan x="-6.854" y="0">25</tspan></text><path class="n" d="M2658-1131.241l86.983-31.317h156.589" transform="translate(-2629.338 1277.017)"/></g></g><g transform="translate(719.82 1678.42)"><path class="o" d="M-2168.366,4225.113c-58.673-45.244-166.661-52.9-200.685-28.534s-83.656,45.32-71.475,110.262,50.827,131.694,95.608,149.617,168.208,46.316,176.551,0S-2109.694,4270.356-2168.366,4225.113Z" transform="translate(2455.813 -4182.968)"/><g transform="translate(60.85 70.728)"><g class="ad" transform="matrix(1, 0, 0, 1, -60.85, -70.73)"><g class="p" transform="translate(61.18 70.58)"><rect class="z" width="397" height="158"/><rect class="aa" x="0.5" y="0.5" width="396" height="157"/></g></g><text class="q" transform="translate(16.454 28.134)"><tspan x="0" y="0">Client name</tspan></text><text class="r" transform="translate(14.722 56.774)"><tspan class="s" x="0" y="0">Alpha Team</tspan><tspan y="0" xml:space="preserve"> , </tspan><tspan class="s" y="0">Ahmed Mohamed</tspan></text><text class="t" transform="translate(29.33 99.852)"><tspan x="0" y="0">Mail</tspan><tspan x="0" y="15"></tspan></text><text class="t" transform="translate(251.33 97.852)"><tspan x="0" y="0">Phone</tspan><tspan x="0" y="15"></tspan></text><rect class="f" width="120" height="11" rx="5" transform="translate(29.33 109.852)"/><rect class="f" width="120" height="11" rx="5" transform="translate(251.33 109.852)"/></g><g transform="translate(0 25.697)"><rect class="u" width="206" height="39" transform="translate(216.18 -0.117)"/><text class="v" transform="translate(82.18 23.884)"><tspan x="0" y="0">Individual</tspan></text><text class="v" transform="translate(290.18 23.884)"><tspan x="0" y="0">Corporate</tspan></text><line class="w" x1="225.141" transform="translate(0.214 0.433)"/><line class="w" x1="225.141" transform="translate(0 38.537)"/></g></g><g transform="translate(394.047 1345.854)"><circle class="x" cx="33.244" cy="33.244" r="33.244" transform="translate(600.501 535.146)"/><path class="y" d="M-328.007,585.309c-2.027-.408-2.539-1.748-.323-1.957,2.665-.251,3.716-1.522,4.726-3.54,1-2,2.833-2.586,5.005-2.572,4.32.026,8.641-.048,12.962-.108,3.91-.055,7.8-.13,9.339,4.615.812,2.5,3.89.253,5.04,2.342-.168,1.606-2.729,1.3-2.6,3.116-2.386.185-5.074-.424-7.261,2.91,3.259-.509,6.814,2.368,7.249-2.923,2.717.439,2.64,2.7,2.743,4.581a38.32,38.32,0,0,1-.35,6.44c-.655,5.7-.692,5.7-5.309,2.711-1.075-.7-26.168-.56-27.211.147-4.532,3.071-4.493,3.067-5.172-2.535-.417-3.435-1.418-6.866.307-10.228,1.519.972,2.918,2.011,4.908,2.151,1.467.1,2.933.306,3.2-1.291.253-1.488-1.537-1.746-2.491-1.724A6.551,6.551,0,0,1-328.007,585.309Zm17.193-1.991c2.823,0,5.647.059,8.467-.031,1.059-.033,2.615.545,3-.946a2.607,2.607,0,0,0-1.852-3.131,36.962,36.962,0,0,0-18.577.054,2.679,2.679,0,0,0-1.767,2.776c.124,1.655,1.691,1.223,2.757,1.248C-316.127,583.352-313.47,583.309-310.814,583.318Zm-12.978,12.059.094.5h26.632l-.009-.5Z" transform="translate(943.795 -22.973)"/></g></g></svg>