<svg xmlns="http://www.w3.org/2000/svg" width="22.968" height="22.937" viewBox="0 0 22.968 22.937"><defs><style>.a{fill:#524f9c;}</style></defs><g transform="translate(-60.967 -112.024)"><path class="a" d="M72.83,122.972c-.043,1.246-.043,1.246,1.156,1.246,1.617,0,3.234,0,4.851,0a1.884,1.884,0,0,1,2.12,1.937c.017.191.04.306.249.4,1.792.8,2.118,2.353.8,3.844.3.232.625.442.9.7,1.09,1.016,1.057,2.349,1.007,3.682-.008.209-.173.177-.3.177l-6.035,0c-.166,0-.319,0-.315-.23a5.2,5.2,0,0,1,.506-3.035,3.891,3.891,0,0,1,1.428-1.266,2.27,2.27,0,0,1-.768-2.276,2.02,2.02,0,0,1,1.343-1.532c.475-.156.506-.4.4-.791a1.009,1.009,0,0,0-1.008-.839c-2.011-.021-4.023-.009-6.034-.02-.277,0-.33.122-.318.359.014.275.007.552,0,.828a.346.346,0,0,0,.2.377c1.909,1,2.189,2.291.836,3.915,1.821.886,2.039,2.5,1.931,4.261-.014.222-.115.251-.3.25q-3.017-.005-6.035,0c-.159,0-.325.023-.32-.221a5.44,5.44,0,0,1,.441-2.934,3.8,3.8,0,0,1,1.485-1.37,2.336,2.336,0,0,1-.77-2.226,2.073,2.073,0,0,1,1.354-1.59c.378-.135.5-.3.451-.668a2.487,2.487,0,0,1,0-.59c.038-.328-.115-.391-.408-.389-1.933.011-3.865,0-5.8.007a1.068,1.068,0,0,0-1.13.767c-.13.407-.137.686.4.893,1.567.6,1.811,2.375.549,3.807,1.826.882,2.049,2.493,1.94,4.257-.013.21-.1.261-.29.261q-3.047-.007-6.094,0c-.147,0-.276-.007-.279-.208-.018-1.2-.092-2.416.786-3.419a4.577,4.577,0,0,1,1.151-.9,2.375,2.375,0,0,1-.812-1.863,2.12,2.12,0,0,1,1.448-1.969.494.494,0,0,0,.4-.529,1.844,1.844,0,0,1,1.965-1.845c1.893-.013,3.786,0,5.68-.005.238,0,.582.091.484-.343-.062-.277.32-.819-.413-.759a.653.653,0,0,1-.49-.165c-.462-.55-1.007-1.016-1.492-1.534a9.2,9.2,0,0,0-.726-.709,17.843,17.843,0,0,0-1.485-1.456.612.612,0,0,1-.186-.707c.279-.525-.028-.85-.27-1.251a3.493,3.493,0,0,1,5.037-4.611.541.541,0,0,0,.783.012,3.495,3.495,0,0,1,5.033,4.637.591.591,0,0,0-.031.763,1.07,1.07,0,0,1-.566,1.6c-.269.1-.335.333-.5.485a12.826,12.826,0,0,1-1.849,1.774c-.117.073-.222.11-.292.249C74.16,123.143,73.866,123.268,72.83,122.972Zm.349-1.867c-.033-.033-.087-.1-.1-.1-.089.054-.033.116,0,.175a1.363,1.363,0,0,1,.069.751.321.321,0,0,0,.225.411.363.363,0,0,0,.424-.108.374.374,0,0,0,.007-.533C73.615,121.492,73.391,121.3,73.179,121.1Zm-1.6-4.254c-.3,0-.475,0-.652,0a.953.953,0,0,1-1-.576.927.927,0,0,1,.33-1.1c.45-.442.874-.913,1.346-1.33.332-.293.236-.439-.077-.639a2.779,2.779,0,0,0-3.384.327,2.747,2.747,0,0,0-.52,3.356c.177.312.34.616.812.363a.637.637,0,0,1,.731.076,21.971,21.971,0,0,1,1.744,1.812c.021.03.015.077.025.115a.237.237,0,0,0,.191.2c.53.1.74.481.969.927.132.257.711.57.848.376.5-.709.762-.236,1.092.1a3.821,3.821,0,0,0,.3.287.391.391,0,0,0,.579-.014.374.374,0,0,0-.016-.576,7.268,7.268,0,0,0-.586-.584c-.229-.194-.245-.328-.018-.562.245-.251.377-.17.561.039a8.21,8.21,0,0,0,.586.584.37.37,0,0,0,.575,0,.388.388,0,0,0-.007-.58c-.172-.189-.354-.371-.539-.547s-.377-.3-.08-.591c.267-.257.406-.18.6.048.139.165.307.306.456.463.2.209.431.328.667.106.27-.254.114-.5-.1-.708-.615-.612-1.224-1.23-1.844-1.836-.165-.162-.318-.489-.524-.431-.472.133-1.063-.049-1.409.3A1.886,1.886,0,0,1,71.584,116.85Zm-.123-.769a1.22,1.22,0,0,0,1.354-.5.55.55,0,0,1,.507-.237,2.155,2.155,0,0,0,1.651-.475.2.2,0,0,1,.337.031c.1.131.383.27.271.386-.344.358.026.466.176.631.29.32.637.591.907.926.37.461.528.236.705-.148a2.767,2.767,0,0,0-.863-3.373,2.726,2.726,0,0,0-3.474.149c-.653.6-1.266,1.236-1.882,1.871-.185.19-.57.365-.478.609C70.791,116.272,71.2,116.021,71.46,116.081ZM66.893,133.5a2.383,2.383,0,0,0-.121-.825,2.6,2.6,0,0,0-3.1-1.716,2.743,2.743,0,0,0-1.96,2.993c.042.257.178.263.365.262.2,0,.409.021.4-.286-.01-.256,0-.512,0-.768s-.037-.452.344-.453.4.153.4.456c.007,1.051.018,1.051,1.09,1.051h.059c1.039,0,1.046,0,1.058-1.038,0-.283,0-.47.391-.47.428,0,.354.253.355.5s0,.512,0,.768c-.005.284.2.235.368.239s.371.027.356-.251C66.886,133.828,66.893,133.689,66.893,133.5Zm11.11.011c0,.059,0,.118,0,.177.006.261-.091.547.378.538.44-.008.335-.276.344-.512.006-.157,0-.315,0-.473,0-.26-.1-.542.377-.538s.357.307.36.553c.014.956.01.956.97.956h.118c1.1,0,1.106,0,1.127-1.074.005-.268.015-.435.367-.432.33,0,.4.126.383.417-.019.255.008.513-.007.768-.016.275.126.335.362.324.2-.01.364.013.4-.287a2.674,2.674,0,0,0-2.4-3.028A2.564,2.564,0,0,0,78,133.515Zm-8.148.047c0,.059,0,.118,0,.177-.012.265-.039.491.37.491s.365-.246.363-.5c0-.177,0-.355,0-.532-.009-.267-.035-.49.374-.489.385,0,.391.185.394.472.011,1.036.019,1.036,1.054,1.036h.118c1,0,1,0,1.016-1.017,0-.265-.037-.492.374-.49.383,0,.411.18.394.47-.015.255,0,.512,0,.768-.01.316.211.262.4.271s.307-.036.337-.282a2.665,2.665,0,0,0-2.386-3.03A2.58,2.58,0,0,0,69.855,133.562Zm-5.565-3.433A1.48,1.48,0,0,0,65.8,128.7a1.518,1.518,0,0,0-1.49-1.52,1.477,1.477,0,0,0-1.458,1.474A1.441,1.441,0,0,0,64.29,130.129Zm17.757-1.444a1.478,1.478,0,0,0-1.43-1.5,1.514,1.514,0,0,0-1.518,1.491,1.479,1.479,0,0,0,1.477,1.456A1.442,1.442,0,0,0,82.048,128.685Zm-8.13-.048a1.47,1.47,0,0,0-2.94.025,1.47,1.47,0,1,0,2.94-.025Zm-2.578-8.03c-.045-.252-.152-.458-.413-.421a.769.769,0,0,0-.683.691.336.336,0,0,0,.367.373C71.015,121.225,71.2,120.929,71.34,120.607Zm.015,1.317c.015.312.185.482.414.441a.8.8,0,0,0,.664-.658.351.351,0,0,0-.382-.419A.838.838,0,0,0,71.355,121.924Zm-1.782-1.751c.3-.157.615-.33.63-.736a.332.332,0,0,0-.431-.352.753.753,0,0,0-.633.672C69.115,120.012,69.31,120.129,69.573,120.173Zm-.441-1.769c-.041-.266-.177-.474-.409-.444a.767.767,0,0,0-.686.686.325.325,0,0,0,.349.382C68.794,119.017,68.966,118.7,69.132,118.4Z" transform="translate(0 0)"/><path class="a" d="M120.728,228.337c-.33.073-.378-.1-.385-.391-.008-.315.141-.333.391-.346.32-.016.385.11.388.406S120.992,228.38,120.728,228.337Z" transform="translate(-52.347 -101.892)"/><path class="a" d="M189.731,228c.078.36-.146.354-.409.366-.3.014-.336-.119-.353-.38-.024-.357.161-.359.423-.37C189.69,227.6,189.784,227.72,189.731,228Z" transform="translate(-112.847 -101.904)"/><path class="a" d="M108.6,228c.081.364-.158.333-.408.352-.331.026-.309-.157-.329-.389-.032-.354.159-.348.419-.361C108.608,227.583,108.637,227.75,108.6,228Z" transform="translate(-41.342 -101.893)"/><path class="a" d="M133.608,228.033c.068.357-.182.286-.393.312-.376.046-.324-.19-.344-.43-.028-.343.184-.294.4-.316C133.644,227.562,133.635,227.784,133.608,228.033Z" transform="translate(-63.39 -101.889)"/><path class="a" d="M177.05,227.569c.418-.087.352.178.375.413.034.345-.182.295-.4.315-.3.028-.344-.109-.349-.371C176.67,227.613,176.758,227.473,177.05,227.569Z" transform="translate(-102.011 -101.84)"/><path class="a" d="M202.02,228.322c-.356.082-.346-.14-.361-.4-.019-.321.148-.318.388-.337.352-.028.35.156.363.418C202.428,228.324,202.274,228.364,202.02,228.322Z" transform="translate(-124.035 -101.878)"/><path class="a" d="M162.962,188.1c-.037-.059-.092-.12,0-.175.009-.006.063.062.1.1Z" transform="translate(-89.876 -66.914)"/></g></svg>