<svg xmlns="http://www.w3.org/2000/svg" xmlns:xlink="http://www.w3.org/1999/xlink" width="573.874" height="527" viewBox="0 0 573.874 527"><defs><style>.a,.ac,.e,.f,.h,.i,.n{fill:#524f9c;}.a{opacity:0.103;}.ab,.b,.o{fill:#fff;}.b{stroke:#d5d5d5;}.aa,.ad,.c,.m,.q,.w,.y,.z{fill:#231f20;}.c,.y{font-size:10px;}.aa,.ae,.c,.m,.q,.v{font-family:Prompt-Light, Prompt;font-weight:300;}.aa,.ab,.ac,.c,.f,.m,.n,.q,.s,.t,.v,.w,.y,.z{letter-spacing:-0.02em;}.c,.d,.j,.k,.m{opacity:0.253;}.ad,.f,.m{font-size:12px;}.ab,.ac,.f,.n,.s,.t,.w,.y,.z{font-family:Prompt-Medium, Prompt;font-weight:500;}.ag,.g,.x{fill:none;}.g,.x{stroke:#707070;}.g{opacity:0.156;}.h{opacity:0.25;}.i{fill-rule:evenodd;}.j{fill:#919191;}.k{fill:#d5d5d5;}.l{opacity:0.665;}.aa,.n,.q{font-size:14px;}.o{stroke:#dbdbdb;}.p{fill:#fce3b5;}.q,.s,.w{opacity:0.781;}.r{fill:rgba(21,139,204,0.11);}.ah,.s{fill:#008bcc;}.s{font-size:11px;}.t,.v{fill:#343434;}.t,.v,.w{font-size:8px;}.u{text-decoration:underline;}.x{opacity:0.285;}.z{font-size:9px;}.ab{font-size:15px;}.ac{font-size:16px;}.ad{font-family:Prompt-SemiBold, Prompt;font-weight:600;}.af,.ah{stroke:none;}.ai{filter:url(#g);}.aj{filter:url(#e);}.ak{filter:url(#c);}.al{filter:url(#a);}</style><filter id="a" x="349.05" y="283" width="194" height="244" filterUnits="userSpaceOnUse"><feOffset dy="3" input="SourceAlpha"/><feGaussianBlur stdDeviation="3" result="b"/><feFlood flood-opacity="0.161"/><feComposite operator="in" in2="b"/><feComposite in="SourceGraphic"/></filter><filter id="c" x="108.05" y="218" width="215" height="271" filterUnits="userSpaceOnUse"><feOffset dy="3" input="SourceAlpha"/><feGaussianBlur stdDeviation="3" result="d"/><feFlood flood-opacity="0.161"/><feComposite operator="in" in2="d"/><feComposite in="SourceGraphic"/></filter><filter id="e" x="100.05" y="4" width="432" height="200" filterUnits="userSpaceOnUse"><feOffset dy="3" input="SourceAlpha"/><feGaussianBlur stdDeviation="3" result="f"/><feFlood flood-opacity="0.161"/><feComposite operator="in" in2="f"/><feComposite in="SourceGraphic"/></filter><filter id="g" x="207.05" y="168" width="236" height="321" filterUnits="userSpaceOnUse"><feOffset dy="3" input="SourceAlpha"/><feGaussianBlur stdDeviation="3" result="h"/><feFlood flood-opacity="0.161"/><feComposite operator="in" in2="h"/><feComposite in="SourceGraphic"/></filter></defs><g transform="translate(-180.95 -940.297)"><path class="a" d="M423.7,5.92C374.215-7.6,281.147,1.341,236.3,39.969S116.285,186.96,68.576,210.294-30.146,283.6,21.864,314.985s266.555,97.636,295.741,47.168,3.816-103.576,38.177-117.7,85.4,9.041,125.366-26.448S473.185,19.44,423.7,5.92Z" transform="translate(207.493 994.98) rotate(4)"/><g transform="translate(539.037 1229.632)"><g transform="translate(0 0)"><g class="al" transform="matrix(1, 0, 0, 1, -358.09, -289.34)"><g class="b" transform="translate(358.05 289)"><rect class="af" width="176" height="226" rx="5"/><rect class="ag" x="0.5" y="0.5" width="175" height="225" rx="4.5"/></g></g><text class="c" transform="translate(10.764 16.454)"><tspan x="0" y="0">Provider company name</tspan></text></g><g class="d" transform="translate(10.764 47.404)"><g transform="translate(0 0)"><path class="e" d="M4.592,0h145.1c2.536,0,4.592,1.764,4.592,3.939V19.7c0,2.176-2.056,3.939-4.592,3.939H4.592C2.056,23.637,0,21.873,0,19.7V3.939C0,1.764,2.056,0,4.592,0Z"/><text class="f" transform="translate(16.326 38.431)"><tspan x="0" y="0">—,— EGP /member</tspan></text></g></g><line class="g" x2="154.28" transform="translate(11.123 95.08)"/><g class="d" transform="translate(142.151 9.773)"><circle class="h" cx="11.5" cy="11.5" r="11.5" transform="translate(-0.188 -0.109)"/><path class="i" d="M11.3,1.615H1.615L6.458,5.651ZM0,1.615A1.619,1.619,0,0,1,1.615,0H11.3a1.619,1.619,0,0,1,1.615,1.615V8.073A1.619,1.619,0,0,1,11.3,9.687H1.615A1.619,1.619,0,0,1,0,8.073Z" transform="translate(4.953 6.732)"/></g><rect class="j" width="139" height="12" rx="5" transform="translate(14.963 110.664)"/><rect class="j" width="139" height="12" rx="5" transform="translate(14.963 165.664)"/><rect class="k" width="78" height="7" rx="3.5" transform="translate(14.963 130.664)"/><rect class="k" width="78" height="7" rx="3.5" transform="translate(14.963 185.664)"/></g><g class="l" transform="translate(298.269 1164.776)"><g transform="translate(0 0)"><g class="ak" transform="matrix(1, 0, 0, 1, -117.32, -224.48)"><g class="b" transform="translate(117.05 224)"><rect class="af" width="197" height="253" rx="5"/><rect class="ag" x="0.5" y="0.5" width="196" height="252" rx="4.5"/></g></g><text class="m" transform="translate(12.432 19.078)"><tspan x="0" y="0">Provider company name</tspan></text></g><g class="d" transform="translate(12.432 52.824)"><g transform="translate(0 0)"><path class="e" d="M5.117,0H166.8c2.826,0,5.117,1.965,5.117,4.39v17.56c0,2.424-2.291,4.39-5.117,4.39H5.117C2.291,26.339,0,24.374,0,21.949V4.39C0,1.965,2.291,0,5.117,0Z"/><text class="n" transform="translate(18.192 43.338)"><tspan x="0" y="0">—,— EGP /member</tspan></text></g></g><line class="g" x2="171.92" transform="translate(12.831 105.951)"/><g class="d" transform="translate(159.031 11.55)"><circle class="h" cx="12.5" cy="12.5" r="12.5" transform="translate(-0.3 -0.029)"/><path class="i" d="M12.594,1.8H1.8L7.2,6.3ZM0,1.8A1.8,1.8,0,0,1,1.8,0H12.594a1.8,1.8,0,0,1,1.8,1.8V9a1.8,1.8,0,0,1-1.8,1.8H1.8A1.8,1.8,0,0,1,0,9Z" transform="translate(5.33 6.842)"/></g><rect class="j" width="155" height="12" rx="5" transform="translate(16.731 124.521)"/><rect class="j" width="155" height="13" rx="5" transform="translate(16.731 185.521)"/><rect class="k" width="87" height="8" rx="4" transform="translate(16.731 145.521)"/><rect class="k" width="87" height="8" rx="4" transform="translate(16.731 206.521)"/></g><g transform="translate(290.273 940)"><g class="aj" transform="matrix(1, 0, 0, 1, -109.32, 0.3)"><g class="o" transform="translate(109.05 10)"><rect class="af" width="414" height="182"/><rect class="ag" x="0.5" y="0.5" width="413" height="181"/></g></g><g transform="translate(6.219 0)"><g transform="translate(0 0)"><rect class="p" width="113" height="29" rx="5" transform="translate(-0.492 0.297)"/><text class="q" transform="translate(17.508 17.297)"><tspan x="0" y="0">In Progress</tspan></text></g></g><g transform="translate(351.042 67.977)"><g transform="translate(0 0)"><g class="r"><path class="af" d="M 110.1307220458984 23.19288444519043 L 3.378243923187256 23.19288444519043 C 2.066874742507935 23.19288444519043 0.9999977350234985 21.83266830444336 0.9999977350234985 20.16073036193848 L 0.9999977350234985 4.032145977020264 C 0.9999977350234985 2.360223054885864 2.066874742507935 1.000007629394531 3.378243923187256 1.000007629394531 L 110.1307220458984 1.000007629394531 C 111.4420776367188 1.000007629394531 112.5089492797852 2.360223054885864 112.5089492797852 4.032145977020264 L 112.5089492797852 20.16073036193848 C 112.5089492797852 21.83266830444336 111.4420776367188 23.19288444519043 110.1307220458984 23.19288444519043 Z"/><path class="ah" d="M 3.378242492675781 2.000005722045898 C 2.726341247558594 2.000005722045898 1.999992370605469 2.834571838378906 1.999992370605469 4.032138824462891 L 1.999992370605469 20.16073799133301 C 1.999992370605469 21.35830497741699 2.726341247558594 22.19287109375 3.378242492675781 22.19287109375 L 110.1307067871094 22.19287109375 C 110.7825927734375 22.19287109375 111.5089416503906 21.35830497741699 111.5089416503906 20.16073799133301 L 111.5089416503906 4.032138824462891 C 111.5089416503906 2.834571838378906 110.7825927734375 2.000005722045898 110.1307067871094 2.000005722045898 L 3.378242492675781 2.000005722045898 M 3.378242492675781 5.7220458984375e-06 L 110.1307067871094 5.7220458984375e-06 C 111.9964599609375 5.7220458984375e-06 113.5089416503906 1.805255889892578 113.5089416503906 4.032138824462891 L 113.5089416503906 20.16073799133301 C 113.5089416503906 22.38762092590332 111.9964599609375 24.19287109375 110.1307067871094 24.19287109375 L 3.378242492675781 24.19287109375 C 1.512489318847656 24.19287109375 -7.62939453125e-06 22.38762092590332 -7.62939453125e-06 20.16073799133301 L -7.62939453125e-06 4.032138824462891 C -7.62939453125e-06 1.805255889892578 1.512489318847656 5.7220458984375e-06 3.378242492675781 5.7220458984375e-06 Z"/></g><text class="s" transform="translate(14.685 15.319)"><tspan x="0" y="0">Start: 1/3/2021</tspan></text></g></g><g transform="translate(308.67 98.225)"><g transform="translate(0)"><g class="r"><path class="af" d="M 75.23931884765625 23.1928825378418 L 2.307961940765381 23.1928825378418 C 1.787250757217407 23.1928825378418 1.000006318092346 21.9835376739502 1.000006318092346 20.16072654724121 L 1.000006318092346 4.032149314880371 C 1.000006318092346 2.209349632263184 1.787250757217407 1.000005125999451 2.307961940765381 1.000005125999451 L 75.23931884765625 1.000005125999451 C 75.76002502441406 1.000005125999451 76.54728698730469 2.209349632263184 76.54728698730469 4.032149314880371 L 76.54728698730469 20.16072654724121 C 76.54728698730469 21.9835376739502 75.76002502441406 23.1928825378418 75.23931884765625 23.1928825378418 Z"/><path class="ah" d="M 2.525680541992188 2.000003814697266 C 2.334541320800781 2.237918853759766 2.000007629394531 2.929536819458008 2.000007629394531 4.032144546508789 L 2.000007629394531 20.16073226928711 C 2.000007629394531 21.26333999633789 2.334541320800781 21.95495796203613 2.525680541992188 22.19287300109863 L 75.02159118652344 22.19287300109863 C 75.21273040771484 21.95496559143066 75.54727172851562 21.26333999633789 75.54727172851562 20.16073226928711 L 75.54727172851562 4.032144546508789 C 75.54727172851562 2.929527282714844 75.21273040771484 2.237907409667969 75.02159118652344 2.000003814697266 L 2.525680541992188 2.000003814697266 M 2.307945251464844 3.814697265625e-06 L 75.23931884765625 3.814697265625e-06 C 76.51397705078125 3.814697265625e-06 77.54727172851562 1.80525016784668 77.54727172851562 4.032144546508789 L 77.54727172851562 20.16073226928711 C 77.54727172851562 22.38761520385742 76.51397705078125 24.19287300109863 75.23931884765625 24.19287300109863 L 2.307945251464844 24.19287300109863 C 1.033309936523438 24.19287300109863 7.62939453125e-06 22.38761520385742 7.62939453125e-06 20.16073226928711 L 7.62939453125e-06 4.032144546508789 C 7.62939453125e-06 1.80525016784668 1.033309936523438 3.814697265625e-06 2.307945251464844 3.814697265625e-06 Z"/></g><text class="s" transform="translate(15.058 14.071)"><tspan x="0" y="0">2 Adults</tspan></text></g></g><g transform="translate(397.815 98.225)"><g transform="translate(0)"><g class="r"><path class="af" d="M 64.70099639892578 23.19287872314453 L 1.984695911407471 23.19287872314453 C 1.94787585735321 23.18908882141113 1.706115961074829 23.05644798278809 1.453405976295471 22.5180492401123 C 1.165265917778015 21.90414810180664 1.000005960464478 21.0449390411377 1.000005960464478 20.16072845458984 L 1.000005960464478 4.032148361206055 C 1.000005960464478 3.147918462753296 1.165265917778015 2.288698434829712 1.453415870666504 1.674808382987976 C 1.706125974655151 1.136418461799622 1.94787585735321 1.003788352012634 1.985005974769592 0.9999884366989136 L 64.70099639892578 0.9999983906745911 C 64.73781585693359 1.003788352012634 64.97956848144531 1.136408448219299 65.23227691650391 1.674808382987976 C 65.52043914794922 2.288698434829712 65.68569946289062 3.147918462753296 65.68569946289062 4.032148361206055 L 65.68569946289062 20.16072845458984 C 65.68569946289062 21.04494857788086 65.52043914794922 21.9041576385498 65.23228454589844 22.5180492401123 C 64.97977447509766 23.05602073669434 64.73820495605469 23.18887710571289 64.70077514648438 23.19287872314453 L 64.70099639892578 23.19287872314453 Z"/><path class="ah" d="M 2.405487060546875 1.999998092651367 C 2.229537963867188 2.326122283935547 1.999992370605469 3.028709411621094 1.999992370605469 4.032148361206055 L 1.999992370605469 20.16072845458984 C 1.999992370605469 21.1641674041748 2.229537963867188 21.86675453186035 2.405487060546875 22.19287872314453 L 64.28019714355469 22.19287872314453 C 64.45614624023438 21.86675071716309 64.68568420410156 21.1641674041748 64.68568420410156 20.16072845458984 L 64.68568420410156 4.032148361206055 C 64.68568420410156 3.028709411621094 64.45614624023438 2.326126098632812 64.28019714355469 1.999998092651367 L 2.405487060546875 1.999998092651367 M 1.984695434570312 -1.9073486328125e-06 L 64.70099639892578 -1.9073486328125e-06 C 65.79710388183594 -1.9073486328125e-06 66.68568420410156 1.805257797241211 66.68568420410156 4.032148361206055 L 66.68568420410156 20.16072845458984 C 66.68568420410156 22.38761901855469 65.79710388183594 24.19287872314453 64.70099639892578 24.19287872314453 L 1.984695434570312 24.19287872314453 C 0.8885726928710938 24.19287872314453 -7.62939453125e-06 22.38761901855469 -7.62939453125e-06 20.16072845458984 L -7.62939453125e-06 4.032148361206055 C -7.62939453125e-06 1.805257797241211 0.8885726928710938 -1.9073486328125e-06 1.984695434570312 -1.9073486328125e-06 Z"/></g><text class="s" transform="translate(14.912 14.071)"><tspan x="0" y="0">3 Kids</tspan></text></g></g><g transform="translate(241.638 69.194)"><g transform="translate(0 0)"><g class="r"><path class="af" d="M 102.1801681518555 23.19288063049316 L 3.134364604949951 23.19288063049316 C 1.977421879768372 23.19288063049316 1.000007510185242 21.80432319641113 1.000007510185242 20.16072463989258 L 1.000007510185242 4.032152652740479 C 1.000007510185242 2.388552665710449 1.977421879768372 0.9999955296516418 3.134364604949951 0.9999955296516418 L 102.1801681518555 0.9999955296516418 C 103.3371047973633 0.9999955296516418 104.3145370483398 2.388552665710449 104.3145370483398 4.032152652740479 L 104.3145370483398 20.16072463989258 C 104.3145370483398 21.80432319641113 103.3371047973633 23.19288063049316 102.1801681518555 23.19288063049316 Z"/><path class="ah" d="M 3.134353637695312 1.999992370605469 C 2.671852111816406 1.999992370605469 2 2.79163932800293 2 4.032146453857422 L 2 20.16073036193848 C 2 21.40123748779297 2.671852111816406 22.19286918640137 3.134353637695312 22.19286918640137 L 102.1801605224609 22.19286918640137 C 102.6426773071289 22.19286918640137 103.3145294189453 21.40123748779297 103.3145294189453 20.16073036193848 L 103.3145294189453 4.032146453857422 C 103.3145294189453 2.79163932800293 102.6426773071289 1.999992370605469 102.1801605224609 1.999992370605469 L 3.134353637695312 1.999992370605469 M 3.134353637695312 -7.62939453125e-06 L 102.1801605224609 -7.62939453125e-06 C 103.9112167358398 -7.62939453125e-06 105.3145294189453 1.805253982543945 105.3145294189453 4.032146453857422 L 105.3145294189453 20.16073036193848 C 105.3145294189453 22.38762283325195 103.9112167358398 24.19286918640137 102.1801605224609 24.19286918640137 L 3.134353637695312 24.19286918640137 C 1.403297424316406 24.19286918640137 0 22.38762283325195 0 20.16073036193848 L 0 4.032146453857422 C 0 1.805253982543945 1.403297424316406 -7.62939453125e-06 3.134353637695312 -7.62939453125e-06 Z"/></g><text class="s" transform="translate(14.089 15.103)"><tspan x="0" y="0">210,000 EGP</tspan></text></g></g><text class="f" transform="translate(14.66 52.003)"><tspan x="0" y="0">Health Tender Ahmed Araby</tspan></text><text class="t" transform="translate(14.66 70.246)"><tspan class="u" x="0" y="0">Alpha Team</tspan><tspan y="0" xml:space="preserve"> , </tspan><tspan class="u" y="0">Ahmed Mohamed</tspan></text><text class="v" transform="translate(14.66 86.724)"><tspan x="0" y="0" xml:space="preserve">Tender launched on  08/01/2020</tspan></text><text class="w" transform="translate(326.727 48.297)"><tspan x="0" y="0">Medical Individual</tspan></text><line class="x" x2="370.35" transform="translate(25.321 144.493)"/><text class="y" transform="translate(71.382 165.161)"><tspan x="-22.335" y="0">Overview</tspan></text><g transform="translate(164.362 150.608)"><rect class="e" width="104" height="5" transform="translate(0.365 19.689)"/><g transform="translate(36.609)"><text class="y" transform="translate(15 11)"><tspan x="-14.545" y="0">Offers</tspan></text></g></g><g transform="translate(332.555 155.628)"><text class="z" transform="translate(24 10)"><tspan x="-24.246" y="0">Discussions</tspan></text></g></g><g transform="translate(396.886 1114.135)"><g transform="translate(0 0)"><g class="ai" transform="matrix(1, 0, 0, 1, -215.94, -173.84)"><g class="b" transform="translate(216.05 174)"><rect class="af" width="218" height="303" rx="5"/><rect class="ag" x="0.5" y="0.5" width="217" height="302" rx="4.5"/></g></g><text class="aa" transform="translate(13.327 22.363)"><tspan x="0" y="0">Clean care and health</tspan><tspan x="0" y="15">Insurance company</tspan></text></g><g transform="translate(13.327 58.691)"><g transform="translate(0 0)"><path class="e" d="M5.685,0H185.33c3.14,0,5.685,2.184,5.685,4.877v19.51c0,2.694-2.545,4.877-5.685,4.877H5.685C2.545,29.265,0,27.081,0,24.387V4.877C0,2.184,2.545,0,5.685,0Z"/><text class="ab" transform="translate(26.432 18.612)"><tspan x="0" y="0">Total : 102,900EGP</tspan></text><text class="ac" transform="translate(20.213 48.486)"><tspan x="0" y="0">4,228 EGP /member</tspan></text></g></g><line class="g" x2="191.015" transform="translate(13.771 117.719)"/><text class="ad" transform="translate(13.114 149.162)"><tspan x="0" y="0">Medical Coverage Ceiling:</tspan><tspan class="ae"><tspan x="0" y="18">50,000EGP</tspan></tspan></text><text class="ad" transform="translate(13.114 193.162)"><tspan x="0" y="0">Hospital Accommodation:</tspan><tspan class="ae"><tspan x="0" y="18">Single or Double Room</tspan><tspan x="0" y="36"></tspan></tspan></text><text class="ad" transform="translate(13.114 238.162)"><tspan x="0" y="0">Inpatient services:</tspan><tspan class="ae"><tspan x="0" y="15">100% covered inside network </tspan><tspan x="0" y="30">only</tspan></tspan></text><g transform="translate(175.912 12.438)"><ellipse class="h" cx="14" cy="14.5" rx="14" ry="14.5" transform="translate(0.202 -0.276)"/><path class="i" d="M13.993,2H2L8,7ZM0,2A2,2,0,0,1,2,0H13.993a2,2,0,0,1,2,2v8a2,2,0,0,1-2,2H2a2,2,0,0,1-2-2Z" transform="translate(6.219 7.996)"/></g></g></g></svg>