<svg xmlns="http://www.w3.org/2000/svg" width="18.944" height="18.38" viewBox="0 0 18.944 18.38"><defs><style>.a{fill:#524f9c;}</style></defs><g transform="translate(-306.278 -32.649)"><path class="a" d="M325.222,32.653V46.564a.16.16,0,0,0-.05-.019q-3.227,0-6.454,0c-.114,0-.11.058-.11.137,0,.678,0,1.356,0,2.034,0,.128.042.151.157.149.388-.007.777,0,1.165,0a.172.172,0,0,1,.185.107c.328.667.662,1.331.994,2a.329.329,0,0,1,.017.07H310.417a.329.329,0,0,1,.015-.064c.334-.671.671-1.34,1-2.012a.16.16,0,0,1,.173-.1c.32,0,.641-.005.961,0,.128,0,.164-.028.163-.16-.007-.653-.009-1.307,0-1.96,0-.161-.035-.2-.2-.2-2.022.007-4.044,0-6.065.008-.157,0-.188-.043-.188-.193q.006-6.76,0-13.52c0-.16.046-.185.193-.185Q315.846,32.655,325.222,32.653Zm-18.318,7.2c.024,0,.039.008.048,0l4.387-2.189c.059-.029.068-.06.055-.127a1.459,1.459,0,0,1,0-.606,1.477,1.477,0,0,1,2.9.55c-.017.11.018.135.1.172.553.263,1.106.526,1.656.795.091.044.133.022.2-.047a1.459,1.459,0,0,1,2.109-.061.124.124,0,0,0,.182.016c.451-.262.9-.522,1.358-.774a.165.165,0,0,0,.1-.213,1.471,1.471,0,0,1,2.085-1.639,1.457,1.457,0,0,1,.81,1.559c-.006.053-.047.112.039.155.563.281,1.123.568,1.705.864v-.2c0-1.548,0-3.1,0-4.643,0-.166-.038-.211-.208-.211q-8.665.007-17.33,0c-.179,0-.2.057-.2.215q.007,3.1,0,6.2Zm8.862,2.96h8.692c.1,0,.186.022.185-.14-.007-1.184-.005-2.368,0-3.551a.175.175,0,0,0-.114-.181q-.91-.46-1.817-.927a.129.129,0,0,0-.186.031,1.448,1.448,0,0,1-2.106.08c-.062-.056-.1-.08-.187-.031-.46.27-.924.533-1.389.795-.075.042-.1.08-.078.173a1.364,1.364,0,0,1,.03.53,1.475,1.475,0,1,1-2.92-.416c.018-.1,0-.136-.088-.177q-.831-.391-1.655-.795c-.09-.044-.133-.027-.2.044a1.461,1.461,0,0,1-2.148.033.176.176,0,0,0-.249-.035q-2.247,1.129-4.5,2.25a.213.213,0,0,0-.135.226c.005.629.009,1.258,0,1.887,0,.17.043.21.211.21Q311.438,42.811,315.765,42.816Zm.027.6q-4.354,0-8.708,0c-.136,0-.187.022-.185.175.009.727.008,1.455,0,2.182,0,.127.028.163.159.163q8.708-.005,17.416,0c.149,0,.166-.048.165-.176-.006-.715-.008-1.43,0-2.145,0-.158-.031-.2-.2-.2Q320.118,43.425,315.792,43.42Zm4.363,7.005c-.143-.286-.279-.543-.4-.808a.2.2,0,0,0-.218-.14c-.45.007-.9,0-1.35.006-.14,0-.186-.028-.184-.179.008-.857,0-1.713.007-2.57,0-.144-.02-.2-.184-.2q-2.154.012-4.308,0c-.13,0-.177.02-.175.166.01.666.008,1.331,0,2,0,.134.039.158.164.158,1.078-.005,2.157,0,3.235,0,.413,0,.4,0,.417.421.007.18-.057.2-.215.2-1.639-.005-3.279,0-4.918-.006a.225.225,0,0,0-.248.153c-.086.2-.193.394-.291.59s-.1.206.119.206h8.547Zm-8.176-13.174a.864.864,0,0,0,.856.874.868.868,0,1,0,.012-1.735A.861.861,0,0,0,311.979,37.252Zm9.462-1.049a.862.862,0,0,0-.878.851.868.868,0,1,0,1.735.019A.854.854,0,0,0,321.441,36.2Zm-3.248,3.211a.861.861,0,0,0-.852-.877.868.868,0,1,0-.017,1.736A.859.859,0,0,0,318.193,39.414Z"/><path class="a" d="M400.3,53.031c.308,0,.617,0,.925,0,.1,0,.124.026.127.123.018.5.021.5-.485.5-.4,0-.8,0-1.2,0a.309.309,0,0,0-.257.1c-.159.172-.333.329-.494.5-.069.073-.116.092-.186,0-.1-.123-.3-.21-.3-.35,0-.108.18-.216.285-.32.188-.186.35-.439.577-.534a2.141,2.141,0,0,1,.768-.024Z" transform="translate(-85.177 -18.818)"/><path class="a" d="M448.311,53.07c.407,0,.813.005,1.22,0,.125,0,.163.036.15.155-.016.151.064.352-.032.441s-.28.028-.426.028c-.715,0-1.429,0-2.144,0-.121,0-.163-.031-.15-.152.017-.151-.064-.35.031-.444s.293-.025.445-.027C447.708,53.067,448.01,53.07,448.311,53.07Z" transform="translate(-129.998 -18.857)"/><path class="a" d="M448.177,68.855c.32,0,.64,0,.96,0,.1,0,.137.019.139.129.01.479.014.479-.471.479-.517,0-1.033,0-1.55,0-.117,0-.155-.025-.155-.15,0-.459,0-.459.45-.459Z" transform="translate(-130.17 -33.465)"/><path class="a" d="M447.486,84.977c-.4,0-.387,0-.4-.4-.005-.166.037-.224.207-.208a4.118,4.118,0,0,0,.5,0c.078,0,.115.023.106.1a.825.825,0,0,0,0,.092C447.9,84.977,447.9,84.977,447.486,84.977Z" transform="translate(-130.158 -47.809)"/><path class="a" d="M410.157,188.256c-.53,0-1.06,0-1.59,0-.11,0-.159-.014-.159-.145,0-.457,0-.457.455-.457.968,0,1.935,0,2.9,0,.151,0,.179.046.177.184-.008.42,0,.42-.417.42Z" transform="translate(-94.405 -143.278)"/><path class="a" d="M390.718,188.241c-.4,0-.393,0-.408-.41-.006-.173.051-.206.2-.193a3.6,3.6,0,0,0,.479,0c.1-.005.132.034.119.126a.535.535,0,0,0,0,.074C391.112,188.241,391.112,188.241,390.718,188.241Z" transform="translate(-77.676 -143.263)"/><path class="a" d="M462.991,188.229c-.4,0-.4,0-.406-.411,0-.148.025-.21.186-.192a2.088,2.088,0,0,0,.442,0c.155-.016.193.049.172.184a.113.113,0,0,0,0,.018C463.385,188.229,463.385,188.229,462.991,188.229Z" transform="translate(-144.483 -143.251)"/></g></svg>