<svg xmlns="http://www.w3.org/2000/svg" width="21.695" height="21.704" viewBox="0 0 21.695 21.704"><defs><style>.a{fill:#524f9c;}</style></defs><g transform="translate(-75.022 -94.495)"><path class="a" d="M132.3,163.767c-.688-.565-.536-1.275-.255-1.959a2.339,2.339,0,0,1,2.059-1.536,20.332,20.332,0,0,1,2.705,0c1.647.092,3,2.323,1.825,3.541.724.98.615,1.415-.432,1.875a1.084,1.084,0,0,0-.374.434,3.509,3.509,0,0,1-.447.77c-.458.41-.727.993-.406,1.419a3.956,3.956,0,0,0,1.537.958c.249.115.594.006.893.027a1.043,1.043,0,0,1,1.092,1.084c.031,1.354.04,2.71-.017,4.062a.89.89,0,0,1-.624.605q-4.421.061-8.843,0a.893.893,0,0,1-.594-.634c-.058-1.292-.044-2.587-.022-3.881.015-.86.411-1.246,1.309-1.228a2.123,2.123,0,0,0,1.879-.618c.2-.251.481-.706.385-.888-.414-.781-.577-1.776-1.559-2.152C131.686,165.36,131.638,164.664,132.3,163.767Zm7.489,10.542c0-1.183.007-2.265,0-3.347,0-.429.139-.941-.6-.964-.6-.019-1.045.014-1.077.8a12.294,12.294,0,0,1-.322,1.68,1.221,1.221,0,0,1-1.359,1.148c-.662-.017-1.324-.015-1.986,0a1.192,1.192,0,0,1-1.32-1.083,15.212,15.212,0,0,0-.448-2.112c-.078-.219-.586-.387-.9-.389-.22,0-.624.309-.632.495-.057,1.25-.03,2.5-.03,3.773Zm-6.141-9.752c0,.241-.011.482,0,.722a1.8,1.8,0,1,0,3.606.021c.125-1.864.125-1.863-1.657-2.306C134.164,162.636,133.648,163.05,133.651,164.557Zm4.518-1.346a1.629,1.629,0,0,0-1.3-2.195,13.01,13.01,0,0,0-2.792-.007,1.563,1.563,0,0,0-1.314,2.135A4.353,4.353,0,0,1,138.17,163.211Zm-4.694,7.055c.4,2.833.5,2.914,2.978,2.631.587-.067.922-1,.856-2.551C136.059,171.673,134.807,171.513,133.475,170.267Zm.326-.621c1.449,1.164,2.013,1.158,3.292-.009l-1.225-1.782h-1.079l.165.161Z" transform="translate(-49.585 -58.872)"/><path class="a" d="M78.294,101.034c-.692,0-1.384.011-2.076,0a1.08,1.08,0,0,1-1.184-1.182c-.014-1.385-.017-2.769,0-4.154a1.075,1.075,0,0,1,1.2-1.164c1.354-.01,2.708-.008,4.062,0a1.1,1.1,0,0,1,1.232,1.228c.008,1.355.011,2.709,0,4.064a1.106,1.106,0,0,1-1.249,1.212C79.618,101.038,78.956,101.034,78.294,101.034Zm.043-.722c2.474,0,2.474,0,2.474-2.5,0-2.565,0-2.565-2.587-2.565-2.473,0-2.473,0-2.473,2.5C75.751,100.312,75.751,100.312,78.337,100.312Z" transform="translate(0 -0.025)"/><path class="a" d="M227.055,97.76c0,.632.011,1.264,0,1.9-.019.95-.376,1.335-1.293,1.348-1.324.018-2.648.01-3.971,0a1.1,1.1,0,0,1-1.235-1.225q-.012-2.032,0-4.064a1.075,1.075,0,0,1,1.156-1.209c1.384-.021,2.768-.016,4.152,0a1.081,1.081,0,0,1,1.189,1.177C227.067,96.375,227.054,97.068,227.055,97.76Zm-.722.042c0-2.578,0-2.578-2.573-2.578-2.487,0-2.487,0-2.487,2.484,0,2.579,0,2.579,2.573,2.579C226.333,100.287,226.333,100.287,226.333,97.8Z" transform="translate(-130.342)"/><path class="a" d="M78.289,184.641c.662,0,1.324,0,1.986,0a1.105,1.105,0,0,1,1.254,1.207c.013,1.354.009,2.709,0,4.064a1.1,1.1,0,0,1-1.228,1.234q-2.031.012-4.062,0a1.076,1.076,0,0,1-1.205-1.16c-.02-1.384-.016-2.769,0-4.154a1.079,1.079,0,0,1,1.179-1.186C76.9,184.629,77.6,184.642,78.289,184.641Zm-.014.723a13.492,13.492,0,0,0-1.885.03.9.9,0,0,0-.609.617c-.059,1.257-.059,2.52,0,3.778a.889.889,0,0,0,.617.608c1.257.059,2.519.059,3.776,0a.889.889,0,0,0,.607-.618c.059-1.257.059-2.521,0-3.778a.907.907,0,0,0-.62-.607A13.608,13.608,0,0,0,78.275,185.364Z" transform="translate(0 -80.737)"/><path class="a" d="M220.527,187.869c0-.662-.015-1.325,0-1.987.025-.873.4-1.248,1.287-1.26,1.324-.017,2.648-.008,3.971,0a1.1,1.1,0,0,1,1.239,1.222q.015,2.032,0,4.064a1.1,1.1,0,0,1-1.243,1.218c-1.324.006-2.648.015-3.971,0-.884-.012-1.258-.39-1.283-1.265C220.511,189.194,220.527,188.532,220.527,187.869Zm3.327,2.534c.57,0,1.14-.02,1.709.006.529.024.765-.164.753-.723-.026-1.2-.023-2.4,0-3.6.01-.529-.165-.765-.724-.753-1.2.026-2.4.023-3.6,0-.529-.01-.765.164-.752.723.026,1.2.031,2.4,0,3.6-.017.618.26.781.815.753C222.653,190.38,223.254,190.4,223.854,190.4Z" transform="translate(-130.318 -80.715)"/><path class="a" d="M150.621,112.735a3.484,3.484,0,0,1-.3-.251,1.437,1.437,0,0,1-.149-.239l.661-.761H145.1c-.178-.734-.178-.752.454-.755,1.708-.01,3.416,0,5.252,0l-.675-.9.395-.45C152.7,111.432,152.533,110.811,150.621,112.735Z" transform="translate(-62.674 -13.332)"/><path class="a" d="M239.515,165.967c.656-.924.842.222,1.356.2l.728-.644.479.418C240.811,167.444,240.811,167.444,239.515,165.967Z" transform="translate(-147.33 -63.622)"/><path class="a" d="M94.551,166.136l-.442-.42c1.212-1.526,1.212-1.526,2.538-.049l-.444.488-.807-.744Z" transform="translate(-17.095 -62.76)"/><path class="a" d="M88.479,109.293,86.37,107.26l1.964-1.916-.18-.237a2.871,2.871,0,0,1,.5,0c.178,1.172,1.469,1.452,1.886,2.063Zm.991-2.018c-.467-.35-.757-.726-.97-.688a1.1,1.1,0,0,0-.717.675c-.045.164.385.641.616.652C88.676,107.928,88.97,107.595,89.47,107.275Z" transform="translate(-10.164 -9.497)"/><path class="a" d="M237.92,109.063h-3.372c-.174-.476-.1-.72.472-.705.842.022,1.686-.023,2.525.026.206.012.4.278.6.427Z" transform="translate(-142.807 -12.416)"/><path class="a" d="M234.031,122.5H237.4c.177.479.1.719-.473.7-.842-.022-1.686.023-2.525-.026-.206-.012-.4-.279-.595-.428Z" transform="translate(-142.22 -25.086)"/><path class="a" d="M237.888,136.8h-3.367c-.2-.459-.158-.72.435-.707.842.018,1.686-.024,2.525.024.215.013.416.27.623.414Z" transform="translate(-142.761 -37.26)"/><path class="a" d="M232.493,202.214c.764-1.059,1.057.319,1.695.173.578-.517,1.236-1.111,1.913-1.68a4.635,4.635,0,0,1,.556.463c-.743.684-1.423,1.35-2.156,1.952a.845.845,0,0,1-.757.013A10.829,10.829,0,0,1,232.493,202.214Z" transform="translate(-141.041 -95.129)"/></g></svg>