<svg xmlns="http://www.w3.org/2000/svg" xmlns:xlink="http://www.w3.org/1999/xlink" width="900.21" height="611.703" viewBox="0 0 900.21 611.703"><defs><style>.a,.c{fill:#f3fcf1;}.b,.c,.w{mix-blend-mode:multiply;isolation:isolate;}.d{fill:#ffb792;}.e{fill:#f2ac8c;}.f,.w{fill:#524ea0;}.g{fill:#221f28;}.h{fill:url(#a);}.i{fill:url(#b);}.j{fill:url(#c);}.k{fill:url(#d);}.l{fill:url(#f);}.m{fill:url(#h);}.n{fill:url(#i);}.o{fill:url(#j);}.p{fill:url(#k);}.q{fill:url(#l);}.r{fill:url(#m);}.s{fill:url(#n);}.t{fill:url(#o);}.u{fill:url(#q);}.v{fill:url(#r);}.x{fill:#f2ad8d;}.y{fill:url(#u);}.aa,.z{fill:#524f9c;}.z{opacity:0.21;}.aa{opacity:0.33;}</style><linearGradient id="a" x1="0.5" y1="1" x2="0.5" gradientUnits="objectBoundingBox"><stop offset="0.001" stop-color="#0089cb"/><stop offset="0.071" stop-color="#0a8fc7"/><stop offset="0.507" stop-color="#44b7b3"/><stop offset="0.829" stop-color="#69cfa7"/><stop offset="1" stop-color="#77d9a3"/></linearGradient><linearGradient id="b" x1="0.5" y1="0" x2="0.5" y2="1" xlink:href="#a"/><linearGradient id="c" x1="116.047" y1="19.78" x2="116.047" y2="20.901" xlink:href="#a"/><linearGradient id="d" x1="0.5" y1="0" x2="0.5" y2="1" xlink:href="#a"/><linearGradient id="f" x1="0.494" y1="-0.338" x2="0.501" y2="0.691" xlink:href="#a"/><linearGradient id="h" x1="0.485" y1="0.009" x2="0.502" y2="0.883" xlink:href="#a"/><linearGradient id="i" x1="0" y1="0.5" x2="1" y2="0.5" xlink:href="#a"/><linearGradient id="j" x1="0.998" y1="0.5" x2="0.076" y2="0.5" xlink:href="#a"/><linearGradient id="k" x1="0.5" y1="-0.562" x2="0.5" y2="1.119" xlink:href="#a"/><linearGradient id="l" x1="0.5" y1="-0.846" x2="0.5" y2="0.442" xlink:href="#a"/><linearGradient id="m" x1="0.5" y1="-0.54" x2="0.5" y2="0.513" xlink:href="#a"/><linearGradient id="n" x1="0.5" y1="-7.815" x2="0.5" y2="0.313" xlink:href="#a"/><linearGradient id="o" x1="0.5" y1="-8.315" x2="0.5" y2="-0.187" xlink:href="#a"/><linearGradient id="q" x1="0.489" y1="0.076" x2="0.509" y2="0.874" xlink:href="#a"/><linearGradient id="r" x1="0" y1="0.5" x2="1" y2="0.5" xlink:href="#a"/><linearGradient id="u" x1="0.5" y1="1" x2="0.5" gradientUnits="objectBoundingBox"><stop offset="0.001" stop-color="#0089cb"/><stop offset="0.248" stop-color="#1899c2"/><stop offset="0.769" stop-color="#58c4ad"/><stop offset="1" stop-color="#77d9a3"/></linearGradient></defs><g transform="translate(-466.28 -44.417)"><g transform="translate(462.126 -317.595)"><g transform="translate(61.741 434.032)"><path class="a" d="M887.7,882.158l-763.35-.229.106.326.247.749c-7.321-.987-15.02-.282-22.834.925H61.741c.132-.555.264-1.11.388-1.674a212.42,212.42,0,0,0,5.286-55.8c-1.075-28.207-7.356-58.423,6.448-83.309.335-3.682.8-7.4,1.427-11.153l1.084,3.312c.432-4.237,0-8.739.846-12.967a127.041,127.041,0,0,1,6.316-20.455,182.249,182.249,0,0,1,23.415-42.2c75.284-102.513,163.051-95.5,227.438-53.9,27.432,17.715,106.5,2.185,173.8-102.126C599.97,361.415,918.108,447.685,860.1,666.534,832.024,772.439,945.532,776.288,887.7,882.158Z" transform="translate(-61.741 -434.032)"/></g><g class="b" transform="translate(646.437 515.95)"><path class="a" d="M886.29,587.385c0-.125.01-.248.01-.374a20.1,20.1,0,0,0-20.1-20.1c-.111,0-.216.015-.325.017v-.017a39.864,39.864,0,0,0-76.1-16.625,30.105,30.105,0,0,0-42.477,16.71c-.567-.047-1.139-.086-1.72-.086a20.1,20.1,0,0,0-20.1,20.1c0,.126.007.249.009.374Z" transform="translate(-725.468 -527.023)"/></g><circle class="c" cx="26.665" cy="26.665" r="26.665" transform="translate(558.946 512.176)"/><path class="c" d="M225.116,642.443c-21.444.021-39,13.214-39.655,29.808-8.271.034-15.565,4.2-18.047,10.31q-1.739-.148-3.491-.149c-9.579-.156-18.76,2.964-25.1,8.526a1.153,1.153,0,0,0,.192,1.906,2.073,2.073,0,0,0,1.134.324h153.7a1.661,1.661,0,0,0,1.745-1.176,9.339,9.339,0,0,0,.139-1.459c0-3.785-2.419-7.326-6.457-9.459a14.319,14.319,0,0,0,.174-2.2c-.048-11.513-12.112-20.829-26.984-20.836-.916,0-1.831.045-2.74.135C252.737,648.449,239.486,642.428,225.116,642.443Z" transform="translate(-9.129 -24.816)"/><g transform="translate(534.328 664.181)"><path class="c" d="M854.4,808.112v117.63H892a3.417,3.417,0,0,0,3.417-3.417V808.112Z" transform="translate(-628.712 -708.723)"/><path class="c" d="M905.127,808.041l-18.269-48.56H843.47a31.847,31.847,0,0,1,2.874,2.887,20.211,20.211,0,0,1,3.152,4.811,10.479,10.479,0,0,1,5.185,2.334,12.353,12.353,0,0,1,3.527,4.765,3.323,3.323,0,0,1,1.32,1.188,11.937,11.937,0,0,1,.745,1.332,3.332,3.332,0,0,1,1.772,2.9c0,.151-.012.3-.025.443a2.432,2.432,0,0,1,.025.595,6.64,6.64,0,0,1-.128.859l.012,0c-.017.059-.036.116-.053.174a15.149,15.149,0,0,1-1.312,3.193,2.638,2.638,0,0,1-.788.935c-.448.711-.9,1.424-1.288,2.18a3.283,3.283,0,0,1-4.427,1.161,2.8,2.8,0,0,1-.962-.833v24.084h49.187A3.129,3.129,0,0,0,905.127,808.041Z" transform="translate(-627.41 -702.932)"/><path class="c" d="M837.793,754.771c1,.773,2,1.545,2.985,2.345a43.4,43.4,0,0,1,3.889,3.518l41.853-1.124-.38-2.276c0-1.946-2.161-3.523-4.826-3.523l-43.879.783Z" transform="translate(-626.691 -702.245)"/><g class="b" transform="translate(225.691 131.338)"><path class="a" d="M882.338,844.38H854.4v53.732h27.935a.194.194,0,0,0,.194-.194V844.574A.194.194,0,0,0,882.338,844.38Z" transform="translate(-854.403 -844.38)"/></g><path class="c" d="M652.054,808.112v117.63h-37.6a3.417,3.417,0,0,1-3.417-3.417V808.112Z" transform="translate(-599.734 -708.723)"/><path class="c" d="M616.769,759.481,598.5,808.041a3.129,3.129,0,0,0,2.839,4.446h49.188V785.364q-.473.385-.963.757a2.86,2.86,0,0,1-2.714.245,3.64,3.64,0,0,1-1.855.081,3.3,3.3,0,0,1-2.26-3.98c1.149-5.651,3.7-11.831,9.273-14.391a3.951,3.951,0,0,1,1.9-.382,19.675,19.675,0,0,1,3.372-5.327,31.832,31.832,0,0,1,2.875-2.887Z" transform="translate(-598.206 -702.932)"/><path class="c" d="M667.574,754.771c-1,.773-2,1.545-2.985,2.345a43.394,43.394,0,0,0-3.889,3.518l-41.853-1.124.38-2.276c0-1.946,2.161-3.523,4.826-3.523l43.879.783Z" transform="translate(-600.664 -702.245)"/><g class="b" transform="translate(24.191 131.338)"><path class="a" d="M625.861,844.38H653.8v53.732H625.861a.194.194,0,0,1-.194-.194V844.574A.194.194,0,0,1,625.861,844.38Z" transform="translate(-625.667 -844.38)"/></g><path class="c" d="M744.415,712.92s-84.835,64.045-86.937,64.045V908.55a5.857,5.857,0,0,0,5.858,5.857H827.191a4.16,4.16,0,0,0,4.16-4.16V776.965Z" transform="translate(-605.264 -697.388)"/><path class="c" d="M773.177,925.63H723.488a1.429,1.429,0,0,0-1.429,1.429v13.157h52.546V927.059A1.429,1.429,0,0,0,773.177,925.63Z" transform="translate(-612.953 -722.716)"/><path class="c" d="M3.56,0H32.3a3.56,3.56,0,0,1,3.56,3.56V69.966a0,0,0,0,1,0,0H0a0,0,0,0,1,0,0V3.56A3.56,3.56,0,0,1,3.56,0Z" transform="translate(117.446 132.948)"/><path class="c" d="M802.279,805.579h-.341c-8.858,0-16.613,6.271-16.613,15.129v15.953h16.953Z" transform="translate(-620.487 -708.422)"/><path class="c" d="M785.325,846.207v46.931c0,1.58,1.855,4.03,3.435,4.03h13.518V846.207Z" transform="translate(-620.487 -713.259)"/><path class="c" d="M809.709,805.579h-.862v31.082H825.8V820.708C825.8,811.85,818.566,805.579,809.709,805.579Z" transform="translate(-623.287 -708.422)"/><path class="c" d="M808.847,897.169h14.039c1.58,0,2.915-2.45,2.915-4.03V846.207H808.847Z" transform="translate(-623.287 -713.259)"/><path class="c" d="M695.357,805.579h-.341c-8.858,0-16.612,6.271-16.612,15.129v15.953h16.953Z" transform="translate(-607.755 -708.422)"/><path class="c" d="M678.4,846.207v46.931c0,1.58,1.855,4.03,3.436,4.03h13.518V846.207Z" transform="translate(-607.755 -713.259)"/><path class="c" d="M702.787,805.579h-.862v31.082h16.953V820.708C718.879,811.85,711.645,805.579,702.787,805.579Z" transform="translate(-610.556 -708.422)"/><path class="c" d="M701.926,897.169h14.038c1.58,0,2.915-2.45,2.915-4.03V846.207H701.926Z" transform="translate(-610.556 -713.259)"/><path class="c" d="M650.9,781.58l92.267-70.76,87.582,67.935a5.438,5.438,0,0,0,8.66-3.207l1.228-6.009-97.47-74.251-94.348,72.063a4.7,4.7,0,0,0-1.495,5.52Z" transform="translate(-604.012 -695.289)"/></g><g transform="translate(80.479 631.285)"><rect class="c" width="122.314" height="182.28" transform="translate(330.151 65.662)"/><rect class="c" width="126.679" height="12.859" transform="translate(329.815 66.173)"/><path class="c" d="M25.351,83.209V0H47.768V83.209ZM0,83.209V0H22.417V83.209Z" transform="translate(367.425 160.1)"/><rect class="c" width="126.679" height="12.859" transform="translate(327.969 237.536)"/><g class="b" transform="translate(342.523 99.959)"><g transform="translate(73.875)"><rect class="a" width="11.12" height="16.372" transform="translate(12.576)"/><rect class="a" width="11.12" height="16.372"/><rect class="a" width="11.12" height="16.372" transform="translate(0 17.687)"/><rect class="a" width="11.12" height="16.372" transform="translate(12.576 17.687)"/></g><g transform="translate(36.938)"><rect class="a" width="11.12" height="16.372" transform="translate(12.576)"/><rect class="a" width="11.12" height="16.372"/><rect class="a" width="11.12" height="16.372" transform="translate(0 17.687)"/><rect class="a" width="11.12" height="16.372" transform="translate(12.576 17.687)"/></g><rect class="a" width="11.12" height="16.372" transform="translate(12.576)"/><rect class="a" width="11.12" height="16.372"/><rect class="a" width="11.12" height="16.372" transform="translate(0 17.687)"/><rect class="a" width="11.12" height="16.372" transform="translate(12.576 17.687)"/></g><rect class="c" width="122.314" height="182.28" transform="translate(2.182 65.662)"/><rect class="c" width="126.679" height="12.859" transform="translate(1.846 66.173)"/><path class="c" d="M25.352,83.209V0H47.768V83.209ZM0,83.209V0H22.417V83.209Z" transform="translate(39.455 160.1)"/><rect class="c" width="126.679" height="12.859" transform="translate(0 237.536)"/><g class="b" transform="translate(14.554 99.959)"><g transform="translate(73.875)"><rect class="a" width="11.12" height="16.372" transform="translate(12.576)"/><rect class="a" width="11.12" height="16.372"/><rect class="a" width="11.12" height="16.372" transform="translate(0 17.687)"/><rect class="a" width="11.12" height="16.372" transform="translate(12.576 17.687)"/></g><g transform="translate(36.938)"><rect class="a" width="11.12" height="16.372" transform="translate(12.576)"/><rect class="a" width="11.12" height="16.372"/><rect class="a" width="11.12" height="16.372" transform="translate(0 17.687)"/><rect class="a" width="11.12" height="16.372" transform="translate(12.576 17.687)"/></g><rect class="a" width="11.12" height="16.372" transform="translate(12.576)"/><rect class="a" width="11.12" height="16.372"/><rect class="a" width="11.12" height="16.372" transform="translate(0 17.687)"/><rect class="a" width="11.12" height="16.372" transform="translate(12.576 17.687)"/></g><rect class="c" width="204.694" height="250.395" transform="translate(125.172)"/><g class="b" transform="translate(174.489 153.465)"><g transform="translate(7.794 4.758)"><rect class="a" width="43.356" height="72.158"/><rect class="a" width="43.356" height="72.158" transform="translate(47.117)"/></g><rect class="a" width="106.06" height="7.153" transform="translate(0)"/></g><path class="c" d="M134.65,37.168V19.3h12.136V37.168Zm-13.723,0V19.3h12.135V37.168Zm-26.585,0V19.3h12.135V37.168Zm-13.724,0V19.3H92.753V37.168Zm-26.585,0V19.3H66.168V37.168Zm-13.724,0V19.3H52.444V37.168Zm-26.585,0V19.3H25.859V37.168ZM0,37.168V19.3H12.135V37.168Zm134.65-19.3V0h12.136V17.866Zm-13.723,0V0h12.135V17.866Zm-26.585,0V0h12.135V17.866Zm-13.724,0V0H92.753V17.866Zm-26.585,0V0H66.168V17.866Zm-13.724,0V0H52.444V17.866Zm-26.585,0V0H25.859V17.866ZM0,17.866V0H12.135V17.866Z" transform="translate(154.27 99.755)"/><path class="c" d="M382.111,922.458v-8.543H272.788v8.543H225.1V938.82H429.8V922.458Z" transform="translate(-99.931 -688.426)"/><rect class="c" width="211.483" height="16.705" transform="translate(121.777 0.316)"/><path class="c" d="M368.829,704.254c8.059,26.636-15.948,50.643-42.584,42.585a32.422,32.422,0,0,1-21.612-21.612c-8.06-26.636,15.948-50.644,42.584-42.585A32.424,32.424,0,0,1,368.829,704.254Z" transform="translate(-109.212 -660.699)"/><path class="c" d="M359.954,708.127H347.741a1.641,1.641,0,0,1-1.64-1.64V694.273a1.645,1.645,0,0,0-1.639-1.641h-12.7a1.645,1.645,0,0,0-1.64,1.641v12.213a1.64,1.64,0,0,1-1.64,1.64H316.263a1.645,1.645,0,0,0-1.64,1.639v12.7a1.645,1.645,0,0,0,1.64,1.64h12.213a1.64,1.64,0,0,1,1.64,1.64v12.213a1.645,1.645,0,0,0,1.64,1.64h12.7a1.645,1.645,0,0,0,1.639-1.64V725.751a1.641,1.641,0,0,1,1.64-1.64h12.213a1.645,1.645,0,0,0,1.64-1.64v-12.7A1.645,1.645,0,0,0,359.954,708.127Z" transform="translate(-110.59 -662.077)"/></g><g transform="translate(273.099 718.878)"><g transform="translate(191.799 16.72)"><path class="d" d="M529.186,811.254s5.276,6.259,11.994,3.64a20.345,20.345,0,0,0,1.466-6.072c0-.317.006-.624.012-.916.035-2.9.133-4.53.133-4.53l-.006,0c-.306-.128-10.271-4.219-10.262-3.879C532.692,807.343,529.186,811.254,529.186,811.254Z" transform="translate(-520.558 -779.113)"/><path class="e" d="M534.107,801.612a15.587,15.587,0,0,0,9.135,6.539c.035-2.9.133-4.53.133-4.53l-.006,0C543.094,803.546,533.822,801.087,534.107,801.612Z" transform="translate(-521.143 -779.358)"/><path class="d" d="M545.046,801.064s-11.205,2.635-12.739-4.369-4.013-11.381,3.078-13.359,9.07.39,10.15,2.6S547.923,800.2,545.046,801.064Z" transform="translate(-520.728 -777.103)"/><path d="M531.919,797.86c-.153.1-2.564.84-7.131-8.258a7.925,7.925,0,0,1,.466-7.247c1.671-2.729,7.6-4.876,12.519-5.81s6.1,1.837,7.263,4.62c1.217,2.922,4.731,5.328,4.731,5.328-4.244,2.371-9.357-1.02-11.129-.462s-2.4,3.349-2.53,4.244-.337,1.638-2.564.839-1.007,3.156-.65,3.913C532.894,795.027,533.2,797.042,531.919,797.86Z" transform="translate(-519.956 -776.36)"/><g transform="translate(7.344 28.764)"><path class="f" d="M529.635,827.471c-.337-3.033-1.505-5.849-1.831-8.883s.357-6.472,2.83-8.26a8.2,8.2,0,0,1,5.107-1.308c4.577.162,8.845,2.686,11.89,6.107s6.469,8.018,7.975,12.343Z" transform="translate(-527.729 -809.012)"/><path class="f" d="M535.031,817.7l9.809-5.414,20.421,8.789-3.747,6.787h-9.867Z" transform="translate(-528.598 -809.402)"/><path class="f" d="M568.84,822.126l27.645-1-3.73,7.788H565.094Z" transform="translate(-532.178 -810.455)"/></g><g transform="translate(0 14.978)"><path class="g" d="M596.3,829.247h0a2.079,2.079,0,0,0,2.771-.955l9.74-19.981a2.078,2.078,0,0,0-.955-2.772h0a2.079,2.079,0,0,0-2.771.955l-9.74,19.98A2.078,2.078,0,0,0,596.3,829.247Z" transform="translate(-528.411 -794.788)"/><path class="h" d="M519.392,793.363l1.426,32.243,9.647,0-1.588-3.485a4.207,4.207,0,0,0-2.6-2.281h0l.9-6.071a10.868,10.868,0,0,0,.04-2.87l-1.039-8.722a10.871,10.871,0,0,0-6.777-8.816Z" transform="translate(-519.392 -793.363)"/></g></g><path class="i" d="M336.339,885.658s83.546,13.864,84.548,13.262,11.82-47.282,11.82-47.282S363.62,839.216,362.5,839.216s-16.145,12.021-16.346,12.823S336.339,885.658,336.339,885.658Z" transform="translate(-305.796 -767.125)"/><path class="j" d="M723.027,898.425s-84.6-3.762-85.46-4.557-1.759-48.706-1.759-48.706,70.161,2.173,71.255,2.406,13.3,15.107,13.332,15.932S723.027,898.425,723.027,898.425Z" transform="translate(-341.454 -767.832)"/><ellipse class="k" cx="34.448" cy="34.437" rx="34.448" ry="34.437" transform="translate(38.219 161.216) rotate(-89.876)"/><ellipse class="k" cx="34.448" cy="34.437" rx="34.448" ry="34.437" transform="translate(303.422 161.216) rotate(-89.876)"/><g transform="translate(313.907 102.875)"><ellipse class="l" cx="23.96" cy="23.968" rx="23.96" ry="23.968"/></g><g transform="translate(48.77 102.874)"><ellipse class="l" cx="23.96" cy="23.968" rx="23.96" ry="23.968"/></g><path class="m" d="M718.864,851.438c-2.912-19.2-12.322-23.23-40.163-28.8-30.721-6.144-69.722-26.179-69.722-26.179s-66.515-32.59-82.811-36.329-56.365-2.672-90.024-2.4-53.426,9.617-70.523,22.974-46.748,23.508-46.748,23.508l-5.387.962a11.614,11.614,0,0,0-9.572,11.434v47.64a11.882,11.882,0,0,0,8.848,11.489l19.468,5.143a2.783,2.783,0,0,0,3.235-2.453c2.132-19.49,18.98-34.3,39.071-34.277a38.944,38.944,0,0,1,38.216,46.049,3.867,3.867,0,0,0,3.8,4.572H595.719a5.762,5.762,0,0,0,5.724-6.509,38.918,38.918,0,1,1,77.259-.93,6.682,6.682,0,0,0,6.625,7.439H711.09a8.481,8.481,0,0,0,8.482-8.481V861.33A66.028,66.028,0,0,0,718.864,851.438ZM600.616,817.854a6.258,6.258,0,0,1-5.45,2.682l-93.008-3.74a7.31,7.31,0,0,1-6.911-7.4V778.783a6.623,6.623,0,0,1,6.736-6.724c7.111.231,18.47.777,27.153,2.034,13.641,1.975,50.514,22.388,65.008,31.825C602.478,811.345,602.285,815.393,600.616,817.854Z" transform="translate(-301.935 -757.38)"/><path class="n" d="M304.832,831.006h21.219a2.544,2.544,0,0,1,2.347,3.527l-2.384,5.687a14.59,14.59,0,0,1-13.456,8.95h-7.726a2.738,2.738,0,0,1-2.738-2.738V833.744A2.738,2.738,0,0,1,304.832,831.006Z" transform="translate(-301.718 -766.147)"/><path class="o" d="M734.923,840.968c11.685,1.789,25.142,12.855,25.142,12.855a5.223,5.223,0,0,1-4.153,8.771l-22.784-1.439a11.242,11.242,0,0,1-10.088-8.091h0C720.824,845.412,722.71,839.1,734.923,840.968Z" transform="translate(-351.746 -767.294)"/><path class="p" d="M303.77,880.7a2.045,2.045,0,0,0-1.957,2.79,13.3,13.3,0,0,0,8.971,7.963l21.814,5.762a3.118,3.118,0,0,0,3.624-2.749,42.041,42.041,0,0,1,2.573-10.571,1.753,1.753,0,0,0-1.6-2.379Z" transform="translate(-301.668 -772.064)"/><path class="q" d="M729.46,890.892a2.693,2.693,0,0,0-2.724,3.057,43.743,43.743,0,0,1,.1,10.312,7.415,7.415,0,0,0,7.35,8.255h28.587a9.411,9.411,0,0,0,9.411-9.412v-7.4a3.863,3.863,0,0,0-3.77-3.864Z" transform="translate(-352.279 -773.278)"/><path class="r" d="M617.147,901.014a39.13,39.13,0,0,1,.407-5.751,3.785,3.785,0,0,0-3.635-4.359l-186.348-4.548a3,3,0,0,0-2.944,3.847,39.169,39.169,0,0,1,1.483,10.715,39.759,39.759,0,0,1-.659,7.2,3.949,3.949,0,0,0,3.866,4.692H611.671a5.9,5.9,0,0,0,5.815-6.711A39.924,39.924,0,0,1,617.147,901.014Z" transform="translate(-316.295 -772.737)"/><path class="s" d="M2.036,0H23.207a2.037,2.037,0,0,1,2.037,2.037v0a2.037,2.037,0,0,1-2.037,2.037H2.037A2.037,2.037,0,0,1,0,2.037v0A2.036,2.036,0,0,1,2.036,0Z" transform="translate(69.01 66.215)"/><path class="t" d="M2.037,0h21.17a2.037,2.037,0,0,1,2.037,2.037v0a2.036,2.036,0,0,1-2.036,2.036H2.037A2.037,2.037,0,0,1,0,2.037v0A2.037,2.037,0,0,1,2.037,0Z" transform="translate(197.186 68.252)"/><path class="n" d="M638.951,821.842l-5.787,6.37a4.53,4.53,0,0,1-3.354,1.484H609.087a7.218,7.218,0,0,1-4.057-1.247l-1.429-.981a7.175,7.175,0,0,1,.8-12.34l3.216-1.632a7.181,7.181,0,0,1,3.25-.777h9.082a7.216,7.216,0,0,1,3.136.727c.109.048.219.108.328.169l7.071,3.888a6.865,6.865,0,0,0,1.647.654l6.205,1.618A1.261,1.261,0,0,1,638.951,821.842Z" transform="translate(-337.246 -763.97)"/><path class="u" d="M376.894,818.49l100.462,1.119s7.244-.195,8.23-7.012.9-36.015.9-36.015-.859-5.862-6.474-5.937c-3.412-.046-14.105-2.089-41.92,1.3A101.792,101.792,0,0,0,378.5,800.987l-8.4,8.4S364.434,818.372,376.894,818.49Z" transform="translate(-309.663 -758.882)"/></g><g transform="translate(149.957 742.137)"><path class="d" d="M221.294,843.362l-.334,2.241s-.148,0-.407-.018c-.815-.056-2.8-.167-5.039-.408-3.371-.333-7.373-.926-8.966-1.907-2.427-1.483-6.41-6.021-9-10.56a2.986,2.986,0,0,1-.185-.333,16.31,16.31,0,0,1-2.371-6.707,9.584,9.584,0,0,1,.315-3.037,7.744,7.744,0,0,1,1.371-2.742,1.378,1.378,0,0,1,.259-.315,6.392,6.392,0,0,1,1.76-1.5c.445-.186.927.037,1.426.574v.019a8.447,8.447,0,0,1,1.278,1.889c.019.019.037.038.037.056.093.167.186.351.3.555a.466.466,0,0,1,.074.13q.305.638.611,1.334c2.278,4.964,4.705,12.485,6.724,14.727.87.964,4.854,2.853,8.022,4.261C219.441,842.622,221.294,843.362,221.294,843.362Z" transform="translate(-165.821 -787.859)"/><path class="v" d="M200.834,818.594s1.869,3.261,2.149,4.1c0,0-2.423-.093-3.4,1.771C199.579,824.465,199.345,819.034,200.834,818.594Z" transform="translate(-166.368 -787.928)"/><path d="M191.631,787.9c-.012-.333-.27-3.928-5.745-4.116,0,0,2.692.322,3.157,1.5,0,0-1.833-1.462-3.326-.992s-2.37,3.086-2.378,3.946.821,3.633,1.768,3.869a2.913,2.913,0,0,0,1.148,0,12.754,12.754,0,0,0-.736,1.313c-2.185,4.485.069,8.867,1.918,8.383,1.187-.31,1.522,1.713,1.522,1.713l11.523-9.329S196.25,785.434,191.631,787.9Z" transform="translate(-164.435 -783.783)"/><path class="f" d="M194.586,928.152l-2.447.912s-10.633-14.746-11.942-27.72a19.718,19.718,0,0,1,.35-6.633s-.1-.593-.285-1.643c-.084-.489-.188-1.078-.306-1.754-.346-1.98-.822-4.691-1.365-7.776-1.251-7.1-2.872-16.178-4.131-22.851l.66-.212,7.136-2.3,1.475-4.685,5.315-1.4s1.187,2.322,2.248,13.291c.2,1.439.374,3.026.507,4.746a93.945,93.945,0,0,1-.506,19.216q-.366,2.86-.933,5.9a26.264,26.264,0,0,0-.2,5.823C190.693,911.67,194.586,928.152,194.586,928.152Z" transform="translate(-163.378 -791.916)"/><path class="w" d="M191.8,870.127l-11.539,22.94c-.084-.489-.188-1.078-.306-1.754-.346-1.98-.822-4.691-1.365-7.776-1.251-7.1-2.872-16.178-4.131-22.851l.66-.212,7.136-2.3,1.475-4.685,5.315-1.4s1.187,2.322,2.248,13.291C191.488,866.82,191.666,868.406,191.8,870.127Z" transform="translate(-163.378 -791.916)"/><path class="f" d="M185.282,854.672l-.267-2.291c-4.475,1.189-16.433-3.321-16.433-3.321s-4.335,3.811-3.766,12.946c.277,4.459.785,23.406,1.315,29.012.191,2.032.359,3.479.428,4.056v.006a.8.8,0,0,1-.13.5,26.283,26.283,0,0,0-1.957,4.115c-5.2,13.864.8,30.937.8,30.937l1.558-.628s3.416-19,6.193-27.4a16.639,16.639,0,0,1,1.336-3.211,36.216,36.216,0,0,0,3.344-8.917,219.461,219.461,0,0,0,4.5-23.656C182.346,866.828,185.282,854.672,185.282,854.672Z" transform="translate(-161.937 -791.556)"/><path class="d" d="M196.071,821.638a13.928,13.928,0,0,1-5.154,1.207c-7.694.422-9.441-6.323-9.759-10.8a6.452,6.452,0,0,1,2.64-.334c.546.03,1.115.086,1.585.144.942-.492,2.632-2.88,3.609-6.875l.332.154,5.552,2.61s-.589,1.807-1.025,3.535a7.055,7.055,0,0,0-.38,3.026c.438.178.7.29.7.29l0,.005A38.09,38.09,0,0,1,196.071,821.638Z" transform="translate(-164.176 -786.307)"/><path class="n" d="M196.295,827.577c-.057.153-.122.3-.191.457-1.949,4.2-5.556,21.582-5.556,21.582.514,3.125-23.49-.614-23.553-3.459-.845-3.018,3-7.866,5.168-10.3a6.943,6.943,0,0,0,.728-.98,6.832,6.832,0,0,0,.983-2.87,99.384,99.384,0,0,0,.3-10.114h0c.424-.314.833-.6,1.215-.879a10.81,10.81,0,0,0,1.479-1.227,2.244,2.244,0,0,0,.71-1.4,7.356,7.356,0,0,0-.031-1.171c-.018-.186-.041-.372-.07-.557a15.861,15.861,0,0,0-1.115-3.724c2.065-.835,5.736-.337,5.736-.337s0,.2-.006.537c-.011,1.341,0,4.784.43,5.436.537.811,10.372,4.367,10.892,3.265.512-1.083-.889-6.158-.942-6.35l0-.005a15.488,15.488,0,0,1,4.471,2.378C194.955,819.151,197.83,823.505,196.295,827.577Z" transform="translate(-162.475 -787.197)"/><path class="x" d="M195.98,807.767s-.59,1.805-1.025,3.535c-3.245-.906-4.231-4.317-4.528-6.145Z" transform="translate(-165.28 -786.328)"/><path class="d" d="M196.6,808.381s-7.764-1.8-6.571-6.614,1-8.294,6-7.35,5.512,3.019,5.5,4.724S198.651,808.724,196.6,808.381Z" transform="translate(-165.217 -785.031)"/><path d="M201.71,796.286c-.834-1.747-1.816-1.654-2.431-1.344a5.569,5.569,0,0,0-7.226-.618,9.482,9.482,0,0,1-4.362,4.687s1.194,1.221,4.65,1.194a5.685,5.685,0,0,0,3.084-1.161,18.578,18.578,0,0,1-4.049,3.02c4.328-.828,7.23-5.838,7.527-6.37a6.241,6.241,0,0,1,1.127,2.667c.08,1.322-.374,3.89.382,3.988C200.411,802.349,202.962,798.9,201.71,796.286Z" transform="translate(-164.954 -784.912)"/><path d="M174.277,942.16H161.948a6.775,6.775,0,0,1,.349-3.305c.617-1.367,1.584-1.989,1.352-3.645a4.44,4.44,0,0,0,3.843,1.47,13.528,13.528,0,0,0,2.139,2.773C170.436,940.032,174.029,939.826,174.277,942.16Z" transform="translate(-161.88 -801.814)"/><path d="M204.319,942.234H191.989a5.127,5.127,0,0,1,.349-3.305,2.377,2.377,0,0,0-.089-2.837,4.805,4.805,0,0,0,2.076.391,4.341,4.341,0,0,0,1.833-.645,44.667,44.667,0,0,0,3.513,3.69C200.477,940.107,204.07,939.9,204.319,942.234Z" transform="translate(-165.45 -801.889)"/><path class="d" d="M202.816,846.695l-.57,2.082s-.815-.148-2.112-.389c-.389-.074-.611-.13-.611-.13-1.037-.2-2.278-.482-3.63-.778h-.019c-2.315-.556-4.909-1.223-7.094-1.964A19.492,19.492,0,0,1,185,843.83a2.236,2.236,0,0,1-.259-.185c-2.168-1.574-4.743-6.206-6.743-11.17-.278-.685-.537-1.371-.8-2.038a50.658,50.658,0,0,1-2.112-7.039,19.925,19.925,0,0,1-.5-3.354,8.2,8.2,0,0,1-.019-.944c.038-5.372,2.705-6.113,2.705-6.113.055-.018.111-.037.185-.055.463-.074.944.24,1.445.852a16.868,16.868,0,0,1,1.983,3.5c1.055,2.39,2.167,5.484,3.2,8.559.574,1.685,1.13,3.371,1.686,4.927.315.945.63,1.834.926,2.649a25.509,25.509,0,0,0,1.557,3.613,8.97,8.97,0,0,0,2.278,2.056,83.036,83.036,0,0,0,7.336,4.557c1.037.593,1.805,1.3,2.62,1.746C201.811,846.114,202.816,846.695,202.816,846.695Z" transform="translate(-163.391 -787.252)"/><path class="n" d="M180.881,817.293c-3.566-.983-6.317,1.8-6.317,1.8.045-5.364,2.714-6.1,2.714-6.1C178.353,812.552,179.6,814.413,180.881,817.293Z" transform="translate(-163.391 -787.254)"/><path class="d" d="M207.993,851.269c.688-.245,2.242-.773,2.26-.56a.857.857,0,0,1-.343.578,6.161,6.161,0,0,1,3.577.8,1.5,1.5,0,0,1,.792.846.62.62,0,0,1-.47.9c-1.136.332-.76.055-2.349.554a4.3,4.3,0,0,1-4.163-.577l-1.286-.565.386-2.164S207.183,851.191,207.993,851.269Z" transform="translate(-167.135 -791.746)"/><path class="d" d="M226.225,846.9c.689-.244,2.243-.773,2.261-.56a.86.86,0,0,1-.344.579,6.158,6.158,0,0,1,3.577.8,1.5,1.5,0,0,1,.792.847.62.62,0,0,1-.47.9c-1.136.331-.759.054-2.349.554a4.3,4.3,0,0,1-4.163-.578l-1.286-.564.385-2.164S225.416,846.82,226.225,846.9Z" transform="translate(-169.306 -791.225)"/></g><g transform="translate(768.631 739.676)"><path class="d" d="M871.995,832.819c-.709-.5-2.319-1.6-2.4-1.358a1.079,1.079,0,0,0,.219.789,6.968,6.968,0,0,0-4.3-.153,1.753,1.753,0,0,0-1.15.758.773.773,0,0,0,.269,1.206c1.194.742.847.3,2.505,1.377s3.688,1.356,4.9.6l1.628-.271.2-2.677S872.937,832.976,871.995,832.819Z" transform="translate(-864.179 -786.994)"/><path class="d" d="M920.124,806.363s-3.837,4.552-8.723,2.647a14.811,14.811,0,0,1-1.066-4.416c0-.23,0-.454-.008-.666-.026-2.111-.1-3.295-.1-3.295h0c.223-.093,7.469-3.067,7.463-2.821C917.573,803.52,920.124,806.363,920.124,806.363Z" transform="translate(-869.662 -782.99)"/><path class="e" d="M916.97,799.352a11.334,11.334,0,0,1-6.643,4.755c-.026-2.111-.1-3.295-.1-3.295h0C910.435,800.758,917.178,798.97,916.97,799.352Z" transform="translate(-869.662 -783.169)"/><path class="d" d="M908.336,798.953s8.149,1.916,9.265-3.177,2.918-8.276-2.238-9.715-6.6.283-7.382,1.893S906.244,798.323,908.336,798.953Z" transform="translate(-869.286 -781.528)"/><path d="M916.953,796.624c.111.071,1.865.61,5.186-6.006a5.761,5.761,0,0,0-.339-5.27c-1.215-1.985-5.523-3.546-9.1-4.225s-4.44,1.336-5.282,3.36a10.932,10.932,0,0,1-3.441,3.874c3.087,1.725,6.805-.742,8.093-.336s1.743,2.436,1.839,3.087.246,1.191,1.865.611.733,2.295.473,2.845C916.243,794.563,916.024,796.028,916.953,796.624Z" transform="translate(-868.918 -780.988)"/><g transform="translate(34.676 62.567)"><path d="M942.517,941.277h4.935c1.034,0,2.184-1.036,2.472-2.933s2.414-2.932,2.874-4.484-1.9-3.738-1.9-3.738l-.394-.506-.411-.528-3.909.919s-.1.931-.157,2.117c-.041.855-.064,1.846-.016,2.713.115,2.07-.58,4.3-2.418,4.7S942.517,941.277,942.517,941.277Z" transform="translate(-908.164 -861.19)"/><path d="M903.542,941.962h13.081a1.167,1.167,0,0,0,.278-.081c.873-.437.6-3.781.5-4.813-.02-.192-.035-.3-.035-.3s-4.6-3.679-5.232-.862c-.02.087-.043.173-.068.259v0c-.8,2.635-4.368,3.832-6.43,4.166A2.245,2.245,0,0,0,903.542,941.962Z" transform="translate(-903.542 -861.875)"/><path class="f" d="M906.535,857.135s.7,8.716,1.519,19.192c1.116,14.231,2.458,31.712,2.59,35.023.23,5.751,1.151,14.949,1.151,14.949s2.183,2.186,6.553,1.264a150.393,150.393,0,0,0,5.007-27.023c.018-.227.034-.457.052-.686,1.035-14.143,2.644-43.925,2.644-43.925Z" transform="translate(-903.898 -852.478)"/><path class="w" d="M906.535,857.135s.7,8.716,1.519,19.192l15.3,24.212c.018-.227.034-.457.052-.686,1.035-14.143,2.644-43.925,2.644-43.925Z" transform="translate(-903.898 -852.478)"/><path class="f" d="M910.156,857.7s12.591,31.564,20.87,46.4,10.865,18.972,10.865,18.972,4.744-1.9,5.174-3.191c0,0-3.166-28.636-8.709-35.617-3.133-3.945-6.813-15.782-6.986-19.921s-1.121-12.332-1.121-12.332Z" transform="translate(-904.329 -852.012)"/></g><g transform="translate(47.193 23.877)"><path class="d" d="M942.738,851.863l.133,2.03a4.373,4.373,0,0,0,2.412,5.456s1.606.648,1.671-.6-.141-.781-.01-2.541-.562-3.423-1.726-3.983l-.956-1.1Z" transform="translate(-920.714 -813.216)"/><path class="y" d="M941.239,848.217c-1.394.448-1.617.346-1.617.346s-6.782-12.349-7.469-13.48-14.4-13.848-14.4-13.848l3.524-13.143s15.6,20.2,17.283,23.1c2.784,4.791,4.415,15.914,4.415,15.914A4.086,4.086,0,0,1,941.239,848.217Z" transform="translate(-917.751 -808.093)"/></g><path class="y" d="M903.516,826c.049,2.7.205,5.733.417,8.814.013.182.026.366.039.548.136,1.909.282,3.822.45,5.689q.1,1.122.215,2.214l.012.1c.005.272.039.567.069.836.688,6.989,1.409,12.511,1.543,12.6a.783.783,0,0,0,.536.136c1.833-.23,7.3.186,11.778-.789a33.916,33.916,0,0,0,10.479-4.345c.457-.27,1.5-.987,1.415-1.522-.084-.589-.238-1.439-.433-2.507a135.735,135.735,0,0,1-2.251-17.6q-.116-2.092-.337-4.125a62.727,62.727,0,0,0-1.826-9.85c-1.536-5.528-3.791-9.76-6.621-11.416-.37-.207-2.359,1.059-4.186,2.231a8.066,8.066,0,0,1-5.192,1.23l-1.521,1.682a16.978,16.978,0,0,0-4.338,9.043q-.061.448-.1.955A59.344,59.344,0,0,0,903.516,826Z" transform="translate(-868.861 -783.819)"/><path class="y" d="M873.489,831.827c-.108-1.553.7-1.811.7-1.811s15.785-2.861,17.127-3.283,12.816-12.359,12.816-12.359,4.4-4.96,8-3.865a6.767,6.767,0,0,1,4.768,5.718,6.848,6.848,0,0,1-3.18,7.032c-5.387,3.3-16.172,9.814-18.712,10.559-5.653,1.657-20.84.133-20.84.133A4.9,4.9,0,0,1,873.489,831.827Z" transform="translate(-865.286 -784.485)"/></g></g><path class="z" d="M38.566-1532.966c-.3.008-.6.011-.9.011C11.894-1532.954-9-1561.606-9-1596.949s32.064-62.992,52.1-98.9c.077-.138.153-.272.23-.406,6.053-12.543,15.1-17.117,28.5-17.655a16.829,16.829,0,0,1,4.76-.656c27.276,0,75.41,57.523,75.41,95.039s-84.862,86.6-112.138,86.6C39.412-1532.926,38.979-1532.939,38.566-1532.966Z" transform="translate(-334.217 467.94) rotate(76)"/><path class="aa" d="M24.385-1576.957c-.209.006-.42.009-.63.009C5.665-1576.948-9-1598.658-9-1625.44s22.5-47.732,36.568-74.939c.054-.1.107-.207.162-.308,4.248-9.5,10.6-12.97,20-13.378a11,11,0,0,1,3.341-.5c19.144,0,52.928,43.589,52.928,72.017s-59.562,65.62-78.706,65.62C24.979-1576.926,24.675-1576.937,24.385-1576.957Z" transform="matrix(0.978, -0.208, 0.208, 0.978, 831.561, 2196.716)"/></g></svg>