<svg xmlns="http://www.w3.org/2000/svg" xmlns:xlink="http://www.w3.org/1999/xlink" width="1413.748" height="280.431" viewBox="0 0 1413.748 280.431"><defs><style>.a{opacity:0.453;}.b,.d,.e{fill:none;}.b,.e{stroke:#008bcc;stroke-width:3px;}.c{opacity:0.166;fill:url(#a);}.d{stroke:#fff;stroke-width:6px;}.d,.e{opacity:0.554;}.f{fill:#008bcc;}.g{filter:url(#b);}</style><linearGradient id="a" x1="0.5" x2="0.5" y2="1" gradientUnits="objectBoundingBox"><stop offset="0" stop-color="#168cca"/><stop offset="1" stop-color="#4d4b94" stop-opacity="0"/></linearGradient><filter id="b" x="0" y="0" width="1381.625" height="267.435" filterUnits="userSpaceOnUse"><feOffset dy="3" input="SourceAlpha"/><feGaussianBlur stdDeviation="3" result="c"/><feFlood flood-opacity="0.161"/><feComposite operator="in" in2="c"/><feComposite in="SourceGraphic"/></filter></defs><g class="a" transform="translate(10.591 -1812.514)"><path class="b" d="M2658-1072.1l278.448-135.167,347.026,34.424,263.9-42.226,206.526,27.521,265.11-128.589" transform="translate(-2658.282 3137.347)"/><path class="c" d="M404.995,566.945v-27.31l279.8-135.724,344.656,33.734,265.1-40.37,208.026,26.636,264.146-128.13,41.714,271.164Z" transform="translate(-405.276 1526)"/><g class="g" transform="matrix(1, 0, 0, 1, -10.59, 1812.51)"><path class="d" d="M2658-1072.1l278.448-135.167,347.026,34.424,263.9-42.226,206.526,27.521,265.11-128.589" transform="translate(-2647.69 1324.83)"/></g><path class="e" d="M2658-1072.1l278.448-135.167,347.026,34.424,263.9-42.226,206.526,27.521,265.11-128.589" transform="translate(-2658.282 3137.347)"/><circle class="f" cx="9" cy="9" r="9" transform="translate(385 1934)"/></g></svg>