<svg xmlns="http://www.w3.org/2000/svg" width="23.466" height="23.419" viewBox="0 0 23.466 23.419"><defs><style>.a{fill:#524f9c;}</style></defs><g transform="translate(-203.75 -327.096)"><path class="a" d="M282.43,338.421c.126.447.255.839.343,1.24.095.429.187.809.774.7.314-.059.3.186.307.4s-.013.4-.323.4q-3.208-.014-6.417,0c-.264,0-.318-.133-.3-.35.017-.189-.077-.5.255-.441.651.112.758-.306.85-.774a4.851,4.851,0,0,0,.258-1.17c-1.156,0-2.3,0-3.437,0a1.6,1.6,0,0,1-1.811-1.789q-.005-3.892,0-7.784a1.579,1.579,0,0,1,1.73-1.745q5.669-.011,11.339,0a1.591,1.591,0,0,1,1.755,1.731q.014,3.923,0,7.846a1.6,1.6,0,0,1-1.744,1.741C284.832,338.427,283.653,338.421,282.43,338.421Zm-2.145-2.74c2.056,0,4.113-.011,6.169.009.4,0,.519-.1.514-.509-.022-2.076-.007-4.152-.012-6.229,0-.823-.222-1.053-1.026-1.054q-5.577-.007-11.155,0c-.831,0-1.069.245-1.071,1.079,0,2.056.012,4.111-.012,6.166-.005.437.109.553.547.548C276.255,335.668,278.27,335.681,280.285,335.681Zm.073.77c-2.035,0-4.07,0-6.105,0-.175,0-.418-.1-.514.1a.736.736,0,0,0,.1.712.961.961,0,0,0,.928.382q5.576,0,11.151,0a1.253,1.253,0,0,0,.664-.126.784.784,0,0,0,.374-.858c-.065-.394-.409-.2-.615-.2C284.345,336.444,282.351,336.451,280.358,336.451Zm-.04,3.905h.311c1.567,0,1.571,0,1.084-1.523-.045-.14.012-.392-.217-.4a9.4,9.4,0,0,0-2.351.058c-.35.085-.294.84-.465,1.277-.03.076-.029.166-.064.239-.139.3,0,.354.268.348C279.363,340.348,279.841,340.356,280.318,340.356Z" transform="translate(-60.545)"/><path class="a" d="M203.8,442.247c-.186-.606.2-1.057.673-1.512,1.018-.975,1.994-2,3.005-2.979a.857.857,0,0,0,.279-.816,3.077,3.077,0,0,1,2.959-3.542,3.112,3.112,0,1,1-.23,6.2c-.371-.037-.7-.062-.932.286-.011.016-.032.036-.048.037-.692.02-1.115.261-1.107,1.065,0,.265-.409.206-.648.194-.291-.014-.49.024-.436.388.089.59-.155.87-.763.778-.344-.052-.442.11-.4.42.087.616-.211.836-.792.771a3.389,3.389,0,0,0-.373,0C203.8,443.536,203.8,443.536,203.8,442.247Zm7.274-8.06a2.342,2.342,0,0,0-2.5,2.857.923.923,0,0,1-.3,1.027c-1.113,1.087-2.2,2.2-3.311,3.288a1.018,1.018,0,0,0-.364.87c.023.273-.036.524.395.523s.426-.229.395-.516c-.058-.527.192-.737.69-.666.4.057.519-.1.467-.476-.07-.508.159-.747.675-.678.363.049.555-.059.5-.466-.082-.593.228-.765.772-.734.273.015.595.119.811-.168a.861.861,0,0,1,1.034-.275,2.177,2.177,0,0,0,2.328-.817,2.218,2.218,0,0,0,.274-2.452A2.151,2.151,0,0,0,211.071,434.186Z" transform="translate(0 -93.034)"/><path class="a" d="M329.321,483.178c.347-.06.48.061.464.394-.012.26-.039.43-.366.414-.268-.013-.484,0-.461-.377C328.976,483.332,328.965,483.089,329.321,483.178Z" transform="translate(-109.583 -136.588)"/><path class="a" d="M329.364,458.2c.347-.064.414.118.413.421,0,.286-.087.4-.388.394s-.451-.051-.442-.4C328.954,458.305,329.028,458.142,329.364,458.2Z" transform="translate(-109.573 -114.735)"/><path class="a" d="M279.8,483.586c.064.358-.142.386-.431.4-.371.017-.372-.183-.383-.457-.013-.321.143-.362.409-.371C279.726,483.145,279.862,483.263,279.8,483.586Z" transform="translate(-65.851 -136.586)"/><path class="a" d="M304.363,483.178c.323-.057.442.077.429.4-.01.265-.049.423-.371.41-.273-.011-.475-.011-.458-.382C303.977,483.321,304,483.114,304.363,483.178Z" transform="translate(-87.707 -136.594)"/><path class="a" d="M223.653,383.63c.047.294-.018.448-.376.445-.329,0-.423-.106-.41-.42.011-.256.02-.429.357-.413C223.5,383.255,223.729,383.258,223.653,383.63Z" transform="translate(-16.73 -49.138)"/><path class="a" d="M261.081,371.172c.078.346-.052.453-.379.451-.309,0-.44-.072-.428-.41.01-.283.072-.42.38-.388C260.895,370.85,261.211,370.756,261.081,371.172Z" transform="translate(-49.469 -38.269)"/><path class="a" d="M223.224,433.2c.349-.072.453.062.451.389,0,.311-.077.433-.412.422-.284-.009-.414-.07-.387-.376C222.9,433.382,222.823,433.086,223.224,433.2Z" transform="translate(-16.735 -92.84)"/><path class="a" d="M235.732,371.6c-.3.048-.461-.015-.458-.374,0-.33.108-.426.425-.41.256.012.43.02.408.356C236.09,371.442,236.1,371.679,235.732,371.6Z" transform="translate(-27.59 -38.261)"/><path class="a" d="M329.757,446.135c.08.371-.14.389-.424.394s-.4-.066-.393-.377.07-.435.407-.424C329.649,445.737,329.833,445.786,329.757,446.135Z" transform="translate(-109.568 -103.827)"/><path class="a" d="M329.763,471.133c.08.374-.147.376-.425.394-.362.023-.377-.159-.389-.442-.015-.333.147-.351.407-.358C329.662,470.718,329.838,470.787,329.763,471.133Z" transform="translate(-109.574 -125.706)"/><path class="a" d="M292.064,483.158c.378-.079.37.154.389.428.025.364-.16.374-.442.386-.334.014-.349-.153-.359-.41C291.64,483.251,291.723,483.086,292.064,483.158Z" transform="translate(-76.932 -136.573)"/><path class="a" d="M317.045,483.947c-.315.071-.422-.059-.42-.386,0-.309.072-.44.41-.427.283.01.411.072.391.379C317.409,483.772,317.448,484.033,317.045,483.947Z" transform="translate(-98.789 -136.565)"/><path class="a" d="M223.656,408.621c.06.317-.058.422-.391.428-.354.006-.4-.143-.4-.436s.06-.4.373-.4S223.728,408.272,223.656,408.621Z" transform="translate(-16.734 -70.996)"/><path class="a" d="M223.653,396.125c.069.343-.033.475-.376.462-.275-.011-.406-.051-.4-.369.009-.293.043-.464.4-.423C223.521,395.822,223.776,395.777,223.653,396.125Z" transform="translate(-16.744 -60.121)"/><path class="a" d="M223.665,421.138c.089.387-.093.437-.4.442s-.376-.11-.371-.392c.005-.263.024-.435.357-.4C223.506,420.817,223.811,420.74,223.665,421.138Z" transform="translate(-16.757 -81.998)"/><path class="a" d="M248.226,371.614c-.408.078-.334-.186-.361-.409-.049-.4.2-.342.454-.362.362-.029.311.194.334.424C248.691,371.655,248.47,371.663,248.226,371.614Z" transform="translate(-38.605 -38.285)"/><path class="a" d="M223.258,446.526c-.38.086-.358-.156-.377-.426-.024-.342.156-.332.408-.352.368-.029.374.159.386.439C223.689,446.523,223.527,446.569,223.258,446.526Z" transform="translate(-16.741 -103.843)"/><path class="a" d="M223.66,371.182c.062.309-.04.441-.383.428-.275-.011-.406-.051-.4-.369.009-.293.043-.453.4-.427C223.542,370.834,223.733,370.847,223.66,371.182Z" transform="translate(-16.744 -38.261)"/><path class="a" d="M315.865,343.283c-.582,0-1.164,0-1.745,0-.359,0-.534-.159-.532-.526.006-.955.008-1.91,0-2.866,0-.377.181-.524.534-.523.623,0,1.251-.048,1.869.013.633.062.815-.186.722-.762-.026-.162.008-.335-.023-.5a.737.737,0,0,0-.757-.684.678.678,0,0,0-.762.661c0,.5-.244.568-.6.476-.4-.1-.192-.453-.163-.667a1.513,1.513,0,0,1,1.548-1.255,1.554,1.554,0,0,1,1.526,1.37,4.723,4.723,0,0,1,.015.684c-.006.346-.092.713.475.7.245,0,.295.243.294.47,0,.955-.007,1.91,0,2.866,0,.413-.215.543-.587.538C317.07,343.278,316.468,343.283,315.865,343.283Zm.064-.823v-.009c.5,0,1.159.195,1.444-.05.34-.292.073-.974.112-1.485.009-.124-.012-.25,0-.372.041-.306-.093-.39-.386-.382a15.413,15.413,0,0,1-1.987-.009c-.649-.066-.834.166-.749.773.071.507-.22,1.192.118,1.485C314.768,342.655,315.433,342.46,315.929,342.46Z" transform="translate(-96.13 -8.365)"/><path class="a" d="M292.2,352.805c-.321.005-.6.094-.608-.39-.008-.526.313-.415.6-.415s.608-.109.6.419C292.778,352.976,292.413,352.765,292.2,352.805Z" transform="translate(-76.876 -21.788)"/><path class="a" d="M297.068,339.353c-.251-.249-.6-.435-.679-.764-.042-.186.295-.514.47-.461a1.07,1.07,0,0,1,.7.7C297.6,339.021,297.3,339.2,297.068,339.353Z" transform="translate(-81.076 -9.65)"/><path class="a" d="M297.559,363.629a3.364,3.364,0,0,1-.793.673c-.136.058-.528-.322-.459-.478a1.394,1.394,0,0,1,.685-.673C297.189,363.069,297.35,363.415,297.559,363.629Z" transform="translate(-81 -31.544)"/><path class="a" d="M256.5,447.041a1.2,1.2,0,0,1-1.21,1.168,1.217,1.217,0,0,1-1.138-1.186,1.174,1.174,0,0,1,2.348.018Zm-.778-.018c-.05-.234-.182-.391-.42-.375a.355.355,0,0,0-.344.423.336.336,0,0,0,.373.329A.373.373,0,0,0,255.721,447.022Z" transform="translate(-44.111 -103.947)"/><path class="a" d="M329.369,371.609c-.3.054-.435-.036-.437-.382s.124-.409.427-.4c.266.006.418.038.406.363C329.755,371.476,329.731,371.685,329.369,371.609Z" transform="translate(-109.561 -38.272)"/></g></svg>