<svg xmlns="http://www.w3.org/2000/svg" width="129.001" height="110" viewBox="0 0 129.001 110"><defs><style>.a{fill:#7774b0;}</style></defs><g transform="translate(-356 -349)"><path class="a" d="M48.95,108.883a54.5,54.5,0,0,1-19.622-8.276,55.143,55.143,0,0,1-19.881-24.2,54.774,54.774,0,0,1-3.2-10.324A55.555,55.555,0,0,1,5.135,55c0-1.8.089-3.625.265-5.419l4.436.865c-.139,1.5-.209,3.036-.209,4.554a49.3,49.3,0,0,0,8.6,27.874,50.433,50.433,0,0,0,31.624,20.967,51.415,51.415,0,0,0,20.307,0,50.445,50.445,0,0,0,31.623-20.967,49.8,49.8,0,0,0,4.645-8.468,49.459,49.459,0,0,0,0-38.812,49.8,49.8,0,0,0-4.645-8.468A50.457,50.457,0,0,0,79.618,9.064c-.545-.229-1.1-.449-1.646-.655L79.286,3.49c.7.264,1.4.544,2.082.832a54.987,54.987,0,0,1,32.4,39.594,55.693,55.693,0,0,1,0,22.169,54.91,54.91,0,0,1-64.817,42.8ZM42.771,95.9a44.436,44.436,0,0,1,0-81.8,44.148,44.148,0,0,1,42,4.092,44.491,44.491,0,0,1,16.043,19.529,44.408,44.408,0,0,1-4.082,42.093A44.424,44.424,0,0,1,77.245,95.9a44.332,44.332,0,0,1-34.474,0ZM58.541,65.712a2.581,2.581,0,0,0,1.833,4.418,2.568,2.568,0,0,0,1.855-.744,2.592,2.592,0,0,0,0-3.674,2.571,2.571,0,0,0-1.855-.743A2.5,2.5,0,0,0,58.541,65.712Zm-.261-4.987h4.277V38.9H58.28ZM10.45,45.978l-4.43-.863c.076-.419.154-.823.23-1.2A54.753,54.753,0,0,1,14.506,24.25,55.059,55.059,0,0,1,38.65,4.322a54.51,54.51,0,0,1,10.3-3.2,55.306,55.306,0,0,1,22.118,0c.483.1.974.207,1.459.32L71.205,6.382c-.334-.076-.685-.15-1.043-.223a51.415,51.415,0,0,0-20.307,0A50.445,50.445,0,0,0,18.231,27.126a49.681,49.681,0,0,0-4.644,8.468,49.185,49.185,0,0,0-2.936,9.359c-.068.33-.136.675-.2,1.024h0ZM116.165,27.661a3.851,3.851,0,1,1,3.85,3.86A3.855,3.855,0,0,1,116.165,27.661ZM0,22.514a1.925,1.925,0,1,1,1.925,1.93A1.927,1.927,0,0,1,0,22.514Zm126.432,0a1.284,1.284,0,1,1,1.283,1.287A1.285,1.285,0,0,1,126.433,22.514ZM4.108,9.266V6.176H1.03a1.03,1.03,0,0,1,0-2.059H4.108V1.027a1.027,1.027,0,1,1,2.054,0v3.09H9.239a1.03,1.03,0,0,1,0,2.059H6.161v3.09a1.027,1.027,0,1,1-2.054,0Z" transform="translate(356 349)"/></g></svg>